<svg width="103" height="103" viewBox="0 0 103 103" fill="none" xmlns="http://www.w3.org/2000/svg">
<circle cx="51.5" cy="51.5" r="51.5" fill="#009BFF" fill-opacity="0.7"/>
<g clip-path="url(#clip0_3208_146)">
<path d="M32.9336 65.9999C30.3021 65.9999 28.6852 64.3041 28.4478 62.6296C28.331 61.8074 28.3682 60.9237 28.404 60.0689L28.4066 60.0212C28.4133 59.8655 28.6626 59.6948 28.9107 59.6773C28.9239 59.6773 28.9385 59.676 28.9518 59.676C29.1879 59.676 29.3988 59.8191 29.4638 60.025C29.5182 60.1957 29.5288 60.4141 29.5314 60.5848C29.5407 61.0354 29.5381 61.4961 29.5367 61.943C29.5367 62.1263 29.5354 62.3095 29.5354 62.4928V62.8932L30.4917 63.3125L45.0621 51.493L30.5368 39.7088L29.5341 39.9975V40.4619C29.5341 40.6326 29.5341 40.8021 29.5354 40.9728C29.5381 41.367 29.5394 41.7737 29.5301 42.1691V42.2142C29.5221 42.4929 29.5155 42.7565 29.4532 42.9724C29.3908 43.1921 29.1521 43.3063 28.9491 43.3063C28.9346 43.3063 28.9213 43.3063 28.9067 43.3051C28.6374 43.285 28.3987 43.1042 28.3947 42.9184C28.3921 42.7892 28.3894 42.6586 28.3868 42.5281C28.3695 41.7147 28.3523 40.9452 28.4889 40.2109C28.8284 38.3857 30.4758 37.0677 32.4959 37.0087L32.5835 37.0062C32.6471 37.0037 32.7121 37.0012 32.7758 37.0012H52.669C58.6351 36.9999 64.6012 37.0012 70.5673 37.005C72.732 37.0062 74.378 38.2025 74.8635 40.1255C74.951 40.4707 74.9908 40.8711 74.9921 41.387C75.0014 47.8829 75.0027 54.4931 74.9961 61.5965C74.9948 63.8761 73.6896 65.4916 71.5064 65.9158C71.1761 65.9799 70.8087 65.9799 70.4187 65.9799H67.5153C64.7458 65.9799 61.9776 65.9799 59.2081 65.9786C56.4399 65.9786 53.6717 65.9761 50.9022 65.9761C45.9999 65.9761 39.5298 65.9786 32.9509 66.0012H32.931L32.9336 65.9999ZM30.3657 64.8564H72.9986L57.3923 52.1885L56.9598 52.5437C56.6057 52.8349 56.2569 53.1236 55.912 53.4098C55.14 54.0487 54.4119 54.6525 53.6611 55.255C53.055 55.7433 52.3692 56.0006 51.6768 56.0006C50.9845 56.0006 50.3107 55.7458 49.7125 55.2626C48.963 54.6588 48.2309 54.055 47.4576 53.4161C47.1087 53.1286 46.7559 52.8374 46.3965 52.5424L45.9641 52.1872L30.3644 64.8539L30.3657 64.8564ZM58.2982 51.4918L73.3686 63.7167L73.6591 62.789C73.8713 62.1124 73.874 54.586 73.866 51.3813C73.8382 40.6778 73.6405 40.2912 73.5676 40.1443L73.1935 39.4088L58.2995 51.4918H58.2982ZM31.3035 39.0435L31.8447 39.3962C31.8964 39.4301 31.9481 39.4615 32.0012 39.4941C32.0861 39.5468 32.1656 39.5958 32.224 39.6422C37.0242 43.526 41.8231 47.411 46.622 51.296L50.1793 54.1755C50.5176 54.4492 51.0415 54.8132 51.6835 54.8132C52.3188 54.8132 52.8281 54.4604 53.1558 54.1943C59.3115 49.2135 65.4872 44.2101 71.2451 39.5443C71.3485 39.4602 71.4228 39.3761 71.5024 39.2858C71.5342 39.2494 71.57 39.2079 71.6138 39.1627L72.5914 38.1184H31.9627L31.3022 39.0422L31.3035 39.0435Z" fill="white"/>
<path d="M27.1105 54.9463H24.0452C23.3077 54.9463 22.5715 54.9463 21.8341 54.9463C21.5144 54.9463 21.2637 54.8735 21.1284 54.7429C21.0396 54.6576 20.9984 54.5421 21.0011 54.3902C21.0077 53.9132 21.5118 53.8417 21.8102 53.8417C23.569 53.8391 25.3278 53.8379 27.0866 53.8379C28.8454 53.8379 30.6042 53.8379 32.363 53.8417C32.676 53.8417 32.9214 53.9119 33.0527 54.0375C33.1429 54.1241 33.1866 54.2458 33.184 54.409C33.1813 54.5697 33.1774 54.945 32.3855 54.9463C31.6454 54.9475 30.9053 54.9488 30.1651 54.9488H27.1091L27.1105 54.9463Z" fill="white"/>
<path d="M28.9718 49.1471C27.8073 49.1471 26.6082 49.1446 25.4078 49.1383C25.1638 49.1383 24.9569 49.0668 24.8242 48.94C24.7234 48.8433 24.673 48.7216 24.6743 48.5785C24.6783 48.1831 25.0842 48.04 25.4317 48.0375C25.9052 48.0349 26.3801 48.0337 26.8549 48.0337C27.2064 48.0337 28.6164 48.0349 28.9679 48.0349C28.9679 48.0349 30.6975 48.0337 31.053 48.0337C31.5172 48.0337 31.9801 48.0337 32.4443 48.0375C33.1792 48.0412 33.1845 48.4266 33.1871 48.5722C33.1898 48.7354 33.1407 48.8659 33.0439 48.9588C32.9245 49.073 32.7255 49.1371 32.4828 49.1383C31.3355 49.1446 30.155 49.1471 28.9745 49.1471H28.9718Z" fill="white"/>
</g>
<defs>
<clipPath id="clip0_3208_146">
<rect width="54" height="29" fill="white" transform="translate(21 37)"/>
</clipPath>
</defs>
</svg>
