<svg width="141" height="141" viewBox="0 0 141 141" fill="none" xmlns="http://www.w3.org/2000/svg">
<circle cx="70.5" cy="70.5" r="70.5" fill="#009BFF" fill-opacity="0.7"/>
<g clip-path="url(#clip0_2984_331)">
<path d="M55.0596 99.9981C53.4497 99.9981 52.0095 99.4401 51.004 98.4286C49.9854 97.404 49.4538 96.0025 49.4612 94.3751C49.4668 93.2423 48.8195 92.8858 48.1834 92.688C41.4377 90.5736 37.4157 86.0404 36.2293 79.2156C34.8077 71.0283 40.1076 62.8933 48.2934 60.693C49.0919 60.4784 49.4612 59.9969 49.4575 59.1776C49.4388 54.6221 49.4426 50.0143 49.4482 45.5596C49.4519 42.344 51.7838 40.0075 54.9924 40.0056C56.8281 40.0056 58.6637 40.0056 60.4994 40.0056H69.1404C72.6624 40.0056 76.1845 40.0056 79.7065 40C81.2698 40 82.5197 40.4908 83.5383 41.5005C87.5454 45.4756 91.1439 49.0774 94.5391 52.5132C95.511 53.4967 96.0017 54.7677 95.9998 56.2924C95.9923 60.9356 95.9942 65.6554 95.9942 70.2202V80.8616C95.9942 85.363 95.9961 89.8663 95.9942 94.3677C95.9942 97.6821 93.6866 99.9981 90.3846 99.9981C84.6128 99.9981 78.8391 99.9981 73.0672 99.9981C67.2954 99.9981 61.0628 99.9981 55.0596 99.9981ZM51.3305 94.0243C51.2689 95.2691 51.6028 96.3142 52.2968 97.0439C52.9796 97.7624 53.9757 98.1412 55.179 98.1412C60.8911 98.1412 66.6014 98.1412 72.3136 98.1412C78.0257 98.1412 84.2546 98.1412 90.2261 98.1412C92.6773 98.1412 94.1399 96.6594 94.1399 94.1754C94.1399 85.391 94.1399 76.6065 94.1399 67.8221V57.511L87.2917 57.5129C86.1798 57.5129 85.068 57.5129 83.9543 57.5092C80.8538 57.5017 78.507 55.1633 78.4977 52.0728C78.4921 50.0666 78.494 48.0585 78.494 46.0523C78.494 45.1733 78.494 41.8588 78.494 41.8588H55.2816C52.752 41.8588 51.2987 43.3051 51.2987 45.8227C51.2987 48.8404 51.2987 51.8563 51.2987 54.8722V60.1145L52.0692 60.0902C52.2464 60.0846 52.4236 60.0827 52.599 60.0827C56.8915 60.0827 60.9676 61.7288 64.0793 64.7185C67.1704 67.6877 68.9762 71.6535 69.1646 75.8824C69.3642 80.3913 67.9744 84.3571 65.0325 87.6715C61.7101 91.4134 57.3877 93.3114 52.1867 93.3114L51.364 93.3076L51.3286 94.0205L51.3305 94.0243ZM52.571 61.9863C44.4244 62.0647 37.841 68.6694 37.8989 76.711C37.9269 80.66 39.4715 84.3589 42.2492 87.1303C45.0251 89.8998 48.7169 91.4264 52.6419 91.4264H52.7911C60.8725 91.3443 67.3905 84.6762 67.3215 76.5599C67.2898 72.7005 65.7414 69.0482 62.9618 66.2787C60.1841 63.5092 56.5427 61.9844 52.7072 61.9844H52.571V61.9863ZM80.3557 43.0924C80.3557 43.977 80.3539 44.8635 80.3501 45.7481C80.3445 47.8569 80.3389 50.0386 80.3669 52.1848C80.3912 54.0865 81.8817 55.6019 83.7584 55.6355C84.8796 55.6541 86.0959 55.6635 87.5827 55.6635H87.5864C88.4744 55.6635 89.3642 55.6597 90.2597 55.6579C91.1644 55.6541 92.0729 55.6523 92.9907 55.6523H94.2537L93.6437 54.5456C93.25 53.8327 89.2821 49.8594 87.5957 48.1835C81.9339 42.5624 81.5179 42.4392 81.3183 42.3795L80.3576 42.0921V43.0942L80.3557 43.0924Z" fill="white"/>
<path d="M80.5461 66.4578H77.3281C76.5893 66.4578 75.8506 66.4578 75.11 66.4578C74.4347 66.456 74.0317 66.1107 74.0317 65.534C74.0317 65.2541 74.1176 65.032 74.291 64.8734C74.4795 64.6998 74.7593 64.6084 75.1025 64.6065C76.9233 64.6047 78.7459 64.6028 80.5666 64.6028C82.3873 64.6028 84.1745 64.6028 85.9784 64.6065C86.6518 64.6065 87.0548 64.9518 87.0566 65.5303C87.0566 66.1088 86.6556 66.456 85.984 66.4597C85.2434 66.4616 84.5028 66.4634 83.7622 66.4634H80.5479L80.5461 66.4578Z" fill="white"/>
<path d="M77.2968 84.3477C76.5655 84.3477 75.8342 84.3477 75.1029 84.344C74.4314 84.3421 74.0303 83.9931 74.0303 83.4146C74.0303 82.5822 74.7839 82.4927 75.1085 82.4908C76.9218 82.4889 78.7332 82.4871 80.5465 82.4871C82.3597 82.4871 84.1711 82.4871 85.9844 82.4908C86.3276 82.4908 86.6075 82.5841 86.7959 82.7577C86.9675 82.9182 87.0552 83.1402 87.0552 83.4183C87.0552 83.995 86.6504 84.3402 85.9769 84.344C85.2214 84.3458 84.4659 84.3477 83.7103 84.3477H80.47H77.2968Z" fill="white"/>
<path d="M79.0297 75.4046C78.4551 75.4046 77.8805 75.4046 77.306 75.4009C76.9627 75.399 76.6847 75.2983 76.5019 75.1098C76.3434 74.9474 76.2613 74.7197 76.2669 74.4491C76.2762 73.8948 76.6754 73.5496 77.3078 73.5477C78.7498 73.544 80.1919 73.5421 81.632 73.5421C83.0722 73.5421 84.5553 73.5421 86.0178 73.5477C86.6502 73.5477 87.0476 73.8948 87.0569 74.451C87.0606 74.7179 86.9804 74.9455 86.8219 75.1079C86.6409 75.2945 86.3536 75.3972 86.0141 75.399C85.4265 75.4028 84.8407 75.4028 84.2531 75.4028H81.6246H79.0315L79.0297 75.4046Z" fill="white"/>
<path d="M49.2133 80.9885C49.1611 80.9885 49.0006 80.9885 48.7469 80.744C48.3496 80.3614 48.3589 79.7922 48.7693 79.3611C49.0883 79.0252 49.4278 78.6911 49.7561 78.3664C50.1964 77.9316 50.6516 77.4818 51.0806 77.0096C51.4444 76.6084 51.6869 76.0205 51.7 75.511C51.7336 74.1412 51.728 72.7527 51.7224 71.409C51.7224 71.047 51.7187 70.6868 51.7187 70.3247C51.7187 69.6529 51.9108 69.414 52.1216 69.2554C52.2951 69.1247 52.4928 69.0557 52.6943 69.0557C53.0861 69.0557 53.5338 69.3225 53.5879 69.9085C53.6588 70.6662 53.6401 71.4295 53.6233 72.2376C53.6159 72.5997 53.6065 72.9636 53.6065 73.3256V74.0722H53.6382V74.242C53.6382 74.9624 53.6364 75.6827 53.6401 76.4031C53.6438 76.8958 53.489 77.2578 53.1402 77.577C52.4928 78.1686 51.8511 78.7788 51.228 79.3704C50.7971 79.7791 50.3662 80.1897 49.9315 80.5947C49.6554 80.8522 49.4073 80.9885 49.2152 80.9885H49.2133Z" fill="white"/>
</g>
<defs>
<clipPath id="clip0_2984_331">
<rect width="60" height="60" fill="white" transform="translate(36 40)"/>
</clipPath>
</defs>
</svg>
