<svg width="65" height="57" viewBox="0 0 65 57" fill="none" xmlns="http://www.w3.org/2000/svg">
<g clip-path="url(#clip0_2997_1142)">
<path d="M32.5001 40.2128C31.1167 40.2128 29.7317 40.2128 28.3483 40.2095C27.2789 40.2095 27.0003 39.927 26.9874 38.8463C26.9745 37.644 26.9632 36.2447 26.9938 34.8651C27.0148 33.9946 26.472 33.7729 26.063 33.6809C21.3522 32.6215 16.6431 31.554 11.934 30.488L7.98986 29.5946C7.48094 29.4796 6.97041 29.3663 6.46149 29.2529C5.4195 29.0214 4.34207 28.7799 3.2888 28.5303C1.63964 28.1377 0.605696 27.1506 0.127376 25.5099C0.093555 25.3949 0.0549028 25.2881 0.0162507 25.1847C0.00980869 25.1682 0.00497718 25.1518 -0.00146484 25.1354V14.146C0.298089 13.1179 0.616969 12.3591 1.2499 11.7678C2.06159 11.009 3.07943 10.6707 4.5466 10.6707C9.98689 10.6723 15.424 10.6723 20.861 10.6723H47.9111C52.0903 10.6723 56.2664 10.6723 60.4456 10.6707C61.9176 10.6707 62.9339 11.009 63.7472 11.7678C64.3801 12.3591 64.699 13.1179 64.9985 14.146V25.1305C64.9454 25.2717 64.8955 25.4146 64.8455 25.5559C64.7215 25.9123 64.604 26.249 64.4381 26.5446C63.8567 27.5842 62.9403 28.2527 61.7131 28.5319L58.7723 29.1987C52.3126 30.6638 45.6322 32.1781 39.0597 33.653C38.546 33.7679 37.9614 34.0258 37.9984 35.0047C38.0419 36.1527 38.0274 37.3287 38.0145 38.4669L38.0097 38.8463C37.9968 39.9286 37.7182 40.2078 36.6488 40.2095C35.2654 40.2111 33.8803 40.2128 32.4969 40.2128H32.5001ZM29.0633 38.1203H35.9273V31.0892H29.0633V38.1203ZM32.7578 12.7549C23.3074 12.7549 13.8585 12.7549 4.4081 12.7549C2.73962 12.7549 2.02616 13.4792 2.02294 15.1742C2.01811 18.1272 2.01811 21.1509 2.02294 24.1582C2.02616 25.6478 2.54152 26.2933 3.99259 26.6234C6.78682 27.2607 9.58265 27.8979 12.3769 28.5352C15.4594 29.2382 18.5419 29.9411 21.6244 30.6441C22.6906 30.8871 23.7567 31.1253 24.8502 31.37L26.9809 31.8479V30.9151C26.9793 30.7229 26.9793 30.557 26.9809 30.3895C27.0003 29.2694 27.2773 28.9951 28.3853 28.9934C28.8894 28.9934 29.3935 28.9918 29.8976 28.9918H32.2489C32.7015 28.9918 33.154 28.9918 33.6082 28.9918C34.0607 28.9918 34.5133 28.9918 34.9658 28.9918C35.5617 28.9918 36.1592 28.9918 36.7551 28.9984C37.6715 29.0049 37.9646 29.294 38.0097 30.2318C38.0193 30.4338 38.0161 30.6441 38.0145 30.8674C38.0145 30.9808 38.0113 31.0974 38.0113 31.2189V31.8102L38.5814 31.7034C38.6877 31.6837 38.7843 31.6673 38.8745 31.6509C39.0565 31.6197 39.2127 31.5917 39.3722 31.5556C42.97 30.736 57.3599 27.4545 60.9578 26.6349C62.4636 26.2917 62.9709 25.6462 62.9725 24.0744C62.9757 21.123 62.9757 18.1732 62.9725 15.2218C62.9709 13.4726 62.2736 12.7582 60.568 12.7582C51.2964 12.7582 42.0247 12.7582 32.753 12.7582L32.7578 12.7549Z" fill="white"/>
<path d="M5.82534 57.0001C3.90562 57.0001 2.63171 56.2528 1.93275 54.7155C1.67507 54.1489 1.53012 53.4361 1.5269 52.7085C1.49469 46.5856 1.50113 35.7407 1.5108 28.115C1.5108 27.2494 1.82484 26.8109 2.44328 26.8109C2.55118 26.8109 2.67036 26.824 2.79437 26.8503C3.16156 26.9275 3.36127 27.1115 3.44018 27.4449C3.50299 27.706 3.53198 28.0082 3.53359 28.3663C3.53842 33.1868 3.53842 41.136 3.53842 47.3871V52.3734C3.53842 54.2474 4.21483 54.9455 6.03632 54.9455H58.9769C60.7903 54.9455 61.4651 54.2639 61.4651 52.4293V42.4894C61.4651 37.3339 61.4651 31.8925 61.4651 28.225C61.4651 27.0359 61.8758 26.8848 62.3734 26.8191C62.4298 26.8125 62.4861 26.8076 62.5393 26.8076C63.0434 26.8076 63.3977 27.1361 63.4637 27.6633C63.483 27.8161 63.4927 27.9721 63.4927 28.1232C63.4927 34.5697 63.4943 46.2735 63.4927 52.72C63.4927 54.5825 62.7422 55.8718 61.2638 56.5517C60.6743 56.8227 59.9029 56.9738 59.0944 56.9771C53.63 56.9968 48.2702 56.9985 43.7479 56.9985L18.2488 56.9952C14.1098 56.9952 9.97239 56.9952 5.83339 56.9985H5.82856L5.82534 57.0001Z" fill="white"/>
<path d="M42.9572 6.62721C42.3854 6.60585 42.0472 6.26916 42.0053 5.68118C41.986 5.42167 41.9876 5.15889 41.9892 4.88132C41.9892 4.6793 41.9925 4.47072 41.9844 4.25884C41.9232 2.45055 40.7862 2.06622 39.8424 2.06294C37.4009 2.05472 34.9272 2.0498 32.4921 2.0498C30.057 2.0498 27.5881 2.05472 25.1578 2.06294C24.2157 2.06622 23.0803 2.45055 23.0159 4.25884C23.0094 4.46086 23.0094 4.66288 23.0094 4.85833C23.0094 5.20652 23.0094 5.53336 22.9724 5.85199C22.9192 6.29544 22.5891 6.58286 22.0882 6.62392C22.0544 6.62721 22.0206 6.62721 21.9884 6.62721C21.5938 6.62721 21.1654 6.43504 21.1106 6.07043C20.882 4.54955 20.8063 2.95477 21.7983 1.60799C22.5923 0.528922 23.6923 0.00334894 25.1595 0.00170652C26.166 0.00170652 32.0202 0.00170652 32.0202 0.00170652H36.9387C37.8422 6.41101e-05 38.7441 0.00170652 39.6476 0.00170652C42.4112 0.00827618 43.9991 1.63098 44.0056 4.45429C44.0056 4.55448 44.0056 4.65631 44.0088 4.7565C44.012 5.08991 44.0169 5.40525 43.9863 5.71238C43.9299 6.28558 43.5643 6.62721 43.0087 6.62721C42.9926 6.62721 42.9749 6.62721 42.9588 6.62721H42.9572Z" fill="white"/>
</g>
<defs>
<clipPath id="clip0_2997_1142">
<rect width="65" height="57" fill="white"/>
</clipPath>
</defs>
</svg>
