<svg width="36" height="36" viewBox="0 0 36 36" fill="none" xmlns="http://www.w3.org/2000/svg">
<path d="M15 10.5L4.5 10.5M31.5 10.5L21 10.5M21 10.8779C26.1757 12.2101 30 16.9084 30 22.4999M6 22.4999C6 16.9084 9.82432 12.2101 15 10.8779M5.4 28.5H6.6C7.44008 28.5 7.86012 28.5 8.18099 28.3365C8.46323 28.1927 8.6927 27.9632 8.83651 27.681C9 27.3601 9 26.9401 9 26.1V24.9C9 24.0599 9 23.6399 8.83651 23.319C8.6927 23.0368 8.46323 22.8073 8.18099 22.6635C7.86012 22.5 7.44008 22.5 6.6 22.5H5.4C4.55992 22.5 4.13988 22.5 3.81901 22.6635C3.53677 22.8073 3.3073 23.0368 3.16349 23.319C3 23.6399 3 24.0599 3 24.9V26.1C3 26.9401 3 27.3601 3.16349 27.681C3.3073 27.9632 3.53677 28.1927 3.81901 28.3365C4.13988 28.5 4.55992 28.5 5.4 28.5ZM17.4 13.5H18.6C19.4401 13.5 19.8601 13.5 20.181 13.3365C20.4632 13.1927 20.6927 12.9632 20.8365 12.681C21 12.3601 21 11.9401 21 11.1V9.9C21 9.05992 21 8.63988 20.8365 8.31901C20.6927 8.03677 20.4632 7.8073 20.181 7.66349C19.8601 7.5 19.4401 7.5 18.6 7.5H17.4C16.5599 7.5 16.1399 7.5 15.819 7.66349C15.5368 7.8073 15.3073 8.03677 15.1635 8.31901C15 8.63988 15 9.05992 15 9.9V11.1C15 11.9401 15 12.3601 15.1635 12.681C15.3073 12.9632 15.5368 13.1927 15.819 13.3365C16.1399 13.5 16.5599 13.5 17.4 13.5ZM29.4 28.5H30.6C31.4401 28.5 31.8601 28.5 32.181 28.3365C32.4632 28.1927 32.6927 27.9632 32.8365 27.681C33 27.3601 33 26.9401 33 26.1V24.9C33 24.0599 33 23.6399 32.8365 23.319C32.6927 23.0368 32.4632 22.8073 32.181 22.6635C31.8601 22.5 31.4401 22.5 30.6 22.5H29.4C28.5599 22.5 28.1399 22.5 27.819 22.6635C27.5368 22.8073 27.3073 23.0368 27.1635 23.319C27 23.6399 27 24.0599 27 24.9V26.1C27 26.9401 27 27.3601 27.1635 27.681C27.3073 27.9632 27.5368 28.1927 27.819 28.3365C28.1399 28.5 28.5599 28.5 29.4 28.5ZM33 10.5C33 11.3284 32.3284 12 31.5 12C30.6716 12 30 11.3284 30 10.5C30 9.67157 30.6716 9 31.5 9C32.3284 9 33 9.67157 33 10.5ZM6 10.5C6 11.3284 5.32843 12 4.5 12C3.67157 12 3 11.3284 3 10.5C3 9.67157 3.67157 9 4.5 9C5.32843 9 6 9.67157 6 10.5Z" stroke="white" stroke-width="1.5" stroke-linecap="round" stroke-linejoin="round"/>
</svg>
