<svg width="185" height="40" viewBox="0 0 185 40" fill="none" xmlns="http://www.w3.org/2000/svg">
<g opacity="0.77">
<path d="M38.7615 29.3982H39.9602L34.1665 6.78661L33.3674 6.58105L27.7734 29.3982H28.7724L33.7669 9.66445L38.7615 29.3982Z" fill="white"/>
<path d="M39.958 32.4809H27.7713L25.7734 29.3975H41.9559L39.958 32.4809Z" fill="white"/>
<path d="M12.9802 29.3967H14.1789L8.38524 6.37402L7.78589 6.57958L1.99219 29.3967H3.19089L8.18546 9.66298L12.9802 29.3967Z" fill="white"/>
<path d="M14.1846 32.4809H1.99783L0 29.3975H16.1824L14.1846 32.4809Z" fill="white"/>
<path d="M22.3907 6.37207H19.5938V9.66103H22.3907V6.37207Z" fill="white"/>
<path d="M22.3907 29.8057H19.5938V36.5891H22.3907V29.8057Z" fill="white"/>
<path d="M21.586 3.08496H20.1875V4.52388H21.586V3.08496Z" fill="white"/>
<path d="M20.9891 9.45605C15.595 9.45605 11 13.9784 11 19.7341C11 25.2842 15.3952 30.0121 20.9891 30.0121C26.3833 30.0121 30.9783 25.4897 30.9783 19.7341C30.9783 13.9784 26.3833 9.45605 20.9891 9.45605ZM20.9891 28.162C16.3941 28.162 12.798 24.4619 12.798 19.7341C12.798 15.0062 16.3941 11.3061 20.9891 11.3061C25.5842 11.3061 29.1802 15.0062 29.1802 19.7341C29.1802 24.4619 25.5842 28.162 20.9891 28.162Z" fill="white"/>
<path fill-rule="evenodd" clip-rule="evenodd" d="M20.3907 13.1553C19.5915 13.1553 18.9922 13.772 18.9922 14.5942V24.8722C18.9922 25.6944 19.5915 26.3111 20.3907 26.3111H21.5894C22.3885 26.3111 22.9878 25.6944 22.9878 24.8722V14.5942C22.9878 13.772 22.3885 13.1553 21.5894 13.1553H20.3907V13.1553Z" fill="white"/>
<path d="M22.5872 1.64448C22.5872 2.46672 21.788 3.28896 20.9889 3.28896C20.1898 3.28896 19.3906 2.46672 19.3906 1.64448C19.3906 0.82224 20.1898 0 20.9889 0C21.788 0 22.5872 0.82224 22.5872 1.64448Z" fill="white"/>
<path d="M14.7947 36.3828H27.1812L28.9793 39.4662H12.7969L14.7947 36.3828Z" fill="white"/>
<path d="M37.9709 6.98818L21.5887 3.69922H20.39L4.00781 6.98818V7.19374L37.9709 6.98818C37.9709 6.98818 37.9709 7.19374 37.9709 6.98818Z" fill="white"/>
<path d="M12.5798 33.5067C11.5809 35.1512 13.5787 35.9734 14.1781 34.5345L16.5755 28.9844C16.1759 28.7788 15.7763 28.5732 15.3768 28.1621L12.5798 33.5067Z" fill="white"/>
<path d="M134.649 15.417H129.055V29.6006H134.649V15.417Z" fill="white"/>
<path d="M141.445 29.6006H135.852V15.417H137.05C139.448 15.417 141.445 17.4726 141.445 19.9393V29.6006Z" fill="white"/>
<path d="M77.7111 15.417H72.1172V29.6006H77.7111V15.417Z" fill="white"/>
<path d="M84.7033 29.6006H79.1094V15.417H80.3081C82.7055 15.417 84.7033 17.4726 84.7033 19.9393V29.6006V29.6006Z" fill="white"/>
<path d="M45.75 9.86816H52.7424L57.737 26.313L56.7381 29.3964H51.5437L45.75 9.86816ZM54.1409 9.86816H62.5318L58.3363 24.0518L54.1409 9.86816Z" fill="white"/>
<path d="M142.648 17.0628L149.841 9.86816V15.4183H151.039V17.2683H149.641V29.6019H144.047V17.2683H142.648V17.0628Z" fill="white"/>
<path d="M179.203 29.6019V9.86816H184.797V29.6019H179.203V29.6019Z" fill="white"/>
<path d="M66.7345 14.8006C68.2792 14.8006 69.5314 13.5121 69.5314 11.9228C69.5314 10.3334 68.2792 9.04492 66.7345 9.04492C65.1897 9.04492 63.9375 10.3334 63.9375 11.9228C63.9375 13.5121 65.1897 14.8006 66.7345 14.8006Z" fill="white"/>
<path d="M161.43 21.1727C162.974 21.1727 164.227 19.8842 164.227 18.2948C164.227 16.7054 162.974 15.417 161.43 15.417C159.885 15.417 158.633 16.7054 158.633 18.2948C158.633 19.8842 159.885 21.1727 161.43 21.1727Z" fill="white"/>
<path d="M69.5314 15.417H63.9375V29.6006H69.5314V15.417Z" fill="white"/>
<path d="M157.828 15.417H152.234V29.6006H157.828V15.417Z" fill="white"/>
<path d="M113.883 22.406C113.883 26.1061 116.68 29.1895 120.276 29.3951V15.417C116.68 15.6226 113.883 18.706 113.883 22.406Z" fill="white"/>
<path d="M127.662 22.406C127.662 18.706 124.865 15.6226 121.469 15.417V29.6006C124.865 29.1895 127.662 26.1061 127.662 22.406Z" fill="white"/>
<path d="M164.227 22.406C164.227 26.1061 167.024 29.1895 170.62 29.3951V15.417C167.024 15.6226 164.227 18.706 164.227 22.406Z" fill="white"/>
<path d="M178.006 22.406C178.006 18.706 175.209 15.6226 171.812 15.417V29.6006C175.209 29.1895 178.006 26.1061 178.006 22.406Z" fill="white"/>
<path d="M89.7032 15.417C88.105 15.417 86.9062 16.6504 86.9062 18.2948C86.9062 19.9393 88.105 21.1727 89.7032 21.1727C89.7032 21.1727 89.7032 21.1727 89.903 21.1727C91.3015 21.1727 92.5002 19.9393 92.5002 18.2948C92.5002 17.4726 92.1006 16.8559 91.701 16.2392C91.1017 15.6226 90.5023 15.417 89.7032 15.417Z" fill="white"/>
<path d="M94.2869 15.417C93.8873 15.417 93.4878 15.417 93.288 15.6226C92.8884 15.6226 92.6886 15.8281 92.2891 16.0337C92.8884 16.6504 93.288 17.4726 93.288 18.5004V24.4616V24.8728V27.545V29.8062H98.8819V19.9393C98.6821 17.4726 96.6843 15.417 94.2869 15.417Z" fill="white"/>
<path d="M89.6943 21.7891C87.6965 21.7891 85.8984 23.4335 85.8984 25.6947C85.8984 27.9559 87.4967 29.6003 89.6943 29.6003H91.8919V28.7781V23.8447V22.6113V21.9946H90.0939H89.6943V21.7891Z" fill="white"/>
<path d="M106.886 28.3673C106.687 28.3673 106.487 28.3673 106.287 28.3673V16.4448V15.417C102.691 15.8281 100.094 18.706 100.094 22.406C100.094 26.1061 102.891 29.1895 106.287 29.3951C106.487 29.3951 106.687 29.3951 106.886 29.3951C109.284 29.3951 111.282 28.1617 112.48 26.5172V24.0505C111.881 26.7228 109.484 28.3673 106.886 28.3673Z" fill="white"/>
<path d="M106.688 15.417L107.686 16.4448L112.481 21.3782V20.7616V18.2948V15.417H106.688Z" fill="white"/>
<path d="M134.254 34.9467C134.054 34.9467 134.054 34.7411 133.854 34.7411C133.654 34.7411 133.454 34.5356 133.255 34.5356C133.055 34.5356 132.855 34.33 132.655 34.33C132.455 34.33 132.056 34.33 131.856 34.33C131.656 34.33 131.457 34.33 131.257 34.33C131.057 34.33 131.057 34.33 130.857 34.33C130.657 34.33 130.657 34.33 130.657 34.33H130.458C130.458 34.33 130.458 34.5356 130.657 34.5356C130.657 34.5356 130.857 34.7411 131.057 34.7411C131.257 34.7411 131.257 34.7411 131.457 34.9467C131.656 34.9467 131.856 34.9467 132.056 35.1523C132.256 35.1523 132.455 35.1523 132.655 35.3578C132.855 35.3578 133.055 35.5634 133.255 35.5634C133.454 35.5634 133.654 35.7689 133.854 35.7689C134.054 35.7689 134.254 35.9745 134.254 36.1801C134.453 36.3856 134.453 36.3856 134.653 36.5912C134.653 36.7967 134.853 37.0023 134.853 37.2079C134.853 37.4134 134.853 37.619 134.653 37.8245C134.653 38.0301 134.453 38.2357 134.254 38.2357C134.054 38.4412 133.854 38.4412 133.654 38.6468C133.454 38.6468 133.255 38.8523 133.055 38.8523C132.855 38.8523 132.655 38.8523 132.455 38.8523C132.256 38.8523 132.056 38.8523 131.856 38.8523C131.257 38.8523 130.857 38.8523 130.458 38.6468C130.058 38.6468 129.659 38.4412 129.259 38.2357V37.0023C129.659 37.2079 130.058 37.4134 130.458 37.4134C130.857 37.619 131.457 37.619 131.856 37.619C132.256 37.619 132.455 37.619 132.655 37.619C132.855 37.619 133.055 37.619 133.055 37.4134C133.255 37.4134 133.255 37.2079 133.255 37.2079V37.0023C133.255 37.0023 133.255 36.7967 133.055 36.7967C133.055 36.7967 132.855 36.5912 132.655 36.5912C132.455 36.5912 132.455 36.5912 132.256 36.3856C132.056 36.3856 131.856 36.3856 131.656 36.1801C131.457 36.1801 131.257 36.1801 131.057 35.9745C130.857 35.9745 130.657 35.7689 130.458 35.7689C130.258 35.7689 130.058 35.5634 129.858 35.5634C129.659 35.5634 129.459 35.3578 129.459 35.1523C129.259 34.9467 129.259 34.9467 129.059 34.7411C129.059 34.5356 128.859 34.33 128.859 34.1245C128.859 33.9189 128.859 33.7133 129.059 33.5078C129.059 33.3022 129.259 33.0967 129.459 33.0967C129.659 32.8911 129.858 32.8911 129.858 32.8911C130.058 32.8911 130.258 32.6855 130.458 32.6855C130.657 32.6855 130.857 32.6855 131.057 32.6855C131.257 32.6855 131.457 32.6855 131.656 32.6855C131.856 32.6855 132.056 32.6855 132.256 32.6855C132.455 32.6855 132.655 32.6855 132.855 32.6855C133.055 32.6855 133.255 32.6855 133.454 32.8911C133.654 32.8911 133.854 33.0967 134.054 33.0967V34.9467H134.254Z" fill="white"/>
<path d="M135.852 38.8529V33.3027H137.25V38.8529H135.852Z" fill="white"/>
<path d="M143.838 38.8529L140.242 34.9472V38.8529H138.844V33.3027H140.442L144.038 37.2084V33.3027H145.437V38.8529H143.838Z" fill="white"/>
<path d="M152.239 38.6473C152.039 38.6473 151.839 38.8529 151.64 38.8529C151.44 38.8529 151.24 38.8529 151.04 39.0584C150.841 39.0584 150.641 39.0584 150.241 39.0584C149.642 39.0584 149.242 39.0584 148.643 38.8529C148.243 38.6473 147.844 38.6473 147.444 38.2362C147.045 38.0306 146.845 37.6195 146.645 37.4139C146.445 37.0028 146.445 36.5917 146.445 36.1806C146.445 35.7695 146.445 35.3583 146.645 34.9472C146.845 34.5361 147.045 34.3305 147.444 34.125C147.844 33.9194 148.243 33.7139 148.643 33.5083C149.042 33.3027 149.642 33.3027 150.241 33.3027C150.441 33.3027 150.841 33.3027 151.04 33.3027C151.24 33.3027 151.44 33.3027 151.64 33.5083C151.839 33.5083 152.039 33.5083 152.239 33.7139C152.439 33.7139 152.639 33.9194 152.838 33.9194V35.3583C152.639 35.3583 152.439 35.1528 152.439 35.1528C152.239 35.1528 152.039 34.9472 151.839 34.9472C151.64 34.9472 151.44 34.7417 151.24 34.7417C151.04 34.7417 150.641 34.7417 150.441 34.7417C150.041 34.7417 149.642 34.7417 149.242 34.9472C148.843 34.9472 148.643 35.1528 148.443 35.3583C148.243 35.5639 148.044 35.7695 148.044 35.975C148.044 36.1806 147.844 36.3861 147.844 36.5917C147.844 36.7973 147.844 36.7973 147.844 37.0028C147.844 37.2084 147.844 37.2084 148.044 37.4139C148.044 37.6195 148.243 37.6195 148.243 37.8251C148.443 38.0306 148.443 38.0306 148.643 38.0306C148.843 38.0306 149.042 38.2362 149.242 38.2362C149.442 38.2362 149.842 38.2362 150.041 38.2362C150.241 38.2362 150.641 38.2362 150.841 38.2362C151.04 38.2362 151.24 38.2362 151.44 38.0306C151.64 38.0306 151.839 37.8251 152.039 37.8251C152.239 37.8251 152.439 37.6195 152.439 37.6195V39.0584C152.639 38.6473 152.439 38.6473 152.239 38.6473Z" fill="white"/>
<path d="M154.031 38.8529V33.3027H159.425V34.5361H155.43V35.3583H159.226V36.5917H155.43V37.6195H159.425V38.8529H154.031V38.8529Z" fill="white"/>
<path d="M164.227 38.8524V34.3301L162.828 34.9467V33.9189L164.227 33.5078H165.625V39.0579H164.227V38.8524Z" fill="white"/>
<path d="M169.21 37.826C169.609 37.826 169.809 37.826 170.209 37.826C170.409 37.826 170.608 37.6205 170.808 37.6205C171.008 37.4149 171.208 37.4149 171.208 37.2093C171.208 37.0038 171.408 36.7982 171.408 36.5927C171.208 36.5927 171.208 36.7982 171.008 36.7982C170.808 36.7982 170.608 37.0038 170.608 37.0038C170.409 37.0038 170.209 37.0038 170.009 37.2093C169.809 37.2093 169.609 37.2093 169.41 37.2093C169.01 37.2093 168.81 37.2093 168.411 37.0038C168.211 37.0038 167.811 36.7982 167.612 36.5927C167.412 36.3871 167.212 36.1815 167.012 35.976C166.812 35.7704 166.812 35.5649 166.812 35.1537C166.812 34.7426 166.812 34.5371 167.012 34.1259C167.212 33.9204 167.412 33.7148 167.612 33.5093C167.811 33.3037 168.211 33.3037 168.611 33.0981C169.01 33.0981 169.41 32.8926 169.809 32.8926C170.209 32.8926 170.608 32.8926 171.008 33.0981C171.408 33.3037 171.807 33.3037 172.007 33.7148C172.207 33.9204 172.406 34.3315 172.606 34.5371C172.806 34.9482 172.806 35.3593 172.806 35.7704C172.806 36.1815 172.806 36.5927 172.606 37.0038C172.406 37.4149 172.207 37.6205 172.007 38.0316C171.807 38.2371 171.408 38.4427 171.008 38.6483C170.409 39.0594 169.809 39.0594 169.21 39.0594C169.01 39.0594 168.81 39.0594 168.611 39.0594C168.411 39.0594 168.211 39.0594 168.011 39.0594C167.811 39.0594 167.612 39.0594 167.412 39.0594C167.212 39.0594 167.012 39.0594 167.012 39.0594V37.826C167.012 37.826 167.212 37.826 167.412 38.0316C167.612 38.0316 167.612 38.0316 167.811 38.2371C168.011 38.2371 168.211 38.2371 168.411 38.2371C168.611 37.826 168.81 37.826 169.21 37.826ZM171.208 35.3593C171.208 35.1537 171.208 35.1537 171.008 34.9482C171.008 34.7426 170.808 34.7426 170.608 34.5371C170.409 34.5371 170.209 34.3315 170.009 34.3315C169.809 34.3315 169.609 34.3315 169.41 34.3315C169.21 34.3315 169.01 34.3315 168.81 34.3315C168.611 34.3315 168.411 34.3315 168.411 34.5371C168.211 34.5371 168.211 34.7426 168.211 34.7426C168.211 34.7426 168.011 34.9482 168.011 35.1537C168.011 35.3593 168.011 35.3593 168.011 35.5649L168.211 35.7704C168.411 35.7704 168.411 35.976 168.611 35.976C168.81 35.976 169.01 35.976 169.21 35.976C169.41 35.976 169.609 35.976 169.809 35.976C170.009 35.976 170.209 35.976 170.209 35.7704C170.409 35.7704 170.409 35.5649 170.608 35.5649C171.008 35.5649 171.208 35.3593 171.208 35.3593Z" fill="white"/>
<path d="M178.616 34.5346H175.02V35.3569H175.22C175.42 35.3569 175.42 35.3569 175.619 35.3569C175.819 35.3569 175.819 35.3569 176.019 35.3569C176.219 35.3569 176.219 35.3569 176.419 35.3569C176.818 35.3569 177.218 35.3569 177.617 35.5624C178.017 35.5624 178.217 35.768 178.416 35.9735C178.616 36.1791 178.816 36.3847 179.016 36.5902C179.216 36.7958 179.216 37.0013 179.216 37.4125C179.216 37.618 179.216 38.0291 179.016 38.2347C178.816 38.4403 178.616 38.6458 178.416 38.8514C178.217 39.0569 177.817 39.0569 177.418 39.2625C177.018 39.0569 176.419 39.0569 175.819 39.0569C175.619 39.0569 175.22 39.0569 175.02 39.0569C174.82 39.0569 174.621 39.0569 174.421 39.0569C174.221 39.0569 174.021 39.0569 173.821 38.8514C173.622 38.8514 173.422 38.8514 173.422 38.6458V37.4125C173.622 37.4125 173.622 37.618 173.821 37.618C174.021 37.618 174.221 37.8236 174.421 37.8236C174.621 37.8236 174.82 37.8236 175.02 38.0291C175.22 38.0291 175.619 38.0291 175.819 38.0291C176.419 38.0291 176.818 38.0291 177.018 37.8236C177.218 37.618 177.418 37.618 177.418 37.2069C177.418 37.0013 177.218 36.7958 177.018 36.5902C176.818 36.3847 176.219 36.3847 175.819 36.3847C175.619 36.3847 175.42 36.3847 175.22 36.3847C175.02 36.3847 174.82 36.3847 174.621 36.3847C174.421 36.3847 174.221 36.3847 174.221 36.3847C174.021 36.3847 174.021 36.3847 173.821 36.3847H173.422V33.0957H178.416V34.5346H178.616Z" fill="white"/>
<path d="M181.999 38.8529H180.401L183.198 34.5361H179.602V33.3027H184.996V34.3305L181.999 38.8529Z" fill="white"/>
</g>
</svg>
