<svg width="177" height="34" viewBox="0 0 177 34" fill="none" xmlns="http://www.w3.org/2000/svg">
<path d="M55.6286 33.6205L55.6286 0L-7.62939e-06 0L-7.62939e-06 33.6205L55.6286 33.6205Z" fill="#D30909"/>
<path d="M22.5183 13.9974L20.0191 7.72283L25.8402 11.3543L28.0453 4.97495L30.1223 11.3762L35.9136 7.90112L33.3847 14.0522L40.0957 15.0609L34.0776 18.2092L38.5614 23.2592L31.9177 21.8955L32.0788 28.547L27.8561 23.2061L23.6444 28.4719L23.9306 21.7344L17.2149 23.1185L21.8677 18.1341L15.8292 14.9358L22.5183 13.9974Z" fill="#F4EA26"/>
<path d="M15.6674 14.9708L27.8006 16.796L21.7058 18.1691L15.6674 14.9708Z" fill="#E1C022"/>
<path d="M17.0858 23.1518L27.8006 16.7959L23.7968 21.8444L17.0858 23.1518Z" fill="#E1C022"/>
<path d="M23.4543 28.5992L27.8006 16.7944L27.7161 23.252L23.4543 28.5992Z" fill="#E1C022"/>
<path d="M19.8853 7.75937L27.8021 16.7959L22.3454 14.0481L19.8853 7.75937Z" fill="#E1C022"/>
<path d="M27.8913 5.01929L27.8006 16.7959L25.6939 11.3971L27.8913 5.01929Z" fill="#E1C022"/>
<path d="M38.4308 23.3067L27.8006 16.7959L33.9391 18.2488L38.4308 23.3067Z" fill="#E1C022"/>
<path d="M39.9604 15.099L27.8021 16.7959L33.265 14.0918L39.9604 15.099Z" fill="#DFBE23"/>
<path d="M35.7721 7.93939L27.8021 16.7961L29.9964 11.3832L35.7721 7.93939Z" fill="#E1C022"/>
<path d="M31.9466 28.6101L27.8006 16.7959L31.784 21.9273L31.9466 28.6101Z" fill="#E1C022"/>
<path d="M71.8685 3.95667C72.5124 3.95667 73.0725 4.05324 73.5522 4.24962C74.0319 4.44599 74.4311 4.71963 74.753 5.07053C75.0749 5.42465 75.3164 5.83993 75.4806 6.3196C75.6447 6.79927 75.7252 7.32724 75.7252 7.9067C75.7252 8.29623 75.6673 8.71796 75.5546 9.16221C75.4419 9.60969 75.2423 10.0218 74.959 10.4016C74.6757 10.7783 74.283 11.0906 73.7776 11.3384C73.2721 11.5831 72.6379 11.7054 71.8685 11.7054H66.7306C66.6855 11.7054 66.6501 11.7408 66.6501 11.7859V15.971C66.6501 16.016 66.6147 16.0514 66.5696 16.0514H63.5757C63.5307 16.0514 63.4952 16.016 63.4952 15.971V4.03715C63.4952 3.99208 63.5307 3.95667 63.5757 3.95667H71.8685ZM72.2001 8.58919C72.3064 8.5248 72.3901 8.44754 72.4448 8.35418C72.5027 8.26082 72.5382 8.16746 72.5575 8.08054C72.5768 7.99362 72.5864 7.91636 72.5864 7.85519C72.5864 7.79081 72.58 7.71033 72.5671 7.61053C72.5542 7.51073 72.5188 7.41094 72.4641 7.31758C72.4062 7.22422 72.3257 7.14374 72.2194 7.08257C72.1132 7.01819 71.9716 6.98921 71.7945 6.98921H66.7306C66.6855 6.98921 66.6501 7.02462 66.6501 7.06969V8.6085C66.6501 8.65357 66.6855 8.68898 66.7306 8.68898H71.7913C71.9555 8.68254 72.0907 8.65035 72.2001 8.58919Z" fill="white"/>
<path d="M86.4357 15.9738V11.5988C86.4357 11.5537 86.4003 11.5183 86.3552 11.5183H80.6024C80.5573 11.5183 80.5219 11.5537 80.5219 11.5988V15.9738C80.5219 16.0188 80.4865 16.0543 80.4414 16.0543H77.4475C77.4024 16.0543 77.367 16.0188 77.367 15.9738V4.03675C77.367 3.99168 77.4024 3.95627 77.4475 3.95627H80.4414C80.4865 3.95627 80.5219 3.99168 80.5219 4.03675V8.41173C80.5219 8.4568 80.5573 8.49221 80.6024 8.49221H86.3584C86.4035 8.49221 86.4389 8.4568 86.4389 8.41173V4.03675C86.4389 3.99168 86.4743 3.95627 86.5194 3.95627H89.5133C89.5584 3.95627 89.5938 3.99168 89.5938 4.03675V15.9738C89.5938 16.0188 89.5584 16.0543 89.5133 16.0543H86.5194C86.4711 16.0543 86.4357 16.0188 86.4357 15.9738Z" fill="white"/>
<path d="M112.599 16.0545C111.237 16.0545 110.171 15.681 109.395 14.9309C108.62 14.1808 108.233 13.1056 108.233 11.7085V8.30569C108.233 6.90853 108.62 5.8333 109.395 5.08321C110.171 4.33312 111.237 3.95969 112.599 3.95969H119.89C119.935 3.95969 119.971 3.9951 119.971 4.04017V6.90209C119.971 6.94716 119.935 6.98257 119.89 6.98257H113.184C112.969 6.98257 112.756 7.02121 112.541 7.09525C112.325 7.16929 112.135 7.27875 111.964 7.41718C111.794 7.55561 111.655 7.71657 111.549 7.90007C111.443 8.08357 111.388 8.27994 111.388 8.49563V11.5185C111.388 11.7342 111.443 11.9306 111.549 12.1141C111.655 12.2976 111.794 12.4585 111.964 12.597C112.135 12.7354 112.325 12.8416 112.541 12.9189C112.756 12.9929 112.969 13.0316 113.184 13.0316H119.89C119.935 13.0316 119.971 13.067 119.971 13.1121V15.974C119.971 16.019 119.935 16.0545 119.89 16.0545H112.599V16.0545Z" fill="white"/>
<path d="M148.239 11.7085C148.239 13.1056 147.853 14.1808 147.077 14.9309C146.301 15.681 145.236 16.0545 143.874 16.0545H139.602C138.24 16.0545 137.175 15.681 136.399 14.9309C135.623 14.1808 135.237 13.1056 135.237 11.7085V8.30569C135.237 6.90853 135.623 5.8333 136.399 5.08321C137.175 4.33312 138.24 3.95969 139.602 3.95969H143.874C145.236 3.95969 146.301 4.33634 147.077 5.08321C147.853 5.8333 148.239 6.90853 148.239 8.30569V11.7085ZM143.919 12.9157C144.138 12.8416 144.334 12.7322 144.505 12.5938C144.675 12.4553 144.814 12.2944 144.92 12.1109C145.026 11.9274 145.081 11.731 145.081 11.5153V8.49241C145.081 8.27672 145.026 8.08035 144.92 7.89685C144.814 7.71335 144.675 7.55239 144.505 7.41396C144.334 7.27553 144.138 7.1693 143.919 7.09203C143.697 7.01799 143.481 6.97936 143.265 6.97936H140.204C139.988 6.97936 139.772 7.01799 139.55 7.09203C139.328 7.16608 139.135 7.27553 138.964 7.41396C138.794 7.55239 138.655 7.71335 138.549 7.89685C138.443 8.08035 138.388 8.27672 138.388 8.49241V11.5153C138.388 11.731 138.443 11.9274 138.549 12.1109C138.655 12.2944 138.794 12.4553 138.964 12.5938C139.135 12.7322 139.328 12.8384 139.55 12.9157C139.769 12.9897 139.988 13.0284 140.204 13.0284H143.265C143.481 13.0316 143.7 12.9929 143.919 12.9157Z" fill="white"/>
<path d="M149.746 4.03675C149.746 3.99168 149.781 3.95627 149.826 3.95627H158.344C159.706 3.95627 160.772 4.33292 161.548 5.07979C162.323 5.82988 162.71 6.90511 162.71 8.30227V15.9706C162.71 16.0156 162.674 16.051 162.629 16.051H159.635C159.59 16.051 159.555 16.0156 159.555 15.9706V8.48899C159.555 8.2733 159.5 8.07693 159.394 7.89343C159.288 7.70993 159.149 7.54897 158.979 7.41054C158.808 7.27211 158.612 7.16587 158.393 7.08861C158.17 7.01457 157.955 6.97594 157.739 6.97594H152.984C152.939 6.97594 152.904 7.01135 152.904 7.05642V15.9673C152.904 16.0124 152.868 16.0478 152.823 16.0478H149.829C149.784 16.0478 149.749 16.0124 149.749 15.9673V4.03675H149.746Z" fill="white"/>
<path d="M177 6.90209C177 6.94716 176.965 6.98257 176.92 6.98257H169.271C169.055 6.98257 168.839 7.02121 168.617 7.09525C168.395 7.16929 168.202 7.27875 168.031 7.41718C167.86 7.55561 167.722 7.71657 167.616 7.90007C167.51 8.08357 167.455 8.27994 167.455 8.49563V11.5185C167.455 11.7342 167.51 11.9306 167.616 12.1141C167.722 12.2976 167.86 12.4585 168.031 12.597C168.202 12.7354 168.395 12.8416 168.617 12.9189C168.836 12.9929 169.055 13.0316 169.271 13.0316H173.765C173.81 13.0316 173.845 12.9962 173.845 12.9511V8.57611C173.845 8.53104 173.881 8.49563 173.926 8.49563H176.92C176.965 8.49563 177 8.53104 177 8.57611V15.974C177 16.019 176.965 16.0545 176.92 16.0545H168.662C167.3 16.0545 166.235 15.681 165.459 14.9309C164.683 14.1809 164.297 13.1056 164.297 11.7085V8.30569C164.297 6.90853 164.683 5.8333 165.459 5.08321C166.235 4.33312 167.3 3.95969 168.662 3.95969H176.916C176.961 3.95969 176.997 3.9951 176.997 4.04017V6.90209H177Z" fill="white"/>
<path d="M124.365 16.0345C122.913 16.0345 121.738 14.7887 121.738 13.4076V4.0138C121.738 3.96873 121.773 3.93332 121.819 3.93332H124.977C125.022 3.93332 125.057 3.96873 125.057 4.0138V13.0503C125.057 13.0953 125.093 13.1308 125.138 13.1308H130.301C130.346 13.1308 130.382 13.0953 130.382 13.0503V4.0138C130.382 3.96873 130.417 3.93332 130.462 3.93332H133.62C133.665 3.93332 133.701 3.96873 133.701 4.0138V15.954C133.701 15.9991 133.665 16.0345 133.62 16.0345H124.365Z" fill="white"/>
<path d="M93.8593 16.0345C92.4074 16.0345 91.2324 14.7887 91.2324 13.4076V4.0138C91.2324 3.96873 91.2678 3.93332 91.3128 3.93332H94.4709C94.516 3.93332 94.5514 3.96873 94.5514 4.0138V13.0503C94.5514 13.0953 94.5868 13.1308 94.6319 13.1308H99.7956C99.8407 13.1308 99.8761 13.0953 99.8761 13.0503V4.0138C99.8761 3.96873 99.9115 3.93332 99.9566 3.93332H103.115C103.16 3.93332 103.195 3.96873 103.195 4.0138V15.954C103.195 15.9991 103.16 16.0345 103.115 16.0345H93.8593Z" fill="white"/>
<path d="M74.0079 30.4821H64.731C64.6995 30.4821 64.6743 30.4559 64.6743 30.4231V28.1571C64.6743 28.1243 64.6995 28.098 64.731 28.098H73.9165C74.0047 28.098 74.0772 28.0718 74.134 28.016C74.1907 27.9603 74.2191 27.8881 74.2191 27.7963V27.1076C74.2191 27.0158 74.1907 26.9437 74.134 26.8879C74.0772 26.8322 74.0047 26.8059 73.9165 26.8059H67.0762C66.1842 26.8059 65.4907 26.5862 65.0021 26.1435C64.5072 25.6942 64.2614 25.0744 64.2614 24.2742V23.3626C64.2614 22.5624 64.5072 21.9393 65.0053 21.4933C65.5002 21.0473 66.1905 20.8243 67.0731 20.8243H76.019C76.0505 20.8243 76.0757 20.8506 76.0757 20.8834V23.1494C76.0757 23.1822 76.0505 23.2084 76.019 23.2084H67.1645C67.0762 23.2084 67.0037 23.2347 66.947 23.2904C66.8903 23.3462 66.8619 23.4183 66.8619 23.5102V24.1857C66.8619 24.2775 66.8903 24.3497 66.947 24.4054C67.0037 24.4612 67.0762 24.4874 67.1645 24.4874H74.0047C74.8873 24.4874 75.5777 24.7104 76.0726 25.1564C76.5675 25.6024 76.8165 26.2222 76.8165 27.0125V27.9636C76.8165 28.7539 76.5675 29.3704 76.0726 29.8131C75.5808 30.2591 74.8905 30.4821 74.0079 30.4821Z" fill="white"/>
<path d="M91.8667 26.8014H83.3497C83.318 26.8014 83.2926 26.8277 83.2926 26.8605V28.0382C83.2926 28.071 83.318 28.0972 83.3497 28.0972H92.2119C92.2436 28.0972 92.2689 28.1235 92.2689 28.1563V30.4231C92.2689 30.4559 92.2436 30.4822 92.2119 30.4822H80.7366C80.7049 30.4822 80.6796 30.4559 80.6796 30.4231V20.8834C80.6796 20.8506 80.7049 20.8244 80.7366 20.8244H92.1866C92.2183 20.8244 92.2436 20.8506 92.2436 20.8834V23.1502C92.2436 23.183 92.2183 23.2093 92.1866 23.2093H83.3497C83.318 23.2093 83.2926 23.2355 83.2926 23.2683V24.4329C83.2926 24.4657 83.318 24.492 83.3497 24.492H91.8667C91.8983 24.492 91.9237 24.5182 91.9237 24.551V26.7358C91.9237 26.7752 91.8983 26.8014 91.8667 26.8014Z" fill="white"/>
<path d="M104.43 20.848L110.29 30.4067C110.309 30.4395 110.287 30.4822 110.248 30.4822H107.271C107.255 30.4822 107.239 30.4723 107.229 30.4592L106.196 28.7141C106.186 28.6977 106.17 28.6911 106.154 28.6911H99.9399C99.9239 28.6911 99.9079 28.701 99.8983 28.7141L98.878 30.4592C98.8684 30.4756 98.8524 30.4822 98.8364 30.4822H95.8587C95.8203 30.4822 95.798 30.4395 95.8171 30.4067L101.677 20.848C101.686 20.8348 101.702 20.825 101.718 20.825H104.395C104.408 20.8217 104.421 20.8316 104.43 20.848ZM103.004 23.4197L101.194 26.4999C101.174 26.5327 101.197 26.5753 101.235 26.5753H104.856C104.894 26.5753 104.917 26.5327 104.897 26.4999L103.087 23.4197C103.068 23.3869 103.023 23.3869 103.004 23.4197Z" fill="white"/>
<path d="M127.113 27.2804H118.764C118.733 27.2804 118.707 27.3066 118.707 27.3394V30.4231C118.707 30.4559 118.682 30.4822 118.65 30.4822H116.149C116.117 30.4822 116.092 30.4559 116.092 30.4231V20.8834C116.092 20.8506 116.117 20.8244 116.149 20.8244H127.624C127.656 20.8244 127.681 20.8506 127.681 20.8834V23.1502C127.681 23.183 127.656 23.2093 127.624 23.2093H118.767C118.736 23.2093 118.71 23.2355 118.71 23.2683V24.9152C118.71 24.948 118.736 24.9742 118.767 24.9742H127.116C127.148 24.9742 127.173 25.0004 127.173 25.0332V27.2181C127.17 27.2541 127.144 27.2804 127.113 27.2804Z" fill="white"/>
<path d="M143.777 23.625V27.6816C143.777 28.5014 143.513 29.1704 142.981 29.6951C142.449 30.2198 141.764 30.4822 140.923 30.4822H133.445C132.604 30.4822 131.916 30.2198 131.381 29.6951C130.846 29.1704 130.578 28.5014 130.578 27.6816V23.625C130.578 22.8051 130.846 22.1361 131.381 21.6114C131.916 21.0867 132.604 20.8244 133.445 20.8244H140.923C141.764 20.8244 142.449 21.0867 142.981 21.6114C143.51 22.1361 143.777 22.8084 143.777 23.625ZM141.149 27.2815V24.0251C141.149 23.7857 141.072 23.5889 140.923 23.438C140.77 23.2872 140.579 23.2118 140.346 23.2118H133.993C133.77 23.2118 133.582 23.2872 133.43 23.438C133.277 23.5889 133.2 23.7857 133.2 24.0251V27.2815C133.2 27.5209 133.277 27.7144 133.43 27.8685C133.582 28.0193 133.77 28.0948 133.993 28.0948H140.346C140.579 28.0948 140.77 28.0193 140.923 27.8685C141.076 27.7144 141.149 27.5209 141.149 27.2815Z" fill="white"/>
<path d="M160.517 23.625V27.6816C160.517 28.5014 160.253 29.1704 159.721 29.6951C159.189 30.2198 158.504 30.4822 157.663 30.4822H150.186C149.345 30.4822 148.656 30.2198 148.121 29.6951C147.586 29.1704 147.318 28.5014 147.318 27.6816V23.625C147.318 22.8051 147.586 22.1361 148.121 21.6114C148.656 21.0867 149.345 20.8244 150.186 20.8244H157.663C158.504 20.8244 159.189 21.0867 159.721 21.6114C160.25 22.1361 160.517 22.8084 160.517 23.625ZM157.889 27.2815V24.0251C157.889 23.7857 157.813 23.5889 157.663 23.438C157.51 23.2872 157.319 23.2118 157.086 23.2118H150.734C150.511 23.2118 150.323 23.2872 150.17 23.438C150.017 23.5889 149.94 23.7857 149.94 24.0251V27.2815C149.94 27.5209 150.017 27.7144 150.17 27.8685C150.323 28.0193 150.511 28.0948 150.734 28.0948H157.086C157.319 28.0948 157.51 28.0193 157.663 27.8685C157.816 27.7144 157.889 27.5209 157.889 27.2815Z" fill="white"/>
<path d="M173.771 30.4822H163.794C163.762 30.4822 163.737 30.4559 163.737 30.4231V20.8834C163.737 20.8506 163.762 20.8244 163.794 20.8244H173.771C174.609 20.8244 175.291 21.0868 175.821 21.6117C176.35 22.1366 176.614 22.8091 176.614 23.6259V27.6839C176.614 28.504 176.35 29.1732 175.821 29.6981C175.291 30.2197 174.609 30.4822 173.771 30.4822ZM173.197 23.2093H166.408C166.376 23.2093 166.351 23.2355 166.351 23.2683V28.0349C166.351 28.0677 166.376 28.094 166.408 28.094H173.197C173.429 28.094 173.619 28.0185 173.771 27.8676C173.923 27.7167 173.996 27.5199 173.996 27.2804V24.0229C173.996 23.7834 173.92 23.5865 173.771 23.4356C173.619 23.2847 173.429 23.2093 173.197 23.2093Z" fill="white"/>
</svg>
