<svg width="177" height="47" viewBox="0 0 177 47" fill="none" xmlns="http://www.w3.org/2000/svg">
<g clip-path="url(#clip0_2211_7153)">
<path d="M22.4784 0.0370601C22.3785 0.529959 22.2984 0.926502 22.2096 1.36875C21.398 1.36875 20.6001 1.39593 19.8058 1.35887C19.3396 1.33663 19.167 1.50464 19.0843 1.95554C18.4307 5.50466 17.7499 9.05007 17.0925 12.5992C17.0568 12.7931 17.1517 13.0118 17.1863 13.2193C17.3824 13.1427 17.6167 13.1131 17.7671 12.9846C20.8455 10.3608 23.914 7.72703 26.9825 5.09082C27.4179 4.71651 27.8668 4.34962 28.2565 3.93084C29.0656 3.0624 28.9016 2.23102 27.794 1.81965C27.0343 1.53676 26.2179 1.40581 25.3767 1.19457C25.4174 0.914148 25.4026 0.58802 25.5272 0.329835C25.6024 0.171712 25.891 0.0358247 26.0884 0.0308834C27.2168 0 28.3478 0.00864735 29.4775 0.00741201C31.8813 0.00494134 34.285 0.00370601 36.6875 0.00370601C36.8688 0.00370601 37.0513 0.022236 37.2277 0.0308834C37.3042 1.10192 37.1438 1.30699 36.1671 1.39346C34.4231 1.54911 32.8482 2.12725 31.4977 3.25882C30.2225 4.32615 28.9521 5.39965 27.6904 6.48304C26.9381 7.13036 26.8481 7.54296 27.2119 8.49046C28.5636 12.0149 29.9191 15.5393 31.2732 19.0625C32.0613 21.1119 32.8482 23.1613 33.6412 25.2083C33.9175 25.9223 34.1974 26.0606 34.9559 26.0335C35.1903 26.0248 35.5788 26.1582 35.6404 26.3225C35.7786 26.6907 35.7194 27.1193 35.2667 27.3034C35.0657 27.3849 34.8289 27.4084 34.6081 27.4084C29.5552 27.4146 24.5011 27.4133 19.4482 27.4121C19.3088 27.4121 19.1682 27.3886 18.8549 27.3602C19.0708 26.8821 19.1522 26.2991 19.4679 26.1125C19.8157 25.9062 20.3781 26.0656 20.9849 26.0656C20.6913 25.254 20.441 24.5535 20.1832 23.8543C19.1953 21.1786 18.2087 18.5016 17.2072 15.8308C17.1382 15.6468 16.9519 15.5059 16.82 15.3453C16.6991 15.5294 16.5079 15.6999 16.4685 15.9C15.8432 19.1008 15.2364 22.304 14.6296 25.5084C14.6049 25.6419 14.6259 25.7839 14.6259 25.9729C15.3955 26.0088 16.1453 26.0433 16.9815 26.0829C16.9137 26.5474 16.857 26.9414 16.7941 27.3713H0.0763943C0.0171949 26.2114 0.179993 26.0335 1.31958 25.9878C1.58598 25.9779 1.85361 25.9618 2.11877 25.9309C2.75763 25.8556 3.1856 25.5282 3.31386 24.8747C3.63946 23.2255 3.97122 21.5776 4.28325 19.926C5.32294 14.4238 6.35276 8.92036 7.39122 3.41817C7.45905 3.05622 7.58362 2.70415 7.65638 2.34343C7.79821 1.63929 7.53675 1.34652 6.81402 1.3564C6.20476 1.36381 5.5955 1.35763 4.99488 1.35763C4.97761 1.28104 4.95664 1.24151 4.96158 1.20322C5.09108 0.00370597 5.09108 0 6.31206 0C11.4686 0 16.6251 0.00370601 21.7804 0.00741201C21.9826 0.00741201 22.1837 0.0247067 22.4784 0.0370601Z" fill="white"/>
<path d="M81.1733 27.3962C81.2412 26.9613 81.2461 26.6241 81.3596 26.3263C81.4188 26.1695 81.6506 26.0163 81.8295 25.9767C82.6287 25.8001 83.1023 25.4134 83.2552 24.5302C84.1037 19.6419 85.004 14.7636 85.9019 9.79262C85.4653 9.72838 85.0731 9.67155 84.6242 9.60608C84.6698 9.37137 84.7142 9.13789 84.7771 8.81547C88.017 8.72158 91.2459 8.62769 94.5536 8.53134C94.45 9.53196 94.3563 10.4387 94.2453 11.511C94.6363 11.2367 94.9212 11.0564 95.1851 10.8488C96.7317 9.63696 98.335 8.5054 100.333 8.21633C101.17 8.09527 102.061 8.11627 102.895 8.2608C104.42 8.52516 105.406 9.48502 105.858 10.9761C105.915 11.1651 105.994 11.3467 106.104 11.6394C106.851 11.091 107.513 10.582 108.198 10.1052C109.842 8.95753 111.612 8.12121 113.661 8.09403C116.362 8.0582 118.273 9.86427 118.216 12.5771C118.185 14.0397 117.868 15.5048 117.591 16.9502C117.052 19.7494 116.448 22.5363 115.873 25.3282C115.836 25.5061 115.815 25.6877 115.773 25.9545C116.249 25.9767 116.686 25.9977 117.117 26.0187C117.268 27.054 117.053 27.3208 116.062 27.3294C112.898 27.3541 109.736 27.3751 106.572 27.3986C106.35 27.3999 106.13 27.3986 105.908 27.3986C105.931 26.4338 106.051 26.3301 106.881 26.1522C107.066 26.1126 107.282 25.7902 107.322 25.5679C107.881 22.5438 108.42 19.5147 108.945 16.4844C109.109 15.5357 109.231 14.5795 109.351 13.6234C109.384 13.3627 109.379 13.0848 109.324 12.8291C109.092 11.758 108.091 11.4047 107.354 12.1991C106.898 12.6919 106.49 13.3356 106.332 13.9792C105.814 16.0891 105.413 18.2275 104.984 20.3572C104.643 22.0447 104.324 23.7371 104 25.4283C103.963 25.6234 103.955 25.8236 103.929 26.0595C104.277 26.0941 104.577 26.1225 104.957 26.1608C104.856 26.4981 104.791 26.8155 104.659 27.1009C104.599 27.2306 104.404 27.3813 104.27 27.3826C100.921 27.3924 97.5728 27.3838 94.2256 27.3764C94.1701 27.3764 94.1133 27.3369 93.9888 27.2887C94.0467 26.9378 94.0763 26.5709 94.1824 26.2275C94.2169 26.1163 94.4574 25.9916 94.5943 26.0015C95.1074 26.041 95.3393 25.9002 95.4355 25.3282C96.083 21.5073 96.7798 17.6938 97.4519 13.8766C97.4976 13.616 97.4815 13.3442 97.4939 13.0774C97.5198 12.5116 97.3089 12.0595 96.7884 11.8186C96.284 11.5851 95.8289 11.7704 95.4157 12.0916C94.7423 12.6141 94.4426 13.343 94.2798 14.1472C93.6903 17.0613 93.1008 19.9755 92.515 22.8909C92.3657 23.6346 92.2301 24.3807 92.0956 25.1281C91.9193 26.1077 91.8132 25.9805 92.8628 26.1448C92.8628 26.3115 92.8689 26.4869 92.8628 26.6636C92.843 27.1936 92.6334 27.4172 92.0352 27.411C88.646 27.3776 85.2569 27.3949 81.8665 27.3949H81.1746L81.1733 27.3962Z" fill="white"/>
<path d="M131.278 28.4042C129.414 28.4239 127.705 28.1163 126.04 27.5555C121.74 26.1077 119.718 22.3708 120.851 17.9718C122.29 12.3819 126.234 9.54925 131.584 8.37445C134.027 7.83831 136.519 7.77901 138.945 8.60175C141.383 9.42819 143.399 10.7796 144.506 13.2194C145.434 15.2676 145.243 17.3393 144.608 19.4085C143.362 23.4665 140.465 25.8964 136.648 27.3912C134.893 28.0781 133.07 28.4412 131.28 28.4042H131.278ZM129.515 25.2331C129.544 25.238 129.573 25.2442 129.602 25.2491C129.602 25.3517 129.599 25.4542 129.602 25.5567C129.633 26.4486 129.996 26.9453 130.725 27.0972C131.526 27.264 132.145 26.9551 132.522 26.1645C132.661 25.8705 132.765 25.5543 132.84 25.2368C133.74 21.4072 134.644 17.5777 135.517 13.742C135.717 12.8674 135.854 11.9717 135.93 11.0774C135.988 10.4029 135.717 9.81608 135.028 9.54925C134.323 9.27624 133.669 9.48749 133.27 10.0607C132.825 10.7043 132.398 11.4257 132.216 12.1743C131.61 14.6623 131.103 17.1737 130.586 19.6827C130.207 21.5271 129.87 23.3813 129.513 25.2318L129.515 25.2331Z" fill="white"/>
<path d="M48.3116 28.4139C45.5625 28.3991 43.4338 28.0124 41.4383 27.0612C38.2218 25.5282 36.6851 22.3929 37.2549 18.8722C38.3254 12.2483 43.7557 9.19578 48.1771 8.36193C50.6376 7.89745 53.1141 7.77762 55.5388 8.60406C58.13 9.48732 60.2378 10.9487 61.2602 13.6195C62.0335 15.6405 61.7696 17.6554 61.1171 19.6467C59.8197 23.6097 56.93 25.9605 53.177 27.4133C51.4393 28.0865 49.6374 28.4448 48.3103 28.4139H48.3116ZM46.1792 24.9006C46.1767 26.4584 46.5948 27.013 47.5025 27.1292C48.3436 27.2366 49.0257 26.7487 49.2847 25.7023C50.0863 22.4596 50.8608 19.2106 51.6169 15.9568C51.961 14.4805 52.2619 12.9932 52.5357 11.5009C52.696 10.6263 52.3026 9.83569 51.6736 9.56391C50.9805 9.26496 50.1591 9.50091 49.651 10.2928C49.2711 10.8857 48.9369 11.5553 48.779 12.2372C48.1623 14.8919 47.6098 17.5615 47.0622 20.231C46.7132 21.9358 46.4135 23.6504 46.1792 24.8994V24.9006Z" fill="white"/>
<path d="M81.8951 8.33735C81.7483 9.72216 81.6188 10.9995 81.477 12.2744C81.4264 12.7228 81.3203 13.165 81.287 13.6135C81.2574 14.0063 81.0922 14.1545 80.7024 14.2534C80.1339 14.3967 79.902 14.2583 79.6627 13.7012C78.6798 11.4158 77.09 9.76417 74.5617 9.22309C73.7169 9.0415 72.8819 9.15762 72.0963 9.51216C70.8544 10.0718 70.6842 11.1774 71.7498 12.0162C72.3565 12.4943 73.0398 12.8957 73.7342 13.2367C75.06 13.8865 76.4043 14.5041 77.7659 15.0724C80.4903 16.2101 81.2525 18.1854 80.7259 21.0156C79.939 25.2392 76.7151 27.8594 72.3257 27.952C70.7236 27.9854 69.177 27.7655 67.7069 27.1058C67.0459 26.8093 66.3934 26.8872 65.7324 27.1318C64.9443 27.4245 64.1562 27.721 63.3508 27.9594C62.358 28.2534 62.067 27.9829 62.2125 26.9625C62.5085 24.8933 62.8119 22.8266 63.1091 20.7759C64.0686 20.5029 64.2314 20.5696 64.6162 21.3776C65.6917 23.6419 67.1482 25.5456 69.5113 26.6092C70.8926 27.2306 72.2468 27.2602 73.5763 26.4783C74.7319 25.7988 74.8935 24.6327 73.913 23.737C73.5603 23.4146 73.1163 23.149 72.6673 22.9823C71.1874 22.4325 69.6852 21.9458 68.1953 21.4257C64.837 20.2534 63.3459 17.1169 64.5287 13.7271C65.6966 10.3769 68.1559 8.69807 71.5771 8.22494C73.3753 7.97664 75.1105 8.19529 76.8791 8.57083C77.946 8.7969 79.109 8.58071 80.2288 8.53377C80.7172 8.51401 81.2019 8.42136 81.8975 8.33612L81.8951 8.33735Z" fill="white"/>
<path d="M164.852 8.33613C164.71 9.72959 164.586 11.0094 164.446 12.2867C164.394 12.7549 164.292 13.2182 164.232 13.6851C164.192 14.0125 164.045 14.1546 163.707 14.2447C163.135 14.3967 162.847 14.2942 162.608 13.6938C161.866 11.8297 160.598 10.4164 158.739 9.58752C157.585 9.07239 156.401 8.99333 155.207 9.44052C153.815 9.96307 153.563 11.2145 154.782 12.052C155.905 12.8241 157.168 13.3961 158.391 14.015C159.288 14.4683 160.223 14.8463 161.133 15.2725C163.078 16.183 163.975 17.7321 163.818 19.8828C163.47 24.6623 160.108 27.8433 155.312 27.952C153.709 27.9878 152.16 27.7741 150.688 27.1157C150.048 26.8291 149.414 26.8686 148.773 27.1033C148.06 27.364 147.35 27.6296 146.628 27.8668C146.339 27.9619 146.03 28.0138 145.726 28.0323C145.264 28.0607 145.031 27.8248 145.101 27.3492C145.413 25.2392 145.724 23.1293 146.059 21.0243C146.082 20.8871 146.304 20.6808 146.429 20.6821C146.78 20.687 147.152 20.5227 147.428 21.0181C148.085 22.1954 148.746 23.3924 149.578 24.4449C150.646 25.7939 152.079 26.6883 153.806 27.0181C154.92 27.2306 155.933 26.9267 156.826 26.2744C157.659 25.6654 157.767 24.6512 157.048 23.9211C156.659 23.5258 156.151 23.1886 155.634 22.9884C154.239 22.4474 152.812 21.9878 151.394 21.506C147.727 20.2608 146.203 17.065 147.589 13.4418C148.686 10.5721 150.798 8.92291 153.807 8.35589C155.843 7.9717 157.819 8.10759 159.842 8.57331C160.9 8.81791 162.073 8.58196 163.193 8.53378C163.681 8.51278 164.166 8.42013 164.852 8.33613Z" fill="white"/>
<path d="M100.517 34.6204H101.721V43.7112C101.199 43.8681 100.804 43.8162 100.442 43.2801C99.1653 41.3937 97.8358 39.5444 96.526 37.6815C96.3866 37.4826 96.2386 37.2887 95.9685 37.1133V43.7347H94.7734V34.6488C95.3383 34.4981 95.7219 34.6129 96.0882 35.154C97.4904 37.2244 98.9532 39.2553 100.517 41.2825V34.6204Z" fill="white"/>
<path d="M0 34.2434C0.585827 34.0556 0.959523 34.2249 1.30362 34.7301C2.63191 36.6782 4.00459 38.5967 5.36248 40.5238C5.45128 40.6511 5.55611 40.7672 5.75097 41.0106V34.2212H6.93003V43.2712C6.3664 43.4392 5.97914 43.3281 5.61038 42.7833C4.20809 40.7129 2.7466 38.682 1.17782 36.6523V43.3058H0V34.2434Z" fill="white"/>
<path d="M150.577 44.5783C150.931 44.3831 151.212 44.2275 151.484 44.078C152.447 45.107 153.751 45.4146 154.91 44.9118C155.793 44.5289 156.101 43.7926 155.976 42.2101C155.203 43.0897 154.303 43.5171 153.193 43.4245C152.093 43.3331 151.248 42.8192 150.634 41.9198C149.692 40.5387 149.933 38.6573 151.191 37.4936C152.504 36.2793 154.25 36.3695 155.984 37.7827C156.006 37.4739 156.026 37.2021 156.048 36.8982H157.135C157.135 38.2064 157.135 39.4751 157.135 40.7438C157.135 41.4628 157.135 42.1817 157.125 42.9007C157.102 44.7834 155.937 46.036 154.049 46.1311C152.681 46.2003 151.433 45.9087 150.58 44.5771L150.577 44.5783ZM153.601 37.7222C152.22 37.7222 151.201 38.7104 151.196 40.0545C151.191 41.3849 152.221 42.4177 153.575 42.4362C154.944 42.456 156.019 41.4035 156.01 40.052C156.001 38.7067 154.984 37.7222 153.603 37.7222H153.601Z" fill="white"/>
<path d="M30.4766 36.8845H31.4916C31.536 37.0822 31.5779 37.2737 31.6433 37.5726C32.2131 36.955 32.8507 36.614 33.6499 36.6276C34.4713 36.6412 35.0966 36.9994 35.5948 37.706C36.2189 36.8882 37.0008 36.5584 37.9826 36.6634C39.1554 36.7894 40.0484 37.4775 40.1347 38.6597C40.2445 40.1854 40.1618 41.7246 40.1618 43.2972H39.1209C39.1209 42.8166 39.1209 42.3336 39.1209 41.8506C39.1209 41.0291 39.1258 40.2076 39.1197 39.3861C39.1123 38.3101 38.6041 37.7233 37.6693 37.6962C36.6703 37.6665 36.0105 38.2619 35.9574 39.3095C35.9167 40.1285 35.9463 40.9525 35.9451 41.774C35.9451 42.2644 35.9451 42.7536 35.9451 43.2898H34.8228C34.8228 42.5016 34.8228 41.7271 34.8228 40.9537C34.8228 40.3781 34.8339 39.8036 34.8191 39.2292C34.7969 38.3867 34.364 37.8357 33.6536 37.7147C32.7977 37.5689 32.0355 37.9506 31.758 38.724C31.6359 39.0637 31.5828 39.4417 31.5754 39.8049C31.5532 40.9513 31.5668 42.0989 31.5668 43.2922H30.4766V36.8858V36.8845Z" fill="white"/>
<path d="M130.53 37.8285V34.2324H131.63V43.1837C130.735 43.4801 130.606 43.3949 130.468 42.293C129.556 43.3937 128.416 43.6741 127.135 43.3999C126.317 43.2244 125.687 42.7377 125.209 42.0595C124.202 40.6315 124.432 38.6599 125.738 37.4715C127.057 36.272 128.824 36.372 130.531 37.8285H130.53ZM130.514 40.104C130.516 38.7426 129.517 37.7605 128.127 37.7568C126.766 37.7531 125.7 38.7785 125.7 40.0891C125.7 41.4035 126.772 42.4511 128.113 42.4499C129.487 42.4486 130.51 41.448 130.513 40.104H130.514Z" fill="white"/>
<path d="M20.965 38.6327C20.5198 40.0113 20.061 41.385 19.6392 42.7711C19.5134 43.1849 19.3432 43.364 18.8783 43.3554C18.4306 43.348 18.2443 43.2109 18.1136 42.7785C17.5167 40.7995 16.8778 38.8316 16.2451 36.8304C16.4375 36.8192 16.5806 36.8242 16.7187 36.8007C17.2404 36.7105 17.4562 36.9354 17.5919 37.4455C17.9644 38.8501 18.4059 40.2362 18.9387 41.6494C19.0596 41.301 19.1866 40.9551 19.2988 40.6055C19.6626 39.474 20.0474 38.3473 20.3656 37.2034C20.4853 36.7723 20.743 36.8093 21.0538 36.7995C21.3844 36.7896 21.6187 36.818 21.7359 37.2207C22.1318 38.5783 22.5733 39.9212 23 41.2701C23.0419 41.4036 23.1036 41.5308 23.2109 41.7989C23.4489 41.0157 23.6524 40.3597 23.8485 39.7025C24.0471 39.0342 24.2321 38.3634 24.4319 37.6963C24.7242 36.7241 24.7291 36.7253 25.8342 36.8563C25.1768 38.9329 24.538 41.007 23.8387 43.0601C23.7819 43.2257 23.3096 43.3122 23.0296 43.3146C22.8606 43.3146 22.5943 43.1145 22.5363 42.9477C22.0701 41.6123 21.6446 40.2633 21.2055 38.9193C21.1747 38.8242 21.1377 38.7303 21.1032 38.6364C21.0563 38.6364 21.0107 38.6364 20.9638 38.6352L20.965 38.6327Z" fill="white"/>
<path d="M110.802 36.8452C111.512 36.7752 111.964 37.0696 112.158 37.7284C112.507 38.9082 112.855 40.0879 113.208 41.2664C113.246 41.3961 113.307 41.5184 113.413 41.7828C113.913 40.2114 114.382 38.7772 114.822 37.3356C114.928 36.986 115.032 36.771 115.467 36.7883C115.877 36.8044 116.122 36.8489 116.257 37.322C116.636 38.6623 117.088 39.9829 117.512 41.3109C117.547 41.4196 117.596 41.5246 117.705 41.7939C117.909 41.1281 118.071 40.6154 118.224 40.1003C118.463 39.2948 118.694 38.4857 118.932 37.6802C119.117 37.0519 119.58 36.7768 120.322 36.855C120.179 37.3096 120.04 37.7494 119.902 38.1892C119.43 39.6963 118.946 41.1997 118.495 42.713C118.361 43.1627 118.181 43.3702 117.653 43.364C117.143 43.3578 117.05 43.0997 116.934 42.7241C116.566 41.5283 116.178 40.3387 115.793 39.1491C115.731 38.96 115.642 38.7809 115.514 38.4721C115.011 40.0187 114.539 41.4332 114.095 42.8563C113.989 43.1948 113.857 43.3393 113.471 43.3566C112.953 43.3801 112.732 43.2084 112.584 42.7068C112.019 40.7995 111.401 38.9094 110.804 37.0119C110.793 36.9749 110.803 36.9316 110.803 36.8476L110.802 36.8452Z" fill="white"/>
<path d="M77.4117 36.8909V43.2479H76.3461C76.3165 42.9613 76.2893 42.6858 76.2462 42.2646C75.3705 43.3517 74.2889 43.6358 73.0593 43.432C72.2527 43.2986 71.6138 42.8711 71.1082 42.2399C70.0068 40.8625 70.1104 38.8921 71.3474 37.6333C72.6695 36.2868 74.3826 36.3214 76.2511 37.7643C76.2832 37.469 76.3128 37.1973 76.3461 36.8921H77.4129L77.4117 36.8909ZM76.2795 40.0571C76.2745 38.7019 75.2694 37.726 73.8794 37.7272C72.5277 37.7272 71.4658 38.7599 71.4658 40.0719C71.4658 41.385 72.5277 42.4388 73.8622 42.4474C75.2472 42.4573 76.2844 41.4307 76.2782 40.0571H76.2795Z" fill="white"/>
<path d="M47.4299 37.7692C47.4657 37.4715 47.4978 37.1972 47.5335 36.897H48.5917V43.2454H47.5274C47.5002 42.9687 47.4731 42.6932 47.4299 42.2572C46.5074 43.3739 45.3925 43.6593 44.132 43.4122C43.3341 43.2553 42.7088 42.8069 42.2216 42.1608C41.1659 40.7599 41.2979 38.8575 42.5336 37.6148C43.8545 36.2868 45.5281 36.33 47.4287 37.768L47.4299 37.7692ZM47.4534 40.0583C47.4484 38.7043 46.4408 37.7259 45.0521 37.7272C43.6979 37.7272 42.6459 38.75 42.6409 40.0706C42.636 41.385 43.6917 42.435 45.0323 42.4486C46.4149 42.4622 47.4571 41.4332 47.4521 40.0595L47.4534 40.0583Z" fill="white"/>
<path d="M61.8757 40.5488H56.301C56.4416 41.3863 56.8671 41.9076 57.5578 42.2165C58.6789 42.718 59.7506 42.4907 60.7348 41.5407C61.0037 41.6902 61.2849 41.8471 61.5661 42.004C60.7731 43.3876 58.7122 43.8904 57.0632 43.1331C55.4747 42.403 54.731 40.5858 55.3242 38.8786C55.8879 37.2591 57.6811 36.3598 59.4904 36.7909C61.0678 37.1664 62.1124 38.7575 61.8744 40.55L61.8757 40.5488ZM60.7188 39.5358C60.609 38.4166 59.779 37.726 58.6 37.7322C57.3888 37.7396 56.4984 38.4499 56.3898 39.5358H60.7188Z" fill="white"/>
<path d="M15.2958 40.5696H9.70888C9.89018 41.4961 10.3921 42.0298 11.1876 42.2979C12.3087 42.6759 13.2325 42.4399 14.1365 41.5369C14.4054 41.6864 14.6866 41.842 14.9653 41.9977C14.2944 43.4282 12.0349 43.8198 10.5315 43.1626C8.94423 42.4696 8.16847 40.6956 8.70743 38.9995C9.24886 37.2985 10.9952 36.3596 12.8428 36.7747C14.4572 37.1379 15.5203 38.7203 15.2958 40.5696ZM9.78658 39.5171H14.1636C13.9133 38.3003 13.1054 37.6827 11.9005 37.7345C10.7449 37.784 9.92965 38.4597 9.78658 39.5171Z" fill="white"/>
<path d="M108.626 41.5283C108.909 41.6901 109.189 41.8495 109.469 42.01C108.636 43.4146 106.555 43.8939 104.896 43.1008C103.34 42.3572 102.624 40.4881 103.255 38.8118C103.865 37.1873 105.719 36.3201 107.52 36.8155C109.025 37.2293 110.037 38.8587 109.757 40.5351H104.207C104.349 41.4097 104.784 41.9421 105.487 42.2188C106.662 42.6808 107.739 42.5462 108.626 41.5283ZM104.262 39.5369H108.641C108.482 38.4103 107.714 37.7556 106.574 37.7333C105.348 37.7098 104.462 38.3806 104.262 39.5369Z" fill="white"/>
<path d="M134.255 40.5574C134.458 41.5074 134.966 42.0373 135.763 42.3042C136.871 42.676 137.784 42.4388 138.695 41.5407C138.967 41.6902 139.248 41.8459 139.636 42.0596C139.281 42.3832 139.016 42.6945 138.688 42.9144C137.053 44.0139 134.577 43.4864 133.582 41.8483C132.597 40.2263 133.139 38.0818 134.776 37.133C137.034 35.8248 139.875 37.39 139.918 39.9583C139.925 40.3906 139.814 40.5759 139.334 40.5685C137.675 40.5413 136.017 40.5586 134.254 40.5586L134.255 40.5574ZM134.321 39.5407H138.703C138.546 38.4141 137.783 37.7569 136.643 37.7334C135.415 37.7087 134.548 38.3622 134.321 39.5407Z" fill="white"/>
<path d="M164.841 43.3208H163.753C163.753 42.7624 163.753 42.2177 163.753 41.6729C163.753 40.9329 163.757 40.1942 163.753 39.4542C163.745 38.4659 163.289 37.8668 162.442 37.7186C161.389 37.5333 160.496 37.9743 160.217 38.9033C160.084 39.3443 160.085 39.8335 160.076 40.3004C160.057 41.2825 160.07 42.2658 160.07 43.2924H158.985V36.9045H160.033C160.054 37.1157 160.074 37.3158 160.099 37.5716C160.201 37.5147 160.293 37.4888 160.35 37.4283C161.194 36.5191 162.23 36.4832 163.301 36.8402C164.288 37.1688 164.779 37.9706 164.825 38.9576C164.89 40.3881 164.842 41.8236 164.842 43.3196L164.841 43.3208Z" fill="white"/>
<path d="M145.873 38.02C145.58 38.1769 145.331 38.3091 145.043 38.4623C144.551 37.7865 143.874 37.5271 143.108 37.7668C142.799 37.8631 142.464 38.1892 142.34 38.4931C142.172 38.9033 142.542 39.1837 142.899 39.3146C143.55 39.5543 144.232 39.7149 144.883 39.9558C145.512 40.1892 146.023 40.6068 146.037 41.327C146.046 41.7322 145.956 42.2164 145.729 42.5364C145.119 43.3949 144.176 43.5345 143.196 43.4431C142.226 43.3529 141.44 42.9564 140.949 41.9904C141.261 41.8125 141.538 41.6531 141.811 41.4975C142.58 42.3894 143.44 42.7019 144.303 42.3202C144.572 42.2016 144.871 41.857 144.902 41.5864C144.929 41.3591 144.641 40.9737 144.4 40.86C143.849 40.6019 143.235 40.4833 142.657 40.2807C141.601 39.9113 141.113 39.3838 141.204 38.5598C141.25 38.1423 141.432 37.6605 141.716 37.3603C142.818 36.1929 145.063 36.5462 145.875 38.0188L145.873 38.02Z" fill="white"/>
<path d="M53.9811 42.372V43.4085C53.3533 43.3517 52.7441 43.3677 52.1718 43.2269C51.47 43.0552 51.1309 42.4461 51.1185 41.5357C51.105 40.5301 51.1148 39.5246 51.1148 38.5203C51.1148 38.3201 51.1148 38.12 51.1148 37.8705C50.6548 37.8495 50.254 37.8309 49.8174 37.8112V36.8143H51.0408C51.1087 36.2596 51.0877 35.7333 51.269 35.2911C51.3455 35.1033 51.8487 35.0885 52.2211 34.9761V36.7809H53.9737V37.8334H52.363C52.3112 37.9891 52.247 38.0953 52.2458 38.2015C52.2372 39.3096 52.2273 40.4177 52.2446 41.5258C52.2544 42.1435 52.49 42.351 53.1264 42.3708C53.3891 42.3794 53.653 42.372 53.9823 42.372H53.9811Z" fill="white"/>
<path d="M177 4.54718C177.009 6.48789 175.41 8.06047 173.452 8.04071C171.512 8.02094 169.937 6.46936 169.931 4.57189C169.923 2.63982 171.522 1.07342 173.49 1.0833C175.449 1.09442 176.993 2.61635 177 4.54718ZM176.515 4.55459C176.513 2.89677 175.18 1.63673 173.437 1.64414C171.755 1.65155 170.41 2.94618 170.41 4.56077C170.41 6.18647 171.793 7.49346 173.505 7.48234C175.19 7.47245 176.518 6.18029 176.515 4.55583V4.55459Z" fill="white"/>
<path d="M79.2544 33.7678H80.3015V43.2923H79.2544V33.7678Z" fill="white"/>
<path d="M66.5103 37.7841C66.3832 37.8088 66.2661 37.8323 66.1477 37.8545C65.0204 38.0657 64.5147 38.6328 64.4839 39.7866C64.458 40.7291 64.479 41.6717 64.4753 42.6142C64.4753 42.8329 64.4568 43.0528 64.4457 43.3023H63.4072V36.8255H64.4334C64.4654 37.1207 64.495 37.3937 64.5357 37.7668C65.0747 37.0948 65.658 36.6908 66.5115 36.739V37.7828L66.5103 37.7841Z" fill="white"/>
<path d="M67.7881 36.8291H68.8056V43.3047H67.7881V36.8291Z" fill="white"/>
<path d="M148.58 43.3046H147.549V36.8413H148.58V43.3046Z" fill="white"/>
<path d="M85.7676 38.8105H90.5023V39.8112H85.7676V38.8105Z" fill="white"/>
<path d="M148.178 34.4524C148.601 34.5364 148.875 34.8082 148.827 35.2492C148.78 35.6766 148.477 35.9607 148.022 35.9064C147.591 35.8545 147.321 35.5889 147.364 35.1121C147.409 34.634 147.713 34.4598 148.177 34.4524H148.178Z" fill="white"/>
<path d="M68.2744 34.4524C68.7677 34.4685 69.0378 34.7476 69.0427 35.1788C69.0477 35.6173 68.7517 35.9126 68.3028 35.9101C67.8612 35.9076 67.5603 35.6395 67.5615 35.1825C67.5615 34.7316 67.839 34.482 68.2756 34.4524H68.2744Z" fill="white"/>
<path d="M171.926 2.82282C172.637 2.82282 173.268 2.79687 173.897 2.83146C174.401 2.85988 174.731 3.17118 174.829 3.66655C174.927 4.15945 174.718 4.54734 174.305 4.82159C174.189 4.89941 174.054 4.94759 173.924 5.0106C174.295 5.51832 174.651 6.00381 175.005 6.48806C174.948 6.55476 174.89 6.62147 174.833 6.68818C174.617 6.54365 174.368 6.42876 174.193 6.2447C173.999 6.03963 173.875 5.77033 173.717 5.53067C173.431 5.0983 173.034 4.99206 172.48 5.13289C172.48 5.48743 172.51 5.83333 172.466 6.17181C172.448 6.32252 172.284 6.4547 172.186 6.59553C172.1 6.46582 171.94 6.33858 171.937 6.20764C171.918 5.10325 171.926 3.99762 171.926 2.82158V2.82282ZM172.54 3.37748C172.397 4.52634 172.482 4.61529 173.523 4.48064C173.604 4.47075 173.71 4.47569 173.759 4.42752C173.933 4.25951 174.223 4.06433 174.213 3.89509C174.202 3.71349 173.924 3.44542 173.722 3.40095C173.356 3.32066 172.96 3.37872 172.542 3.37872L172.54 3.37748Z" fill="white"/>
</g>
<defs>
<clipPath id="clip0_2211_7153">
<rect width="177" height="46.141" fill="white"/>
</clipPath>
</defs>
</svg>
