<svg width="70" height="60" viewBox="0 0 70 60" fill="none" xmlns="http://www.w3.org/2000/svg">
<g clip-path="url(#clip0_2936_22219)">
<path d="M49.0368 60.0001C44.5341 59.9964 40.0296 59.9964 35.5251 59.9964H21.0933C19.0004 59.9964 17.6296 58.9188 17.1262 56.8812C17.0998 56.7712 17.0696 56.6612 17.0376 56.54L16.7717 55.5314H3.33172C1.57064 55.5314 0.654276 54.8827 0.0641077 53.2216C0.0452525 53.1712 0.0245118 53.1228 0 53.0743V36.1541L0.0886195 35.839C0.179125 35.5202 0.271515 35.1903 0.369562 34.8771C1.4462 31.4375 4.70438 29.0363 8.29441 29.0363H8.57347C8.82613 29.0363 9.07879 29.0363 9.32956 29.0344H9.42384C9.64067 29.0344 9.85939 29.0325 10.0762 29.0325C11.4187 29.0325 12.5331 29.0717 13.604 29.2637C16.108 29.713 18.0614 31.2417 19.4058 33.8051L20.0638 35.0598L21.148 34.1369C21.3931 33.9281 21.6326 33.7175 21.8702 33.5087C22.3717 33.0687 22.845 32.653 23.3428 32.2764C26.188 30.1231 29.4009 29.0325 32.8929 29.0325C32.8929 29.0325 34.6069 29.0288 34.8972 29.0288C36.4113 29.0288 37.6784 29.053 38.9455 29.1742C42.3922 29.5005 45.5297 31.0087 48.2694 33.6541C48.3806 33.7622 48.4937 33.8685 48.5616 33.93L49.4535 34.7708L50.2322 33.9114C50.5452 33.5646 50.8469 33.2123 51.1391 32.8711C51.7859 32.1142 52.3855 31.4132 53.0586 30.8278C54.4331 29.6366 56.098 29.0325 58.0043 29.0325C58.0684 29.0325 58.1344 29.0325 58.2004 29.0344C58.6435 29.0437 59.0904 29.0456 59.5354 29.0474C60.9288 29.053 62.3693 29.0586 63.6703 29.3271C67.3282 30.0821 69.9887 33.4061 69.9943 37.2298C70.0038 42.4647 70 47.9158 69.9943 52.2969C69.9943 54.2264 68.6782 55.524 66.723 55.5258C65.0769 55.5277 63.4308 55.5296 61.7829 55.5296H51.009L52.8568 57.0713C52.8455 57.0956 52.8116 57.1608 52.8116 57.1608C52.4986 57.7779 52.2044 58.3614 51.8292 58.8293C51.207 59.603 50.268 59.9964 49.0387 59.9964H49.033L49.0368 60.0001ZM35.3931 30.8297C33.979 30.8297 32.4838 30.949 30.8226 31.1951C27.4909 31.6891 24.4797 33.3465 22.3453 35.8595C20.2335 38.3446 19.0645 41.5642 19.0513 44.9218C19.0419 47.5486 19.0438 50.1921 19.0475 52.748C19.0475 52.748 19.0494 54.754 19.0494 55.7365C19.0494 57.3789 19.7395 58.0501 21.4271 58.0501H42.0886C44.3022 58.0501 46.5158 58.0501 48.7294 58.0501C50.2246 58.0501 50.9525 57.3342 50.9543 55.8651C50.9543 54.8342 50.9581 53.8051 50.96 52.7741C50.9675 50.1287 50.9751 47.392 50.9449 44.6925C50.8789 38.5795 46.8967 33.3129 41.0365 31.5903C39.2886 31.0777 37.4427 30.8278 35.395 30.8278L35.3931 30.8297ZM8.85818 30.977C4.67609 30.977 1.97226 33.6504 1.97037 37.7872C1.97037 40.8651 1.97037 43.9412 1.97037 47.0191V53.5571H17.0621V52.4386C17.0621 51.7786 17.0564 51.1243 17.0508 50.4736C17.0395 48.9617 17.0263 47.5374 17.0791 46.0926C17.1356 44.5042 17.2808 42.8655 17.5203 41.0795C17.5731 40.6824 17.6919 40.2723 17.8182 39.8379C18.0407 39.068 18.2933 38.1955 18.2273 37.2018C18.0162 33.9915 15.8214 31.5437 12.765 31.1112C11.8901 30.9882 11.0284 30.9714 10.2271 30.9714C10.0178 30.9714 9.81037 30.9714 9.60296 30.9733C9.39556 30.9733 9.19569 30.9751 8.99394 30.9751H8.85818V30.977ZM59.8785 30.8595C58.7453 30.8595 57.6215 30.9956 56.5393 31.2622C54.8479 31.6798 53.4395 32.763 52.5759 34.3122C51.6614 35.9527 51.4785 37.9214 52.0743 39.7149C52.393 40.6768 52.6966 41.7003 52.7494 42.6697C52.8531 44.5974 52.8757 46.5736 52.8983 48.4844C52.9059 49.2339 52.9153 49.9703 52.9285 50.7067C52.936 51.0888 52.9341 51.4673 52.9323 51.8662C52.9323 51.8662 52.9323 52.2764 52.9323 52.4386V53.5571H67.6224L67.8901 52.8133C67.8958 52.7984 67.9014 52.7853 67.9052 52.7741C67.9448 52.6791 68.0221 52.4945 68.0221 52.2447C68.0221 50.8334 68.0259 49.4222 68.0296 48.0109C68.0391 44.4334 68.0504 40.7402 68.0051 37.1049C67.9693 34.3122 66.0329 31.9091 63.2913 31.2603C62.1619 30.9938 61.0155 30.8577 59.8804 30.8577L59.8785 30.8595Z" fill="white"/>
<path d="M34.9574 22.0395C28.8295 22.0339 23.8498 17.0712 23.8555 10.9769C23.8611 4.92356 28.8747 0 35.0328 0C38.0157 0.00186428 40.8101 1.15026 42.903 3.23453C44.9978 5.31879 46.148 8.09843 46.1461 11.0589C46.1405 17.1122 41.1269 22.0377 34.9706 22.0377H34.9593L34.9574 22.0395ZM34.9612 1.94817C32.5289 1.96309 30.2342 2.92319 28.4976 4.65511C26.7592 6.38702 25.8108 8.66145 25.824 11.0589C25.8522 16.0421 29.9665 20.0951 34.9951 20.0951H35.0347C40.0125 20.0727 44.1984 15.9004 44.1757 10.9825C44.1644 8.59247 43.199 6.3311 41.4549 4.61223C39.7127 2.89336 37.4237 1.94817 35.0121 1.94817H34.9593H34.9612Z" fill="white"/>
<path d="M10.0971 22.0377C6.46745 22.0246 3.52038 19.0642 3.52981 15.4381C3.53924 11.8494 6.52025 8.92993 10.1744 8.92993C13.821 8.93552 16.7888 11.8811 16.785 15.4959C16.7831 19.1033 13.7946 22.0377 10.1235 22.0377H10.0952H10.0971ZM10.1386 10.8762C7.67984 10.8762 5.55486 12.9475 5.50018 15.3971C5.47378 16.5884 5.95647 17.7797 6.82381 18.6671C7.6987 19.5601 8.89977 20.0783 10.1216 20.0895H10.1612C12.6293 20.0895 14.76 18.0183 14.8165 15.5686C14.8731 13.1152 12.8009 10.9676 10.2951 10.88C10.2442 10.8781 10.1914 10.8781 10.1386 10.8781V10.8762Z" fill="white"/>
<path d="M59.8255 22.0377C58.0531 22.0377 56.3919 21.3554 55.1494 20.1212C53.8936 18.874 53.2054 17.2036 53.213 15.4195C53.2262 11.8419 56.2128 8.92993 59.8688 8.92993H59.8896C63.523 8.93925 66.4738 11.8941 66.4682 15.5146C66.4606 19.1108 63.4834 22.0377 59.8311 22.0377H59.8236H59.8255ZM59.8368 10.8781C58.6263 10.8781 57.4309 11.3796 56.5522 12.2521C55.6622 13.1376 55.1758 14.2935 55.1833 15.5071C55.1984 17.9754 57.3196 20.0746 59.816 20.0895H59.8424C61.053 20.0895 62.2503 19.588 63.1289 18.7137C64.0076 17.8393 64.5053 16.6536 64.4978 15.4586C64.4808 12.9922 62.3596 10.893 59.8651 10.8762H59.8349L59.8368 10.8781Z" fill="white"/>
</g>
<defs>
<clipPath id="clip0_2936_22219">
<rect width="70" height="60" fill="white"/>
</clipPath>
</defs>
</svg>
