<svg width="166" height="155" viewBox="0 0 166 155" fill="none" xmlns="http://www.w3.org/2000/svg">
<path d="M40.8076 28.5469C40.9092 28.8228 41.1056 29.0868 41.0938 29.3931C40.867 29.8519 40.4523 30.177 40.0342 30.4544C40.283 29.8147 40.569 29.1902 40.8076 28.5469Z" fill="white"/>
<path d="M41.5139 39.9435C42.1621 39.847 41.4564 40.7338 41.3379 40.1482C41.3818 40.0958 41.4699 39.9942 41.5139 39.9435Z" fill="white"/>
<path d="M133.11 49.0429C133.326 48.8516 133.732 49.2155 133.556 49.4508C133.321 49.6336 132.932 49.2934 133.11 49.0429Z" fill="white"/>
<path d="M104.349 61.7679C104.609 61.2517 104.882 60.7218 105.329 60.3394C105.207 60.9301 104.851 61.4396 104.349 61.7679Z" fill="white"/>
<path d="M102.53 65.0957C102.706 64.8265 102.886 64.5591 103.063 64.29C103.031 64.5219 103.001 64.7555 102.972 64.989C102.86 65.0162 102.64 65.0702 102.53 65.0957Z" fill="white"/>
<path d="M62.1544 89.8939C62.3761 89.7246 62.657 90.102 62.4049 90.251C62.1814 90.4252 61.9158 90.0428 62.1544 89.8939Z" fill="white"/>
<path d="M63.3965 95.4678C64.3138 95.5592 65.1194 96.0821 65.9743 96.4003C65.1094 96.4597 64.2562 96.2836 63.4083 96.1499C63.4049 95.9789 63.3998 95.6387 63.3965 95.4678Z" fill="white"/>
<path d="M80.6133 99.7698C81.5813 99.7835 82.5496 99.7987 83.516 99.7327C83.7513 99.6666 83.9256 99.8783 84.083 100.017C82.9422 100.193 81.7929 100.298 80.6369 100.279C80.6319 100.152 80.62 99.8969 80.6133 99.7698Z" fill="white"/>
<path d="M4.70363 122.295C7.80109 119.589 10.973 116.97 14.0553 114.249C17.9652 117.564 21.8649 120.895 25.7224 124.274C23.8893 124.353 22.0528 124.277 20.2181 124.316C20.2181 128.058 20.2248 131.801 20.2162 135.543L20.1047 135.635C16.0475 135.675 11.9869 135.648 7.92973 135.646C7.89418 131.867 7.91619 128.086 7.91788 124.304C6.09834 124.297 4.27879 124.333 2.46094 124.284C3.11767 123.524 3.95721 122.959 4.70363 122.295ZM13.82 116.198C12.8518 116.965 11.9734 117.839 11.0137 118.619C9.22965 120.068 7.52013 121.606 5.75643 123.081C7.09189 123.089 8.42736 123.086 9.76283 123.081C9.75945 124.455 9.77805 125.828 9.75268 127.202C12.6284 127.204 15.5041 127.195 18.3799 127.205C18.3493 125.833 18.3764 124.46 18.363 123.087C19.7002 123.075 21.0372 123.096 22.3728 123.077C19.7661 120.794 17.1053 118.573 14.475 116.317C14.3125 116.143 14.0265 116.031 13.82 116.198ZM9.75268 127.813C9.76453 128.272 9.76622 128.732 9.74252 129.192C12.6199 129.23 15.4974 129.192 18.3732 129.211C18.3646 128.741 18.3646 128.272 18.3646 127.801C15.494 127.823 12.6233 127.8 9.75268 127.813ZM9.83561 131.564C12.6792 131.552 15.5244 131.555 18.3681 131.562C18.3613 131.073 18.363 130.584 18.3713 130.098C15.5803 130.046 12.7858 130.073 9.99471 130.083C9.52248 130.394 9.8373 131.088 9.83561 131.564ZM9.86607 132.414C9.70528 133.082 9.76622 133.776 9.78483 134.458C12.6504 134.458 15.516 134.451 18.3799 134.458C18.3579 133.774 18.3613 133.089 18.3732 132.407C15.538 132.424 12.7012 132.412 9.86607 132.414Z" fill="white"/>
<path d="M80.1689 0.525879C80.5396 0.530958 80.9085 0.541111 81.281 0.556346C81.2961 0.723912 81.3148 0.89148 81.335 1.05905C82.9921 1.25878 84.6611 1.16568 86.3266 1.20123C89.5949 1.21307 92.899 1.59899 95.9947 2.68903C96.3891 2.84643 96.8224 2.74318 97.2319 2.82442C97.7363 2.96322 98.2611 2.58578 98.7537 2.76688C99.2614 3.15448 99.6997 3.62842 100.216 4.00417C100.551 4.12435 100.553 3.70797 100.668 3.50655C102.207 3.96355 103.637 4.70999 105.047 5.46489C105.372 5.67139 105.768 5.57491 106.133 5.60031C106.611 5.5766 107.047 5.80511 107.498 5.93204C107.34 5.95236 107.025 5.99129 106.868 6.01161C107.127 6.23334 107.367 6.47876 107.626 6.70218C109.012 7.26075 110.272 8.12227 111.401 9.09383C111.778 9.35787 112.252 9.45096 112.625 9.72518C112.946 10.0789 113.225 10.475 113.594 10.7847C114.552 11.5735 115.356 12.5281 116.358 13.2678C117.164 14.0616 118.112 14.6811 119.014 15.3514C120.805 17.193 122.67 19.0175 123.982 21.2467C124.325 21.9187 125.045 22.2894 125.361 22.9833C125.412 22.7159 125.463 22.4485 125.526 22.1827C125.891 22.8191 126.299 23.4285 126.697 24.0445C126.941 24.3662 126.839 24.7894 126.927 25.1584C127.23 25.8861 127.753 26.5056 128.383 26.9729C128.711 27.1928 128.901 27.5415 129.046 27.8987C128.728 27.6582 128.432 27.3943 128.102 27.1725C128.115 28.0798 129.205 28.3488 129.427 29.1461C129.391 29.6251 129.405 30.1007 129.633 30.5374C129.737 30.4663 129.94 30.3224 130.043 30.2514C130.349 30.9741 130.524 31.8136 131.223 32.2775C131.404 32.181 131.583 32.0845 131.766 31.9913C131.812 32.5245 131.771 33.0628 131.676 33.5892C131.504 33.2253 131.401 32.8055 131.07 32.5449C131.082 33.2049 131.448 33.7636 131.675 34.361C131.895 35.3411 132.203 36.2973 132.406 37.2824C132.827 39.0902 134.156 40.6897 133.985 42.6193C133.892 44.2729 133.943 45.9299 133.992 47.5836C134.2 47.6683 134.412 47.7495 134.627 47.829C134.864 49.0325 135.089 50.2477 135.006 51.4817C135.182 51.6018 135.361 51.7187 135.544 51.8354C135.446 53.555 135.656 55.2951 135.376 57.0029C135.287 57.7613 134.742 58.374 134.699 59.1407C134.628 59.987 134.324 60.7843 134.138 61.6069C134.087 62.0909 133.545 62.3059 133.444 62.7679C133.222 63.5923 133.032 64.452 133.159 65.3103C133.225 65.725 133.076 66.1244 132.839 66.4578C132.819 66.1582 132.8 65.8602 132.785 65.5624C132.433 66.2343 132.128 66.93 131.834 67.6291C132.047 67.5005 132.26 67.3718 132.486 67.2568C132.282 67.7594 131.927 68.169 131.602 68.5922C131.167 69.6856 131.011 70.8789 130.509 71.9503C129.476 73.7648 129.346 76.0227 127.96 77.6476C127.418 78.2146 126.947 78.8442 126.56 79.5263C126.568 79.2827 126.573 79.0407 126.58 78.7986C126.174 78.9864 125.668 79.11 125.519 79.5908C124.999 80.7721 123.823 81.5525 123.505 82.8355C123.78 82.8084 124.056 82.7779 124.337 82.7525C124.053 83.108 123.816 83.4939 123.581 83.8814C122.885 84.4688 122.125 84.9749 121.399 85.5216C121.561 85.9311 121.929 85.9413 122.201 85.6231C121.985 85.8754 121.785 86.1394 121.587 86.4051C121.489 86.2122 121.392 86.0192 121.301 85.8263C120.773 86.4457 120.118 86.9738 119.767 87.7254C119.466 88.0807 118.965 88.2162 118.523 88.3161C118.94 87.8794 119.417 87.485 119.706 86.945C119.119 87.2599 118.613 87.6999 118.095 88.113C117.809 88.2992 117.768 88.6563 117.648 88.9474C117.406 89.2317 117.085 89.4314 116.81 89.6821C115.825 90.5571 115.065 91.7014 113.919 92.3834C113.649 92.5831 113.313 92.4157 113.021 92.3902C112.934 92.7795 112.818 93.1603 112.707 93.5428C113.737 92.9607 114.725 92.309 115.67 91.5963C116.113 91.2916 116.27 90.7484 116.563 90.3217C116.55 90.7974 116.587 91.3222 116.265 91.7183C116 92.1905 115.397 92.1888 114.947 92.3716C113.77 92.7067 113.197 94.0184 111.978 94.2689C111.966 94.0641 111.954 93.8594 111.941 93.6579C111.242 93.6562 110.561 93.8255 109.884 93.9762C109.297 94.0692 108.884 94.5296 108.43 94.8682C108.224 95.1356 108.183 95.4893 108.056 95.7974C107.482 95.9616 106.927 96.1866 106.365 96.383C106.203 96.2036 106.044 96.0243 105.888 95.8431C105.813 95.8431 105.661 95.8431 105.585 95.8431C105.565 96.0259 105.546 96.2103 105.529 96.3949C105.23 96.5269 104.962 96.7147 104.674 96.8671C104.249 96.9823 103.816 97.0635 103.418 97.253C102.383 97.7252 101.24 97.8708 100.186 98.2822C99.8099 98.4378 99.5288 98.7628 99.1413 98.8931C98.0139 99.2825 96.8309 99.4822 95.7036 99.8715C94.2954 100.394 92.7821 100.75 91.2724 100.584C90.6511 100.726 90.0283 100.858 89.3902 100.895C89.072 100.872 88.9145 101.183 88.6895 101.347C88.2883 101.732 87.684 101.659 87.1763 101.645C85.4735 101.439 83.7166 101.833 82.046 101.358C80.9948 101.183 79.9336 101.154 78.874 101.083C75.3382 100.447 71.7008 99.9645 68.4222 98.4107C67.9229 98.2263 67.3932 98.1433 66.9057 97.9351C65.9611 97.5171 64.9423 97.3056 63.9825 96.9332C63.6204 96.8028 63.4562 96.4202 63.1515 96.2121C62.5963 95.9869 61.948 95.9768 61.4724 95.5807C60.1927 94.6312 58.6423 94.1759 57.2968 93.3448C56.2084 92.7592 55.3146 91.8892 54.3143 91.18C54.0165 91.1225 53.7135 91.1225 53.4156 91.0987C52.549 89.8445 51.2964 88.9288 50.2656 87.8201C49.4617 87.0974 48.7305 86.2495 47.7386 85.7822C47.4696 85.4183 47.3019 84.9867 46.9888 84.6551C46.6215 84.2184 46.0273 84.0727 45.6551 83.6393C44.1012 81.979 42.9248 80.0207 41.7079 78.113C41.2577 77.3379 40.4182 76.6997 40.5247 75.7164C39.9611 74.9293 39.4753 74.0881 38.8694 73.3314C38.4632 71.1024 37.6185 68.9815 36.9195 66.8301C36.7062 66.1429 36.212 65.5794 36.041 64.8769C35.5028 62.4446 34.736 60.0157 34.819 57.4955C34.8782 56.749 34.499 56.072 34.3993 55.3459C34.2418 55.6369 34.076 55.9231 33.9083 56.2074C33.7527 55.4101 33.7747 54.5926 33.7358 53.787C33.6713 53.4247 33.9997 53.193 34.1317 52.8933C34.2402 52.0944 34.1776 51.2312 33.707 50.5508C33.4107 50.1614 33.509 49.6554 33.5275 49.2034C33.7052 49.6672 33.8694 50.1361 34.0725 50.5897C34.2722 50.2783 34.4517 49.8771 34.23 49.525C33.9304 48.9394 33.7611 48.2792 33.8592 47.6191C33.9846 47.9424 34.0878 48.2741 34.208 48.5992C34.67 48.0677 34.5888 47.3297 34.6549 46.678C34.3993 46.7729 34.147 46.8761 33.8949 46.976C34.3654 42.1318 35.9733 37.4958 37.7387 32.9918C37.8826 32.5414 38.2194 32.2097 38.5105 31.8542C39.0031 31.1569 39.2452 30.2853 39.885 29.6928C40.1795 29.4219 40.4317 29.1123 40.6636 28.789C40.523 28.7974 40.2403 28.8143 40.0982 28.8229C40.2048 28.3505 40.3352 27.8868 40.4639 27.4196C40.6195 26.966 40.3774 26.5023 40.4182 26.0419C40.5434 25.4494 40.8514 24.9163 41.1967 24.4271C42.2021 23.0189 43.5326 21.8831 44.5412 20.4765C44.912 19.9451 45.3605 19.4729 45.7448 18.9498C46.8314 17.5518 48.2701 16.4989 49.6461 15.4072C49.8866 15.1753 50.2268 15.1635 50.5383 15.1212C50.9258 14.3612 51.3778 13.6215 51.9887 13.019C52.5863 12.4198 53.3326 12.0068 54.0266 11.5329C54.1891 11.5583 54.3517 11.5837 54.514 11.6124C55.0235 10.607 55.8276 9.70486 56.8923 9.28171C57.7757 8.94318 58.4798 8.28308 59.3144 7.85485C59.5749 7.78713 59.8288 7.97503 60.0844 8.01902C61.4369 7.35215 62.5032 6.20625 63.9267 5.67308C64.4887 5.43442 65.1961 5.86096 65.6548 5.36503C66.5435 4.6406 67.6165 4.21236 68.5915 3.62842C69.1551 3.63689 69.5579 3.15448 70.0945 3.04954C70.9475 2.83458 71.8158 2.62131 72.5454 2.10507C73.2393 1.99843 73.9622 2.10676 74.6493 1.91042C75.3551 1.84103 75.802 1.11829 76.5095 1.08782C77.3744 1.0929 78.2156 0.420937 79.0771 0.810235C79.3784 1.05736 79.7322 1.1606 80.1232 1.11998C80.1351 0.971033 80.1571 0.673136 80.1689 0.525879ZM90.8373 5.97098C90.3533 5.85757 89.8862 6.03023 89.4409 6.20625C89.5172 6.01499 89.5917 5.82373 89.6661 5.62907C88.2459 5.64092 86.8393 5.94897 85.4142 5.79157C85.157 6.951 85.0132 8.21367 85.5751 9.3071C85.4701 9.7624 85.3973 10.2177 85.6512 10.6409C85.4956 10.8101 85.3432 10.9794 85.1925 11.1503C85.4786 11.4753 85.7713 11.8105 85.9492 12.2099C86.0659 12.6889 85.6767 13.0664 85.5784 13.5064C85.5564 13.7874 85.5429 14.0684 85.5039 14.3494C86.7277 14.7725 87.728 15.7525 88.1139 16.9949C88.4509 18.1205 88.2679 19.395 87.6011 20.3665C86.8936 21.46 85.5835 22.0913 84.2954 22.0964C83.2952 22.0625 82.2914 21.6766 81.5839 20.9591C80.2856 19.7436 80.0656 17.594 80.9797 16.0927C81.4552 15.2617 82.2796 14.7488 83.1173 14.3409C83.4999 13.8839 83.7894 13.3457 84.0772 12.8209C83.576 12.6974 83.1818 12.3876 83.048 11.8765C83.4188 11.8765 83.7894 11.89 84.1618 11.8714C83.8047 11.3331 83.131 11.6209 82.6011 11.5786C82.7432 11.4635 82.8905 11.3518 83.0378 11.24C82.9752 11.0031 82.9125 10.7678 82.8567 10.5309C83.1767 10.5546 83.4983 10.5766 83.8216 10.5783C83.5152 10.3294 83.153 10.2109 82.7958 10.431C82.7179 10.387 82.5639 10.2973 82.486 10.2533C82.486 10.1619 82.486 9.97906 82.4844 9.88766C82.6926 9.82504 82.9007 9.75902 83.1106 9.69132C83.6574 9.98244 84.204 10.3074 84.8235 10.4242C84.4376 9.86565 83.6692 9.86734 83.1073 9.5813C83.351 9.50683 83.5981 9.43574 83.8485 9.36972C83.5507 9.22078 83.2595 9.06675 82.9701 8.90596C83.1885 8.4845 83.2444 8.0241 83.0006 7.59926C83.3543 7.63312 83.7098 7.65682 84.0686 7.66359C83.8402 7.45709 83.5271 7.33353 83.3662 7.06779C83.3019 6.65141 83.3747 6.24181 83.5609 5.86773C83.2511 5.77464 82.9447 5.62737 82.6147 5.6443C82.1526 5.95913 81.7311 6.34167 81.2132 6.56846C81.1625 6.35858 81.1117 6.15039 81.0609 5.9422C80.4447 6.00314 79.8338 5.95405 79.2362 5.80342C78.4711 6.03192 77.6724 6.04714 76.8869 5.91344C76.4537 6.55661 75.6039 6.49569 74.9929 6.8816C74.5545 7.1778 74.0281 7.00685 73.6252 6.73943C74.1721 6.48553 74.8795 6.3772 75.1589 5.76956C74.734 5.87112 74.3344 6.05899 73.9045 6.13686C73.2681 6.18594 72.933 6.8359 72.3643 7.04579C71.7922 7.26244 71.2099 7.49262 70.5922 7.52987C70.0776 7.55018 69.6731 7.91239 69.2516 8.16121C68.5915 7.82946 67.8637 8.1155 67.3102 8.51497C66.9141 8.88903 66.7617 9.44082 66.4199 9.85551C66.056 9.98244 65.6768 9.84874 65.3146 9.79457C65.1995 10.0975 65.0979 10.4259 64.8389 10.6409C64.0147 11.3772 62.8908 11.6751 62.0817 12.435C61.7957 12.6889 61.7314 13.085 61.5434 13.4032C61.3878 13.3964 61.2338 13.3812 61.0798 13.3609C61.3843 12.826 61.8618 12.4232 62.2069 11.9171C61.9362 11.9289 61.6688 11.9408 61.4012 11.9543C61.6011 11.78 61.8024 11.609 61.997 11.4262C60.7159 11.653 59.9135 12.7854 59.2534 13.8026C59.0181 13.6148 58.788 13.4184 58.5577 13.2238C58.0127 13.5674 57.4338 13.9516 57.1968 14.5813C57.4881 14.6676 57.7808 14.7522 58.0753 14.8368C57.7571 15.436 57.0412 15.2346 56.4792 15.3141C55.8563 16.1537 55.0405 16.8273 54.1654 17.391C53.5713 17.7769 52.9688 18.1712 52.5186 18.7281C52.7369 19.0971 52.8282 19.5068 52.4644 19.8097C52.4423 19.6117 52.3983 19.2156 52.3746 19.0175C51.4877 19.7504 50.9613 20.788 50.4163 21.7766C50.2403 22.0338 50.1269 22.3858 49.807 22.4958C49.3618 22.7142 48.7576 22.7548 48.507 23.2423C48.1753 23.8059 47.9232 24.4119 47.6642 25.0111C47.9095 24.5032 47.8284 23.9617 47.5795 23.4707C47.3849 23.7551 47.214 24.0565 47.0684 24.3678C46.8703 24.4406 46.608 24.4559 46.5403 24.6962C46.2203 25.3801 46.0765 26.1248 45.9496 26.8627C45.7075 27.523 45.2624 28.09 44.7731 28.5893C44.7207 28.2999 44.5412 27.9444 44.8325 27.7208C45.1101 27.4416 45.22 27.0693 45.2555 26.6867C44.9763 26.9796 44.6581 27.2166 44.2636 27.3249C43.7863 27.7802 43.7881 28.6044 44.2469 29.0835C43.6323 29.8027 43.2228 30.6712 43.0451 31.6003C42.9078 31.5073 42.7657 31.4226 42.627 31.3313C42.5305 31.668 42.4255 32.0032 42.3241 32.3401C42.2325 32.0437 42.1226 31.7543 41.9888 31.4751C41.2441 32.0929 42.2292 32.9308 41.8027 33.64C41.7095 34.0377 41.3744 34.2121 40.9987 34.2798C41.0274 34.7453 41.0833 35.214 41.0629 35.6829C40.9463 35.9538 40.7821 36.1975 40.6313 36.4496C40.8971 36.3346 41.1612 36.2212 41.4319 36.1145C41.4235 37.0573 40.6415 37.6767 40.2522 38.4673C40.6652 38.6178 41.0968 38.7449 41.4692 38.4249C42.3765 39.1341 43.4699 39.5538 44.582 39.8163C45.4942 39.8163 46.4759 39.8941 47.2681 40.3866C47.6574 40.2732 48.067 40.0481 48.48 40.1835C48.8676 40.4019 49.2231 40.6761 49.6343 40.8521C50.1016 41.1348 50.6753 41.013 51.1763 41.1958C51.3185 41.3667 51.4268 41.5629 51.5469 41.751C51.674 41.6155 51.7974 41.4801 51.9244 41.3447C52.2071 41.4665 52.4966 41.5731 52.7893 41.6747C52.6184 41.9133 52.4576 42.1589 52.3053 42.411C52.0852 42.3145 51.8686 42.2113 51.6503 42.113C51.5622 42.2672 51.4692 42.4178 51.3743 42.5685C50.9478 42.6225 50.5636 42.3602 50.2505 42.1047C50.4096 42.0743 50.7261 42.0149 50.8852 41.9845C50.8936 41.9032 50.9105 41.7408 50.9191 41.6594C50.5534 41.7188 50.1844 41.7424 49.8171 41.712C49.7055 41.8187 49.5937 41.9235 49.4819 42.0302C49.6072 42.213 49.7291 42.3975 49.8458 42.5854C49.2755 42.5954 49.0097 42.0133 48.5832 41.7322C48.3835 41.8744 48.1922 42.0302 47.9858 42.1622C47.2003 42.2164 46.4081 42.0826 45.6263 42.2366C45.4554 41.4868 46.2541 41.1399 46.5046 40.5237C46.1458 40.7624 45.8937 41.1179 45.6449 41.4615C45.5941 41.3514 45.4909 41.1348 45.4401 41.0265C45.2692 41.216 45.0913 41.4006 44.9102 41.5799C44.5887 41.2939 44.1671 41.177 43.7441 41.206C43.8524 40.9367 43.9556 40.6659 44.0437 40.3917C43.7508 40.5812 43.5426 41.1534 43.133 40.9045C42.4475 40.5881 41.6605 40.7303 40.9801 40.4003C40.6738 40.2902 40.4537 39.9854 40.1237 39.9534C39.6225 40.2665 39.0877 40.6304 38.8694 41.206C38.6883 41.6155 38.6747 42.0674 38.6324 42.5075C38.8999 42.504 39.1673 42.5142 39.4347 42.5024C39.719 42.152 39.7732 41.6747 39.9577 41.2702C39.8493 42.504 38.8238 43.5061 39.0386 44.7925C38.8964 44.5978 38.7542 44.4048 38.607 44.2153C38.5698 44.5708 38.6545 44.9906 38.3024 45.2123C38.6477 46.348 37.7556 47.5159 38.3312 48.611C37.9402 49.1781 38.3751 49.9026 38.2363 50.5389C37.6558 49.8212 37.9029 48.8734 37.8978 48.0322C37.891 47.57 38.0163 46.9607 37.539 46.6815C37.4713 47.3652 37.4933 48.0575 37.4103 48.7414C37.3122 48.2066 37.1565 47.6818 36.906 47.1977C36.6148 48.4621 36.84 49.7535 37.3291 50.9367C37.3173 50.395 37.3003 49.8551 37.324 49.3151C37.9096 49.6468 37.7607 50.4086 37.9587 50.9654C37.9402 51.6848 37.9689 52.4008 38.0603 53.1151C37.9722 54.0782 37.8319 55.0734 37.3477 55.9298C37.1141 56.3614 36.8722 56.8218 36.9499 57.3329C37.0262 58.0252 37.1751 58.8394 37.8182 59.2304C37.8588 58.4874 37.7336 57.7427 37.8268 57.0013C38.0299 57.0402 38.2347 57.0825 38.4395 57.1282C38.2939 57.5463 38.0417 57.9711 38.1415 58.4299C38.2769 59.2101 38.6765 59.9125 38.8694 60.6776C39.0724 61.3344 39.1097 62.0248 39.1283 62.7071C38.9727 62.6206 38.8254 62.5225 38.6578 62.4666C38.475 62.6681 38.3057 62.8813 38.128 63.0861C38.3599 63.5058 38.6679 63.875 38.9692 64.244C39.0912 64.5079 38.9878 64.8159 39.0506 65.097C39.3739 65.4305 39.7902 65.6538 40.1167 65.9857C40.4131 66.3428 40.6313 66.7557 40.8836 67.145C40.7364 67.5919 40.6246 68.0506 40.5128 68.5075C40.8988 69.2167 41.4523 69.8278 41.7621 70.5793C42.2056 71.5171 42.3426 72.5934 42.9637 73.4466C43.2211 73.8189 43.7135 73.9239 43.9862 74.2878C45.7905 76.4898 47.0633 79.0694 48.8354 81.2951C49.5058 81.9062 50.186 82.5071 50.7463 83.2281C50.7261 83.5412 50.616 83.8645 50.6939 84.1794C50.8885 84.5957 51.3066 84.8327 51.5995 85.1711C51.7484 85.4081 52.0531 85.3353 52.2883 85.3879C52.5337 86.2495 53.1821 86.8808 53.761 87.5274C54.6021 88.4091 55.5653 89.1556 56.5233 89.902C57.3628 90.3642 58.0212 91.075 58.7692 91.6606C58.9656 91.8248 59.2567 91.9416 59.4988 91.7995C59.9879 91.3763 60.3163 90.8059 60.6227 90.2456C60.7479 90.0561 60.6735 89.8224 60.6802 89.6125C61.2609 89.3045 61.7973 88.9153 62.2832 88.4701C63.1921 87.6357 63.4493 86.2528 64.5546 85.6078C64.5682 85.2998 64.5833 84.9918 64.5986 84.6855C65.235 84.2859 65.9154 83.8814 66.3081 83.2163C66.4757 82.9234 66.7076 82.6611 67.036 82.5544C67.0901 82.1414 67.3863 81.8487 67.6606 81.5643C67.8111 81.8097 67.9619 82.0586 68.1124 82.309C67.9296 82.4123 67.7469 82.5138 67.5623 82.6138C67.7181 82.7661 67.8738 82.9183 68.0296 83.0758C67.7604 83.345 67.4828 83.6038 67.1917 83.8476C67.1476 83.5616 67.1037 83.2755 67.0157 83.0013C66.9073 83.3619 66.8278 83.7309 66.7415 84.0981C66.9463 84.2064 67.1511 84.3216 67.3524 84.4401C66.9801 84.6381 66.5942 84.8091 66.2151 84.9918C66.2726 85.2525 66.3454 85.5097 66.3962 85.7755C66.0627 86.1259 65.5752 85.6384 65.1742 85.6215C65.4957 85.8585 65.8308 86.0802 66.1727 86.2901C65.819 86.5693 65.687 86.9875 65.6954 87.4258C65.3519 87.3987 65.0082 87.375 64.6647 87.353C64.6951 87.5408 64.7255 87.7305 64.7577 87.92C63.969 88.5446 63.2598 89.2674 62.7182 90.117C62.4186 90.657 61.7702 90.8618 61.5028 91.4203C61.0306 91.8621 61.0053 92.5493 60.6482 93.0639C62.6065 94.3044 64.6376 95.4623 66.8125 96.2747L66.8853 96.124C66.9327 95.8888 66.8176 95.6771 66.7415 95.4656C67.2645 95.733 67.823 95.9227 68.38 96.1122C67.989 96.163 67.5708 96.1105 67.2102 96.295C67.2204 96.339 67.2425 96.4304 67.2527 96.4761C69.1349 97.2581 71.0695 97.9081 73.0431 98.4193C73.9079 98.888 74.888 99.0151 75.8375 99.2198C76.5281 99.2249 77.2204 99.1843 77.911 99.186C77.7062 99.2604 77.5013 99.3298 77.2983 99.4061C78.114 99.4381 78.9468 99.6988 79.7543 99.4534C80.3093 99.2502 80.8679 99.516 81.4164 99.6057C82.2609 99.6514 83.1038 99.5025 83.9501 99.5533C84.1685 99.5803 84.287 99.8022 84.4478 99.9341C85.1925 99.7818 85.9204 99.5482 86.6668 99.4042C88.1529 99.3553 89.6424 99.3857 91.1318 99.384C90.729 100.19 89.815 99.863 89.1126 100.029C89.1176 100.117 89.1278 100.293 89.1329 100.381C89.7558 100.464 90.3804 100.411 90.9913 100.268C90.9287 100.185 90.8035 100.017 90.7408 99.9325C91.3672 99.7344 91.9544 99.4432 92.4774 99.0506C93.8858 98.9914 95.0774 98.167 96.3857 97.7421C96.7818 97.6813 97.1999 97.771 97.5756 97.5865C98.4422 97.2497 99.3764 97.1904 100.274 96.9772C101.172 96.7504 101.734 95.9464 102.543 95.5503C102.88 95.2947 103.346 95.4267 103.691 95.1847C104.329 94.8072 104.95 94.4011 105.597 94.0354C105.478 93.7833 105.358 93.5361 105.25 93.2839C105.065 93.2332 104.883 93.1857 104.7 93.14C104.659 91.813 104.222 90.4335 103.298 89.4569C102.999 88.9576 102.608 88.4634 102.613 87.8539C102.34 87.6999 102.073 87.5443 101.805 87.3885C101.623 86.4406 101.494 85.4285 100.766 84.7193C100.836 84.528 100.91 84.3402 100.99 84.1539C100.869 84.1607 100.627 84.1725 100.507 84.1794C100.417 83.8782 100.319 83.5802 100.231 83.2806C100.654 83.2704 101.147 83.2806 101.183 83.8121C101.377 83.8053 101.57 83.8019 101.767 83.7968C101.871 84.0999 101.98 84.4028 102.088 84.7075C101.824 84.6229 101.56 84.5433 101.296 84.4721C101.596 84.8344 101.946 85.1509 102.298 85.4624C102.389 85.2458 102.481 85.029 102.575 84.8142C102.643 84.897 102.78 85.0628 102.848 85.1458C102.775 85.5013 102.736 85.8618 102.718 86.2257C103.782 86.1987 103.991 87.4731 104.813 87.9082C104.632 88.1062 104.448 88.2992 104.266 88.4954C104.83 88.7595 105.013 89.3215 105.184 89.875C105.005 89.924 104.827 89.9782 104.649 90.0307C104.949 90.1272 105.316 90.1983 105.433 90.5402C105.802 91.356 106.577 92.0838 106.401 93.052C106.597 93.1367 106.792 93.2213 106.99 93.3093C107.257 93.1552 107.525 93.0013 107.797 92.8556C107.572 92.7744 107.352 92.6949 107.132 92.6135C107.731 92.287 108.467 92.4832 109.057 92.1228C109.752 91.8554 109.859 90.7568 110.708 90.7958C111.834 90.3489 112.887 89.6313 113.706 88.724C113.055 88.7426 112.462 89.0355 111.871 89.2774C112.55 88.8391 113.202 88.3516 113.913 87.9657C114.236 87.7423 114.705 88.0165 114.969 87.6779C115.537 87.1804 115.884 86.3154 116.739 86.2579C116.421 86.6709 116.064 87.0534 115.788 87.4986C116.291 86.9281 116.996 86.5355 117.349 85.8432C117.924 84.7075 119.09 84.0423 119.774 82.9878C120.101 82.4749 120.732 82.2837 121.074 81.7844C121.49 81.2817 121.6 80.6283 121.765 80.0173C121.848 79.5671 122.33 79.4029 122.596 79.0829C122.934 77.2973 124.639 76.048 124.647 74.1625C124.745 74.1591 124.943 74.154 125.042 74.1507C124.85 74.6127 124.639 75.0663 124.474 75.5387C124.832 75.3407 125.314 75.2391 125.475 74.8126C125.806 74.0644 126.025 73.2655 126.138 72.4564C126.357 72.4682 126.577 72.48 126.798 72.4937C127.042 71.925 127.261 71.3443 127.44 70.752C127.2 70.7757 126.961 70.7993 126.724 70.8248C126.871 70.5403 127.047 70.2696 127.181 69.9784C127.262 69.5113 127.133 68.9848 127.501 68.6108C127.552 68.9899 127.574 69.3742 127.614 69.7585C127.883 68.8647 128.137 67.9693 128.454 67.0908C128.643 66.6914 128.476 66.2665 128.367 65.8739C128.567 65.8841 128.769 65.8959 128.972 65.9061C129.102 65.4743 129.266 65.0529 129.41 64.6248C129.273 64.3523 129.134 64.0847 129.004 63.8122C129.178 63.8428 129.352 63.8732 129.529 63.9054C129.754 62.7493 129.87 61.5763 129.901 60.4C129.887 59.9176 130.173 59.5164 130.404 59.1187C130.801 58.5398 130.573 57.8002 130.636 57.1469C130.817 57.2856 131.001 57.4261 131.191 57.5616C131.224 57.0655 131.133 56.5866 130.654 56.348C130.806 55.7098 130.979 55.0717 131.001 54.4115C130.927 54.4166 130.779 54.4268 130.707 54.4319C130.673 53.963 130.531 53.5144 130.375 53.0761C130.561 52.917 130.751 52.763 130.945 52.6107C130.784 52.3534 130.619 52.1011 130.46 51.8456C130.652 51.8354 131.037 51.8152 131.23 51.805C131.416 52.0928 131.609 52.3822 131.885 52.5988C131.947 51.9675 131.79 51.3277 131.343 50.8655C131.218 50.3189 131.318 49.7384 131.269 49.1797C130.658 49.2576 130.126 49.5724 129.579 49.8314C129.855 48.936 130.449 48.0644 130.248 47.0894C130.077 46.4885 129.75 45.9468 129.496 45.3781C129.639 45.3865 129.923 45.4018 130.065 45.4104C129.935 44.8027 129.745 44.2119 129.513 43.6381C129.894 43.7464 130.272 43.8735 130.652 43.9851C130.586 43.5145 130.531 43.0423 130.495 42.5685C130.378 42.7784 130.265 42.9899 130.151 43.1998C129.977 42.8004 129.847 42.3772 129.893 41.937C130.062 41.0502 129.231 40.3528 128.444 40.1615C128.731 41.2635 129.562 42.1757 129.65 43.3317C129.161 42.9205 128.975 42.2942 128.623 41.7848C128.417 41.475 127.993 41.3074 127.951 40.9029C127.85 40.346 127.746 39.7876 127.662 39.2273C127.792 39.2832 128.053 39.3948 128.181 39.4506C128.207 39.3727 128.254 39.2187 128.278 39.141C127.613 38.9632 126.924 39.0935 126.258 39.19C125.673 39.2966 125.065 39.4015 124.566 39.7486C124.126 40.0362 123.587 40.0752 123.119 40.2953C122.887 40.3985 122.635 40.2902 122.399 40.2783C122.167 40.539 121.951 40.825 121.646 41.0028C121.176 41.1077 120.693 40.9943 120.219 41.0349C119.601 41.0722 119.056 41.3904 118.471 41.5495C117.932 41.7102 117.379 41.8034 116.831 41.9117C116.861 41.6088 116.881 41.3057 116.898 41.0028C117.13 41.0265 117.364 41.0518 117.599 41.0789C117.585 40.8639 117.574 40.6508 117.565 40.4391C117.98 40.3883 118.395 40.3257 118.814 40.3071C118.649 40.456 118.479 40.6016 118.308 40.7454C118.356 40.8233 118.449 40.9791 118.494 41.0569C118.814 40.7354 119.21 40.5153 119.586 40.2665C119.383 40.0719 119.178 39.8806 118.99 39.6758C119.473 39.5471 119.926 39.7976 120.392 39.884C120.607 39.5234 120.827 39.1359 121.252 38.9937C121.331 39.2458 121.416 39.4998 121.502 39.7519C121.589 39.7807 121.765 39.8365 121.851 39.8653C121.744 39.4998 121.631 39.1359 121.536 38.7669C121.82 38.6906 122.106 38.6196 122.396 38.5501C122.481 38.7398 122.574 38.9276 122.679 39.1104C122.628 38.7736 122.519 38.4504 122.436 38.122C122.733 38.0677 122.968 38.1558 123.144 38.3877C123.109 38.821 122.983 39.2391 122.916 39.6673C122.977 39.6742 123.1 39.6876 123.161 39.6944C123.158 39.4151 123.154 39.1359 123.151 38.8583C123.687 38.3961 124.334 38.1405 125.004 37.9374C125.094 38.2083 125.189 38.4775 125.295 38.7431C125.356 38.491 125.416 38.2388 125.475 37.9865C126.556 37.8393 127.516 37.2317 128.621 37.2012C128.384 36.9457 128.105 36.734 127.897 36.4547C127.968 36.1298 128.115 35.8267 128.235 35.5187C128.031 35.0414 127.812 34.5523 127.912 34.0224C127.367 33.5519 126.751 33.139 126.373 32.5094C126.294 32.5889 126.216 32.6667 126.14 32.7462C125.903 32.1047 125.598 31.4938 125.322 30.8725C125.135 30.4071 125.58 30.0534 125.813 29.7097C125.305 29.3577 124.782 29.0309 124.246 28.728C124.549 28.6062 124.849 28.4775 125.148 28.3456C125.094 28.1626 125.033 27.9833 124.967 27.8055C124.588 27.7039 124.2 27.7751 123.824 27.8393C123.682 27.0218 123.474 26.2078 123.489 25.3715C123.398 25.3834 123.213 25.4072 123.122 25.419C122.981 25.7254 122.844 26.0334 122.716 26.3432C122.32 25.8845 121.925 25.419 121.633 24.8859C122.178 24.9518 122.719 24.8791 123.18 24.5642C123.139 24.0665 123.124 23.5554 122.936 23.0848C122.597 22.8021 122.149 22.8666 121.817 23.1221C121.387 22.4062 120.502 22.4197 119.789 22.2082C120.099 22.0625 120.416 21.9322 120.734 21.7986C119.326 21.1282 118.312 19.9062 117.184 18.8702C116.746 18.3913 116.142 18.0172 115.912 17.3859C115.697 16.6666 114.987 16.3043 114.517 15.7745C114.139 15.2972 113.466 15.436 112.941 15.2888C112.508 15.2549 112.256 14.8859 112.024 14.5677C112.53 14.7827 112.987 15.2481 113.579 15.1077C112.866 14.4763 112.037 13.9956 111.199 13.5538C110.932 13.6351 110.668 13.7265 110.404 13.8077C110.119 13.4489 109.901 13.0444 109.641 12.672C108.968 12.369 108.256 12.1608 107.548 11.9594C107.55 11.8291 107.552 11.5684 107.554 11.4364C108.606 11.8697 109.801 12.0965 110.617 12.953C110.629 12.7092 110.644 12.4655 110.658 12.2201C109.971 11.692 109.272 11.0082 108.346 11.0166C107.41 10.695 106.425 10.5918 105.441 10.5816C104.903 10.6189 104.537 10.1754 104.131 9.9012C103.571 9.43744 102.814 9.21232 102.432 8.55727C101.538 8.14936 100.621 7.78546 99.6795 7.50617C99.1227 7.47233 98.5675 7.42154 98.0241 7.2929C97.2658 7.09656 96.4805 7.16427 95.707 7.16766C95.729 7.03394 95.7729 6.76819 95.7933 6.63449C95.2652 6.56338 94.7202 6.51092 94.2344 6.27395C93.6133 5.97267 93.0546 5.54444 92.3962 5.32271C91.8139 5.32271 91.2369 5.53767 90.8373 5.97098ZM81.2894 18.8686C81.5839 20.155 82.7738 21.245 84.121 21.2654C84.6391 21.2654 85.2298 21.2975 85.6665 20.9709C86.2978 20.3547 86.0744 19.3037 85.5802 18.6722C84.8202 17.9512 83.4932 18.4115 82.8719 17.4773C82.4132 16.8815 82.6113 16.1418 82.723 15.4716C81.5669 16.1215 80.9322 17.5856 81.2894 18.8686ZM40.8074 28.5469C40.5687 29.19 40.2827 29.8147 40.0339 30.4544C40.452 30.1768 40.8667 29.8519 41.0935 29.3932C41.1054 29.0868 40.9089 28.8229 40.8074 28.5469ZM41.5133 39.9432C41.4692 39.994 41.3811 40.0956 41.3373 40.148C41.4558 40.7336 42.1615 39.8467 41.5133 39.9432ZM133.11 49.0426C132.932 49.2931 133.322 49.6333 133.557 49.4506C133.733 49.2152 133.327 48.8513 133.11 49.0426ZM62.1545 89.8936C61.9158 90.0425 62.1816 90.4251 62.405 90.2507C62.6572 90.1018 62.3762 89.7243 62.1545 89.8936ZM63.3952 95.4673C63.3987 95.6384 63.4036 95.9786 63.407 96.1495C64.255 96.2831 65.1081 96.4591 65.973 96.4C65.1183 96.0818 64.3126 95.5588 63.3952 95.4673ZM80.6124 99.7699C80.6191 99.8968 80.6309 100.152 80.636 100.279C81.7921 100.298 82.9413 100.193 84.0821 100.017C83.9248 99.8783 83.7504 99.6667 83.5152 99.7326C82.5486 99.7987 81.5804 99.7834 80.6124 99.7699Z" fill="white"/>
<path d="M67.8291 3.50005C67.9578 3.25802 68.0865 3.01767 68.215 2.77393C68.3928 2.98042 68.5705 3.18523 68.7482 3.39342C68.4402 3.4222 68.1338 3.45944 67.8291 3.50005Z" fill="white"/>
<path d="M76.1533 6.92735C76.5239 6.67515 76.8878 6.4128 77.2366 6.13184C77.6276 6.53129 78.1065 6.82072 78.5399 7.17109C77.7392 7.22864 76.9048 7.25741 76.1533 6.92735Z" fill="white"/>
<path d="M58.9629 14.473C59.2913 14.3985 59.6179 14.3088 59.9446 14.2275C59.6484 14.4797 59.337 14.715 58.9967 14.908C58.9882 14.7996 58.9713 14.5813 58.9629 14.473Z" fill="white"/>
<path d="M58.8259 21.9088C59.3405 21.5821 59.9702 21.5939 60.5541 21.6651C61.7761 21.946 62.6326 23.1257 62.7748 24.3342C62.9406 25.2331 62.7342 26.1369 62.7545 27.039C62.6919 27.9785 62.8255 28.9161 62.7443 29.8538C61.2125 29.4848 59.6198 29.7761 58.0627 29.7065C56.8845 29.7979 55.632 29.2598 55.0142 28.229C54.635 27.6399 54.6841 26.8985 54.7637 26.235C55.0617 25.0571 56.3073 24.3038 57.4905 24.424C57.3973 23.4186 57.8916 22.3506 58.8259 21.9088ZM58.1979 23.6827C58.0829 24.2412 58.3062 24.7897 58.3876 25.3379C57.8899 25.2194 57.3922 25.0316 56.8727 25.096C56.0652 25.2771 55.3138 26.0033 55.3646 26.8783C55.2512 28.0105 56.3565 28.8925 57.394 29.0245C58.9715 29.1295 60.549 28.9145 62.1265 29.033C61.9658 27.53 62.245 26.0218 62.1265 24.5188C62.0266 23.51 61.3174 22.4555 60.2613 22.2998C59.3524 22.1424 58.4349 22.8143 58.1979 23.6827Z" fill="white"/>
<path d="M107.71 21.8797C108.878 21.2957 110.456 21.8136 111.023 22.9952C111.253 23.4335 111.297 23.9312 111.299 24.4185C112.135 24.4219 113.046 24.6826 113.553 25.3918C114.188 26.1822 114.257 27.3552 113.75 28.2269C113.453 28.7634 112.929 29.1273 112.39 29.3898C111.436 29.8247 110.364 29.6961 109.349 29.6741C108.238 29.6166 107.126 29.6486 106.019 29.7265C106.131 28.0948 106.014 26.4632 106.016 24.8315C105.98 23.6315 106.657 22.4534 107.71 21.8797ZM107.558 22.7243C106.702 23.4402 106.487 24.6302 106.585 25.6896C106.702 26.8067 106.727 27.9308 106.674 29.0528C107.734 28.997 108.799 28.9953 109.856 29.0969C110.549 29.1662 111.256 29.1291 111.925 28.9276C112.727 28.6449 113.436 27.9239 113.477 27.0405C113.53 26.36 113.159 25.6931 112.583 25.341C111.949 24.8654 111.111 25.1209 110.422 25.3088C110.611 24.642 110.828 23.8549 110.437 23.2169C109.909 22.2097 108.382 21.9152 107.558 22.7243Z" fill="white"/>
<path d="M120.192 23.3034C120.861 23.2747 121.531 23.2443 122.203 23.2545C122.002 23.664 121.778 24.0601 121.557 24.4562C121.247 23.9196 120.758 23.5404 120.192 23.3034Z" fill="white"/>
<path d="M81.3323 29.0869C81.6421 29.2884 81.9383 29.5083 82.2446 29.7182C82.9877 29.3408 83.8238 29.3002 84.638 29.3984C85.7347 29.5524 86.8502 29.3849 87.9453 29.5626C89.0235 29.8096 90.1203 29.9501 91.1917 30.2277C91.3644 30.3666 91.5201 30.5239 91.6808 30.678C92.275 30.6238 92.8708 30.6509 93.4649 30.6695C93.7899 31.5294 94.8444 31.2586 95.4452 31.7732C95.9446 32.137 96.5404 32.3706 96.9466 32.8564C97.8419 33.8431 99.1825 34.3136 99.9611 35.4173C100.43 36.03 101.061 36.4802 101.655 36.9593C101.821 37.4111 102.18 37.665 102.625 37.8106C103.048 38.2406 103.197 38.8786 103.375 39.4456C103.859 39.9788 104.259 40.5781 104.687 41.1569C104.783 41.338 104.988 41.3837 105.164 41.4582C105.31 42.1843 105.689 42.8427 105.795 43.5807C105.897 44.4455 106.698 45.0939 106.586 45.9977C106.589 46.8238 106.44 47.8324 107.156 48.4198C107.246 49.0207 107.136 49.6555 107.454 50.2056C107.627 51.1652 107.725 52.1994 107.398 53.1388C107.351 53.6314 107.552 54.1205 107.491 54.6164C107.329 55.0074 107.116 55.3882 107.095 55.8216C107.065 56.568 106.63 57.2129 106.513 57.9441C106.408 58.545 106.014 59.0258 105.782 59.5775C105.543 60.2461 105.555 61.001 105.173 61.6204C104.665 62.4514 104.062 63.2318 103.328 63.8749C103.343 64.3218 103.47 64.8178 103.167 65.2037C102.794 65.9874 102.021 66.4308 101.376 66.964C100.789 67.2906 100.173 67.5953 99.7123 68.1032C99.9662 68.0422 100.222 67.9779 100.476 67.9084C100.46 68.0557 100.43 68.3502 100.415 68.4991C100.12 68.4789 99.8273 68.4146 99.5362 68.4534C99.125 68.753 98.7577 69.1644 98.7509 69.7027C99.0149 69.6044 99.2756 69.4893 99.5362 69.3743C99.2452 69.6248 98.9727 69.8922 98.7002 70.163C98.3514 69.9752 97.9655 69.9108 97.5763 69.8905C97.5035 70.0717 97.4307 70.2544 97.3613 70.4388C96.4066 70.3662 95.5501 70.8096 94.714 71.1972C94.1521 71.5712 93.6054 72.0418 92.9097 72.1248C91.9923 72.2568 91.2307 72.8391 90.3183 72.9913C89.4162 73.3333 88.4734 73.5583 87.5035 73.5346C86.9314 73.4788 86.5743 74.1321 86.0005 74.034C83.0199 73.8918 79.9918 73.494 77.2142 72.3498C76.642 72.1619 76.0463 72.0147 75.5249 71.705C74.2876 70.9907 72.9319 70.5084 71.7201 69.7484C70.8805 69.2913 70.2356 68.4654 69.2286 68.3604C69.1523 68.1083 69.0728 67.8594 68.9916 67.6122C68.7462 67.5902 68.4533 67.6681 68.2569 67.4802C67.4784 66.8286 66.9756 65.9299 66.3308 65.1597C65.8197 64.6163 65.6367 63.8631 65.1121 63.3317C64.5789 62.746 64.6263 61.9048 64.4521 61.1888C63.3823 59.6587 62.6747 57.8697 62.5274 56.0009C62.5005 55.7403 62.4361 55.4865 62.3836 55.2309C62.2313 55.2377 62.0789 55.246 61.9284 55.2546C61.6457 54.2458 62.3616 53.2725 61.9588 52.2671C62.1246 52.3026 62.2906 52.3383 62.4597 52.3721C62.3633 52.1604 62.2498 51.9591 62.1687 51.7425C62.2178 51.4073 62.4293 51.1145 62.5224 50.7877C62.3329 50.8046 62.1433 50.8216 61.9555 50.8403C62.1179 49.1984 62.4497 47.5787 62.9794 46.0163C63.2097 45.1429 63.6768 44.3541 63.8714 43.4707C64.0611 43.3759 64.254 43.2862 64.4486 43.1948C64.3454 42.3993 64.3793 41.5665 64.655 40.8065C65.0428 40.0787 65.6639 39.5099 66.06 38.7872C66.6507 37.77 67.4851 36.9085 68.4702 36.2703C68.829 35.5578 69.4672 35.0956 70.1695 34.7572C70.7704 34.0497 71.5118 33.4166 72.4191 33.1508C73.2248 32.9291 73.6225 32.0304 74.4384 31.8307C75.7517 31.5767 76.5778 30.2971 77.8777 29.9874C78.1977 29.9299 78.4904 29.7877 78.7578 29.6066C78.9051 29.7082 79.0523 29.8114 79.2014 29.913C79.5567 29.7166 79.8953 29.4814 80.2812 29.3459C80.6011 29.246 80.8381 29.522 81.0751 29.6827C81.1563 29.483 81.2409 29.2833 81.3323 29.0869ZM81.3984 30.4596C81.3645 30.7423 81.3425 31.0266 81.3137 31.311C80.7112 31.4905 80.0899 31.609 79.4637 31.4837C79.3028 31.746 79.1455 32.01 78.9864 32.2725C78.8357 32.1691 78.6852 32.0659 78.5379 31.9627C77.8303 32.5128 76.957 32.7683 76.0954 32.9578C75.4759 33.1728 74.9224 33.6332 74.2268 33.5554C74.0541 33.8263 73.8984 34.1445 73.5886 34.2798C73.0673 34.5592 72.3548 34.5049 71.9926 35.0466C71.3054 35.925 70.5793 36.8085 69.6212 37.4061C68.7833 37.8563 68.3026 38.7144 67.7594 39.4575C67.5834 39.7249 67.2432 39.7724 66.9723 39.8958C66.9334 40.4748 66.6982 41.0164 66.6625 41.5987C66.6507 41.9812 66.3849 42.2604 66.1446 42.5262C66.1293 42.3179 66.1006 41.9033 66.0853 41.6952C65.9957 41.7848 65.8162 41.9642 65.7265 42.054C65.7552 42.7361 65.752 43.4181 65.8044 44.1004C65.5523 44.1004 65.3016 44.1004 65.0529 44.0969C65.146 44.3931 65.2425 44.6876 65.3287 44.9872C64.992 45.4307 64.4351 45.8843 64.5959 46.5072C64.6246 46.8101 64.7634 47.0877 64.8955 47.3586C64.7872 47.389 64.5722 47.45 64.4655 47.4804C64.1694 48.0694 64.2879 48.7684 63.9628 49.3475C63.5887 49.9618 64.4182 50.4187 64.2879 51.0602C64.1237 51.0535 63.9611 51.0451 63.7986 51.0384C63.78 51.2837 63.7429 51.5308 63.6023 51.7407C63.4398 51.9929 63.6023 52.2926 63.6244 52.5633C63.8291 52.3789 64.0372 52.1994 64.2471 52.0217C64.1981 52.7833 64.3199 53.5433 64.281 54.3049C64.276 54.8416 63.7886 55.2562 63.8528 55.8012C63.8359 56.1092 64.0711 56.3311 64.2303 56.5663C64.2946 56.1753 64.1372 55.6827 64.5265 55.4221C64.4249 56.2702 64.9716 56.9608 65.0884 57.763C64.953 57.9458 64.7735 58.0897 64.6128 58.247C65.0309 58.9562 65.6165 59.5944 65.8009 60.417C65.9533 61.2921 66.5203 62.0047 66.7826 62.8442C66.9435 63.4331 67.563 63.6397 67.9473 64.0459C68.3789 64.5435 68.6581 65.1461 69.0169 65.6929C69.342 66.1973 69.8379 66.5526 70.2611 66.9691C70.7333 67.4397 71.5118 67.4972 71.8639 68.1048C72.5037 69.0661 73.5937 69.5299 74.4841 70.2071C75.007 70.603 75.6401 70.8078 76.2004 71.1464C77.2921 71.8421 78.6175 71.9351 79.8141 72.3616C81.2189 72.8881 82.7439 72.5733 84.1978 72.8001C83.8221 72.9085 83.2247 72.6918 83.0909 73.1893C84.0236 73.1826 84.9309 72.927 85.8245 72.6867C86.5015 72.5986 87.1837 72.6918 87.8489 72.8322C88.4852 72.597 89.1216 72.3634 89.7445 72.0926C90.4385 71.7981 91.2172 71.8438 91.9264 71.6035C92.2411 71.4223 92.4798 71.1244 92.82 70.984C93.6359 70.664 94.3585 70.1528 95.0661 69.6417C95.4605 69.4961 95.8075 69.2693 96.1155 68.9833C96.6317 68.7022 97.1953 68.4805 97.5863 68.0167C97.429 67.9898 97.1176 67.9339 96.9601 67.9068C97.8606 67.5429 98.8169 67.1857 99.4583 66.419C100.188 65.5625 101.06 64.8279 101.73 63.9224C102.05 63.1896 102.624 62.5412 102.664 61.7118C102.732 61.9303 102.805 62.1485 102.883 62.3686C103.038 61.8693 103.045 61.3428 103.074 60.8266C103.214 60.8199 103.494 60.808 103.632 60.8013C103.813 60.527 103.685 60.202 103.649 59.9075C104.128 59.3439 104.358 58.6229 104.775 58.0151C105.056 57.3398 105.262 56.6324 105.653 56.0044C105.999 55.5322 105.564 54.9803 105.708 54.464C105.804 54.1611 105.999 53.9005 106.088 53.5957C106.082 53.1286 106.021 52.6632 106.046 52.1977C106.159 52.2926 106.388 52.4821 106.501 52.5769C106.193 52.191 106.159 51.6866 105.967 51.2482C105.741 50.7557 105.846 50.197 106.102 49.7383C105.697 49.168 105.587 48.4672 105.323 47.8342C105.083 47.2366 105.327 46.558 105.039 45.9706C104.961 45.6304 104.619 45.3715 104.624 45.0211C104.729 44.7774 104.829 44.5336 104.937 44.2933C104.729 44.2324 104.523 44.1681 104.318 44.102C104.457 44.273 104.496 44.4541 104.43 44.6454C104.372 44.6691 104.255 44.7147 104.196 44.7368C103.49 44.2713 103.947 43.3928 104.132 42.7767C103.534 42.4923 103.031 42.0573 102.525 41.6444C102.266 41.2754 102.268 40.8014 102.062 40.4104C101.86 39.9635 101.534 39.5895 101.33 39.1444C100.432 39.168 100.235 38.1288 99.8324 37.5296C99.472 36.68 98.5309 36.3702 97.9063 35.7642C97.6659 35.4546 97.5373 35.0263 97.1294 34.8908C96.4574 34.6285 96.058 34.0023 95.4724 33.6146C94.4703 32.8191 93.1839 32.5568 92.038 32.0371C91.4067 31.9847 90.7736 32.1083 90.1423 32.0863C90.2422 31.9017 90.3454 31.7189 90.4537 31.5394C89.8225 31.5598 89.1792 31.6377 88.553 31.5176C87.5307 31.0605 86.3644 30.898 85.266 31.1384C84.6313 31.3059 84.0269 30.9995 83.4176 30.8692C82.9606 30.9877 82.4867 31.0689 82.0162 30.9759C81.8012 30.8151 81.6048 30.6273 81.3984 30.4596ZM104.348 61.7677C104.851 61.4393 105.207 60.9298 105.328 60.3391C104.881 60.7217 104.609 61.2515 104.348 61.7677ZM102.53 65.0953C102.64 65.07 102.861 65.0157 102.972 64.9888C103.001 64.7552 103.031 64.5215 103.064 64.2896C102.886 64.5588 102.707 64.8262 102.53 65.0953Z" fill="white"/>
<path d="M84.8572 31.7344C85.2921 32.4317 85.4716 33.2561 85.3835 34.0719C85.546 34.1363 85.7086 34.2022 85.8728 34.2666C85.937 35.1755 85.9895 36.086 86.1114 36.9882C86.3026 37.5552 86.5226 38.119 86.5871 38.7198C86.6124 39.2428 87.0491 39.5982 87.2216 40.0687C87.5061 40.5631 87.4841 41.1538 87.6652 41.6835C87.8142 42.2218 88.1138 42.6956 88.3473 43.1968C88.8636 42.8278 89.5287 42.6281 89.891 42.0745C90.2126 41.5279 90.8423 42.0966 91.3195 41.9746C91.3804 41.6784 91.2467 41.2772 91.5615 41.0945C91.8966 40.8405 92.352 40.9184 92.7328 40.7881C93.1492 40.6239 93.5622 40.4479 93.9685 40.26C94.6132 39.9824 95.0771 39.3883 95.7728 39.209C96.9187 38.8551 97.9308 38.2052 99.0208 37.7229C98.7838 38.4235 98.3642 39.0431 97.8461 39.5661C97.3554 40.3396 96.9711 41.1826 96.6021 42.0203C96.4752 43.4236 95.6881 44.6507 94.9738 45.8288C94.6032 46.5498 94.251 47.281 93.8025 47.958C94.5963 48.4557 95.5696 48.4438 96.4245 48.7908C97.77 49.0598 99.0208 49.6371 100.29 50.138C101.45 50.8609 102.846 51.1385 103.882 52.071C103.246 52.4467 102.638 52.8801 101.92 53.0933C101.135 53.3201 100.473 53.8229 99.6996 54.0717C98.6061 54.4423 97.5381 54.9045 96.3906 55.0906C95.507 55.3969 94.5694 55.4885 93.6909 55.8049C94.273 56.9914 94.8282 58.1949 95.5154 59.3255C96.1907 60.4765 96.2382 61.8576 96.8763 63.0204C97.181 63.6162 97.4078 64.2628 97.8461 64.7809C98.1678 65.1837 98.4656 65.6355 98.508 66.1654C97.533 65.7287 96.6411 65.1244 95.6272 64.7689C94.9891 64.5759 94.5186 64.0953 93.982 63.7347C93.2322 63.3523 92.4722 62.9325 91.6192 62.863C91.0656 62.863 91.1519 62.2131 91.1113 61.834C90.7407 61.7646 90.3564 61.7595 90.0415 61.9981C89.913 61.9406 89.7843 61.8847 89.6574 61.8289C89.5016 61.1044 88.7078 60.9081 88.1509 60.5628C87.8311 61.1672 87.4299 61.7442 87.3199 62.4348C87.2133 63.0831 86.9881 63.7145 86.6038 64.251C86.2061 64.7164 86.3026 65.3698 86.0639 65.9047C85.5664 66.9185 85.6831 68.0797 85.5003 69.1664C85.3531 69.4271 84.9519 69.537 84.9908 69.8856C85.0027 70.6017 84.7607 71.2821 84.4273 71.9067C84.1497 71.0484 83.9769 70.1599 83.6842 69.3067C83.4658 68.7652 83.5724 68.1508 83.283 67.6328C82.7635 66.5258 82.3048 65.3834 82.1151 64.1681C82.0304 63.3421 81.4583 62.6837 81.3449 61.8662C81.2366 61.4752 81.2113 60.881 80.7306 60.7762C79.7184 61.1637 78.6927 61.5631 77.782 62.164C77.1456 62.5297 76.3891 62.6125 75.7492 62.9782C74.1464 63.9075 72.4233 64.5928 70.7526 65.385C71.142 64.2781 71.5838 63.1846 72.161 62.1623C72.8194 61.1857 73.5607 60.2091 73.8044 59.0294C73.8501 58.6062 74.3105 58.3979 74.3833 57.9851C74.5831 57.0321 75.1959 56.2501 75.6444 55.4055C74.1819 54.9704 72.7821 54.3695 71.3586 53.8364C70.4142 53.1932 69.1853 53.3507 68.2289 52.7261C67.4353 52.1642 66.4805 51.9323 65.5869 51.587C66.4805 51.2162 67.4861 51.0775 68.2748 50.4868C69.1921 49.8977 70.3583 50.0721 71.2925 49.5288C71.9173 49.2359 72.6146 49.1343 73.2306 48.8145C73.9941 48.4218 74.8657 48.3219 75.6444 47.9665C75.5191 47.3606 75.1145 46.8663 74.8691 46.3093C74.6474 45.8863 74.5678 45.4055 74.3292 44.9943C73.9009 44.4018 73.9398 43.6233 73.5725 43.002C73.1935 42.1288 72.4384 41.4871 72.0949 40.5968C71.7327 39.7185 71.3197 38.8518 71.1014 37.9242C72.6552 38.7199 74.2717 39.3952 75.7645 40.3057C76.6057 40.8322 77.6586 40.9184 78.4406 41.5515C78.8806 41.8765 79.4103 42.039 79.8927 42.2895C80.3312 42.4876 80.756 42.8329 81.2672 42.6907C81.4873 42.0001 81.5837 41.2603 81.9493 40.6223C82.4265 39.8386 82.4402 38.8924 82.7364 38.0427C82.9734 37.1271 83.5861 36.3636 83.8348 35.4564C83.8772 34.6507 84.2478 33.9213 84.4526 33.1511C84.5813 32.6771 84.6998 32.1998 84.8572 31.7344ZM84.7251 38.2509C84.6151 38.0833 84.5119 37.9142 84.4085 37.7449C84.3832 38.9314 83.3693 39.8319 83.4827 41.0369C83.0664 42.3572 82.9699 43.9482 81.8393 44.896C81.3094 44.8707 80.7966 44.6303 80.3075 44.4324C79.9554 44.043 79.3984 43.3795 78.8722 43.9092C78.6454 43.7079 78.4337 43.4811 78.1528 43.3559C77.044 42.8869 76.0658 42.1202 74.8522 41.9205C74.864 42.7735 75.4531 43.4354 75.7847 44.1785C76.3044 45.7915 77.5401 47.1354 77.689 48.8805C77.3234 49.0074 76.9561 49.1412 76.6294 49.3493C75.9862 49.7607 75.2077 49.8266 74.4832 49.9942C73.2121 50.3344 72.0256 50.9302 70.7324 51.1925C70.2839 51.2653 69.8894 51.4938 69.4731 51.658C69.8945 51.8053 70.2872 52.0388 70.7375 52.1083C71.9612 52.3672 73.0801 52.9428 74.2682 53.3185C74.9876 53.5724 75.7984 53.5757 76.4568 53.9989C76.8258 54.2443 77.2235 54.4424 77.6331 54.6151C77.5503 55.6729 76.9663 56.5581 76.5261 57.4907C76.3179 57.8429 75.9726 58.1085 75.8525 58.5113C75.4953 59.5744 74.8183 60.4935 74.4865 61.5649C74.7912 61.4582 75.0959 61.3465 75.4107 61.2653C76.1808 61.074 76.8223 60.5814 77.5535 60.2903C77.9682 60.1296 78.3609 59.9146 78.6876 59.6064C79.2732 60.1076 79.7709 59.3747 80.2194 59.0632C80.6832 58.8719 81.1758 58.7653 81.6463 58.5859C82.6889 59.51 82.831 60.9522 83.1763 62.2182C83.3303 62.6617 83.1341 63.1575 83.3405 63.5891C83.6622 64.3391 84.1242 65.0922 84.0481 65.9419C84.1362 65.7879 84.2292 65.6355 84.3273 65.4866C84.4052 65.7591 84.4762 66.0367 84.5439 66.3143C84.703 65.0432 85.5291 63.9954 85.8862 62.7852C86.0402 62.1876 86.7054 61.8543 86.7462 61.211C86.8696 60.3444 87.2047 59.532 87.4519 58.6975C88.3218 59.1817 89.0988 59.8079 89.9654 60.2971C90.3073 60.6018 90.5139 61.0283 90.7068 61.4379C90.9269 61.4599 91.1452 61.4803 91.3669 61.5023C91.3449 61.4429 91.3008 61.3228 91.2789 61.2618C90.8947 61.1857 90.4851 61.1027 90.6036 60.6001C91.5547 60.8912 92.6702 61.0215 93.354 61.8256C93.8008 62.3147 94.2799 62.8122 94.9314 63.0204C94.7132 62.6888 94.417 62.4247 94.1682 62.1217C94.6032 62.3045 94.9924 62.5837 95.4511 62.7141C95.2955 62.1048 94.8198 61.6596 94.6049 61.0774C94.3595 60.4427 94.1056 59.813 93.8516 59.1834C93.8127 58.6096 93.8669 58.0358 93.8651 57.4637C93.7129 57.4857 93.4116 57.5331 93.2593 57.5567C93.2322 57.6567 93.1763 57.8598 93.1492 57.9612C93.0731 57.9443 92.9207 57.9139 92.8446 57.897C92.8226 57.572 92.8412 57.2453 92.8208 56.9204C92.3588 56.2872 91.9931 55.595 91.7326 54.8554C92.4671 54.7842 92.9291 54.1495 93.6232 53.9718C94.4288 53.7146 95.2886 53.9245 96.1197 53.8686C96.1469 53.635 96.1738 53.4031 96.2044 53.1712C96.6749 53.1932 97.1506 53.2236 97.616 53.1153C97.4264 53.0019 97.2385 52.8885 97.0523 52.7769C97.3976 52.4671 97.7733 52.1709 98.2541 52.1303C98.2592 52.2758 98.2643 52.4214 98.2694 52.5687C98.6198 52.5569 98.9718 52.5534 99.3255 52.555C99.2188 52.2911 99.1207 52.0253 99.0377 51.7563C99.2087 51.6682 99.3814 51.5819 99.554 51.4905C99.0597 51.4414 98.5639 51.4059 98.0679 51.4212C98.3607 51.548 98.6655 51.6462 98.9633 51.7647C98.4944 51.7477 98.0256 51.7375 97.5602 51.7004C97.4078 51.4887 97.2554 51.2772 97.1049 51.0673C97.3654 51.0352 97.6244 50.9996 97.8867 50.9624C97.3536 50.722 96.7747 50.6594 96.1993 50.7203C96.1654 50.48 96.1316 50.2396 96.0961 50.0009C94.9671 50.0095 93.6654 50.2126 92.7565 49.3798C92.5093 49.0786 92.1083 49.0378 91.7646 48.9177C92.1962 48.2305 92.3808 47.391 93.0307 46.8527C92.9478 46.6971 92.8683 46.5396 92.7938 46.384C92.8699 46.262 93.0239 46.0183 93.1002 45.8965C93.354 46.1502 93.6503 46.3552 93.9887 46.4804C94.0209 45.8694 93.9667 45.2583 94.004 44.6507C94.2392 44.1124 94.4847 43.5792 94.6877 43.0275C94.9349 42.3387 95.4815 41.8104 95.7016 41.1098C95.1939 41.3095 94.7554 41.6497 94.2341 41.8173C94.5557 41.4855 94.9502 41.213 95.1652 40.7916C94.3442 41.1622 93.7484 41.8426 93.0865 42.4249C92.3706 42.826 91.548 43.0342 90.7321 43.1019C90.8253 42.6738 91.2653 42.562 91.6072 42.3927C91.3973 42.3605 91.1892 42.3301 90.981 42.3013C90.7238 42.7211 90.4884 43.1849 90.0974 43.4946C89.1919 43.9398 88.4218 44.6253 87.4723 44.9892C87.4333 44.1191 87.0118 43.3287 86.9408 42.4621C86.9204 41.8816 86.367 41.5481 86.1808 41.0369C85.7796 39.7946 85.1297 38.6369 84.8503 37.3555C84.803 37.6535 84.764 37.9513 84.7251 38.2509Z" fill="white"/>
<path d="M126.285 34.3577C127.197 34.2053 127.388 35.3818 127.332 36.0604C126.96 35.5003 126.019 35.1685 126.285 34.3577Z" fill="white"/>
<path d="M115.86 41.0945C116.05 40.998 116.238 40.8999 116.429 40.8032C116.395 41.2501 116.387 41.697 116.411 42.1455C116.075 42.1625 115.742 42.1912 115.41 42.2267C115.488 42.0254 115.563 41.8206 115.637 41.6174C115.815 41.719 115.991 41.8239 116.172 41.9273C116.074 41.6462 115.969 41.3686 115.86 41.0945Z" fill="white"/>
<path d="M54.107 41.5938C54.3456 41.5142 54.4252 41.5938 54.3456 41.8341C54.107 41.912 54.0274 41.8324 54.107 41.5938Z" fill="white"/>
<path d="M114.165 41.624C114.245 41.6511 114.402 41.7019 114.482 41.729C114.524 42.1015 114.594 42.4788 114.528 42.8546C114.46 42.5449 114.436 42.23 114.411 41.9169C114.306 42.0405 114.201 42.1657 114.098 42.291C114.12 42.0676 114.142 41.8457 114.165 41.624Z" fill="white"/>
<path d="M52.4453 42.8817C52.7127 42.5009 52.9514 42.0997 53.1427 41.6748C53.5286 41.8661 53.928 42.027 54.3394 42.1523C54.0973 42.2369 53.857 42.3265 53.6216 42.4248C53.5133 42.2926 53.405 42.1623 53.295 42.032C53.2408 42.3181 53.1986 42.6059 53.1478 42.8935C52.9124 42.8884 52.6789 42.8851 52.4453 42.8817Z" fill="white"/>
<path d="M113.263 42.8595C113.395 42.6344 113.525 42.4059 113.642 42.1724C113.701 42.4263 113.777 42.6784 113.855 42.9289C113.655 42.9036 113.459 42.8799 113.263 42.8595Z" fill="white"/>
<path d="M83.0559 46.8339C83.4875 46.602 83.9834 46.6053 84.4625 46.6273C85.3899 46.6173 86.3345 46.7729 87.1859 47.1505C88.242 47.8223 89.2068 48.7329 89.6655 49.9212C90.0447 51.1331 90.2291 52.5142 89.6639 53.7007C89.3033 54.63 88.7109 55.461 87.9154 56.0653C86.9066 56.4698 85.9045 56.9607 84.8043 57.0386C83.4265 56.9387 82.0877 56.4055 80.9977 55.5593C80.2462 54.9737 79.9211 54.0358 79.6166 53.1692C79.1595 51.7289 79.6419 50.2157 80.2885 48.9158C80.9503 47.9341 82.0183 47.3451 83.0559 46.8339ZM83.8463 47.8984C82.7071 48.2217 81.5376 48.8836 81.1076 50.0499C80.688 50.8419 80.776 51.7542 80.8133 52.6158C80.9402 53.9597 81.9692 55.0226 83.122 55.6168C83.8345 55.9841 84.6638 55.9315 85.4391 55.8842C86.1738 55.7386 86.8169 55.3121 87.3941 54.8552C88.0694 54.3642 88.3842 53.562 88.7228 52.8308C89.2356 51.0112 88.1151 49.0935 86.5715 48.1693C85.7065 47.8901 84.7452 47.6328 83.8463 47.8984Z" fill="white"/>
<path d="M118.575 48.8519C119.652 48.6708 120.855 48.6624 121.784 49.3259C123.831 50.5089 124.257 53.6588 122.563 55.326C121.171 56.9392 118.443 57.0035 116.954 55.4953C115.816 54.4663 115.559 52.7517 115.979 51.3299C116.361 50.1265 117.399 49.2445 118.575 48.8519ZM116.539 52.6045C116.485 53.7571 117.184 54.8912 118.196 55.4294C118.822 55.8423 119.611 55.8017 120.327 55.7425C120.708 55.6714 121.19 55.5106 121.278 55.0772C121.386 54.4188 121.43 53.5844 120.848 53.1256C120.11 52.4521 118.839 52.9023 118.242 52.0103C117.732 51.4145 117.951 50.6121 118.105 49.9284C117.17 50.4751 116.513 51.5075 116.539 52.6045Z" fill="white"/>
<path d="M46.6175 49.659C47.7161 49.2867 48.9923 49.3899 49.9791 50.0196C50.7864 50.5444 51.4432 51.3331 51.7004 52.2724C52.1963 53.7991 51.5784 55.5798 50.3022 56.5327C49.2648 57.3164 47.8346 57.5466 46.6073 57.1083C44.935 56.526 43.7503 54.7098 44.0092 52.9394C44.1513 51.4684 45.2195 50.1346 46.6175 49.659ZM45.4259 51.4802C44.566 52.55 44.5609 54.2054 45.409 55.2836C46.2502 56.4346 48.0206 56.9525 49.2681 56.1772C49.9824 55.3682 49.5508 53.8838 48.5285 53.5452C47.8819 53.3659 47.105 53.4183 46.6175 52.88C45.9269 52.2302 46.108 51.1249 46.6124 50.419C46.2147 50.7694 45.7476 51.0486 45.4259 51.4802Z" fill="white"/>
<path d="M106.038 72.6377C107.937 73.0489 109.89 72.6242 111.808 72.8492C113.059 73.1235 114.211 74.2592 114.073 75.6132C114.103 77.0283 112.702 78.1726 111.322 77.9541C111.297 78.5923 111.209 79.2608 110.813 79.7872C110.235 80.5404 109.22 81.0144 108.274 80.7538C107.141 80.5303 106.364 79.4961 106.08 78.4314C105.933 77.3312 106.062 76.2192 106.068 75.1139C106.092 74.288 106.026 73.4638 106.038 72.6377ZM106.672 73.3452C106.703 74.332 106.732 75.3205 106.617 76.3038C106.52 77.3296 106.52 78.4653 107.177 79.3217C107.82 80.334 109.46 80.5133 110.213 79.53C110.846 78.8936 110.677 77.9186 110.41 77.1535C110.987 77.2737 111.591 77.536 112.179 77.3177C113.111 76.991 113.707 75.9163 113.401 74.9582C113.103 73.958 112.026 73.4179 111.046 73.3469C109.587 73.2588 108.128 73.6312 106.672 73.3452Z" fill="white"/>
<path d="M54.7182 75.6251C54.5691 74.2948 55.7134 73.1793 56.9219 72.8627C58.8482 72.5988 60.8199 73.0726 62.7275 72.6343C62.8021 73.4079 62.6785 74.1814 62.714 74.9548C62.7056 76.2327 63.0254 77.5497 62.5922 78.7902C62.2706 79.7568 61.4581 80.5862 60.4375 80.7724C59.4642 80.9874 58.4435 80.4677 57.8969 79.6654C57.5634 79.1592 57.5312 78.5347 57.4585 77.9507C56.0858 78.181 54.6978 77.0214 54.7182 75.6251ZM55.4256 74.8432C54.9348 75.9535 55.859 77.3245 57.0404 77.399C57.5126 77.4532 57.9527 77.2364 58.3827 77.0722C58.2591 77.6309 58.0745 78.1979 58.1745 78.7768C58.4029 79.662 59.3204 80.339 60.2462 80.1715C61.431 80.0191 62.1673 78.7784 62.1876 77.6596C62.2163 76.2108 62.0099 74.7653 62.1198 73.3164C60.7759 73.6482 59.4101 73.2927 58.0525 73.33C56.9964 73.3131 55.8556 73.8326 55.4256 74.8432Z" fill="white"/>
<path d="M69.3398 79.3608C69.5361 79.205 69.6495 79.2474 69.6801 79.4895C69.4853 79.6435 69.3719 79.6011 69.3398 79.3608Z" fill="white"/>
<path d="M125.563 80.4642C125.693 80.2053 125.889 79.9887 126.087 79.7788C126.136 80.3153 125.977 80.8315 125.737 81.3037C125.656 81.0347 125.439 80.752 125.563 80.4642Z" fill="white"/>
<path d="M68.0069 80.3745C68.5468 80.2968 69.1036 80.2917 69.608 80.0581C69.6435 80.1917 69.7163 80.4575 69.7518 80.5895C69.3017 80.471 68.8429 80.3424 68.3742 80.3745C68.3352 80.4524 68.2557 80.6099 68.2167 80.6878C68.3318 80.6657 68.5637 80.62 68.6787 80.5962C68.6432 80.8399 68.6382 81.0855 68.6567 81.3309C68.4707 81.3105 68.2845 81.2954 68.0999 81.2835C68.3234 81.4443 68.5602 81.5865 68.7889 81.7456C68.7803 81.8928 68.7617 82.1857 68.7532 82.333C68.3979 82.0503 68.1152 81.6948 67.8037 81.3664C67.9628 81.2089 68.1219 81.0498 68.2777 80.8874C68.1829 80.7182 68.0931 80.5456 68.0069 80.3745Z" fill="white"/>
<path d="M83.0102 85.8922C84.2746 85.6282 85.6744 85.9362 86.6121 86.8519C88.2352 88.2772 88.2556 91.0987 86.6765 92.5628C85.974 93.2754 84.9703 93.7003 83.9666 93.6681C82.5837 93.7374 81.2567 92.9132 80.5475 91.752C79.9923 90.7585 79.8366 89.5314 80.2242 88.4532C80.6203 87.1803 81.7425 86.2308 83.0102 85.8922ZM81.1671 88.2517C80.3612 89.6583 80.8944 91.6759 82.3467 92.441C83.0763 92.9605 84.0343 92.9352 84.8755 92.7608C85.9283 92.4222 85.8166 90.8466 85.099 90.2151C84.4016 89.5279 83.1998 89.9934 82.5837 89.1826C81.9659 88.575 82.2012 87.6796 82.3993 86.9484C81.9169 87.3039 81.4412 87.7067 81.1671 88.2517Z" fill="white"/>
<path d="M118.087 89.139C118.18 89.1153 118.366 89.0661 118.458 89.0425C118.422 89.2134 118.388 89.386 118.354 89.5604C118.271 89.574 118.105 89.5977 118.022 89.6112C118.043 89.4521 118.063 89.2946 118.087 89.139Z" fill="white"/>
<path d="M108.845 95.2357C109.112 94.5569 109.808 94.2016 110.514 94.2862C109.974 94.6297 109.464 95.0428 108.845 95.2357Z" fill="white"/>
<path d="M109.194 96.4274C110.166 95.3543 111.593 94.9684 112.881 94.4199C112.387 94.7467 111.936 95.1377 111.427 95.4389C111.141 95.5168 110.838 95.4626 110.548 95.5117C110.051 95.7469 109.695 96.1973 109.194 96.4274Z" fill="white"/>
<path d="M112.718 95.5943C113.021 95.3473 113.268 95.0409 113.563 94.7837C113.06 95.4387 112.424 95.9837 111.784 96.4999C111.515 96.774 111.129 96.6776 110.788 96.6708C110.785 96.5321 110.785 96.395 110.785 96.2578C111.467 96.1817 112.139 95.9651 112.718 95.5943Z" fill="white"/>
<path d="M104.852 97.3733C105.287 97.2548 105.709 97.0924 106.141 96.9653C105.565 97.2498 105 97.5697 104.389 97.7761C104.455 97.5527 104.624 97.4055 104.852 97.3733Z" fill="white"/>
<path d="M106.209 97.4291C106.608 97.2616 107.028 97.1448 107.438 97.001C107.172 97.4444 106.693 97.5342 106.209 97.4291Z" fill="white"/>
<path d="M0.476562 124.946C5.01951 121.107 9.52351 117.221 14.0614 113.379C16.5106 115.314 18.8108 117.429 21.216 119.418C23.4113 121.249 25.5491 123.145 27.7528 124.965C25.4695 124.95 23.1845 124.987 20.8994 124.945C20.8352 125.312 20.7642 125.679 20.7725 126.055C20.7827 129.469 20.7642 132.881 20.7827 136.295C16.3058 136.276 11.8288 136.298 7.35191 136.283C7.37391 132.585 7.35529 128.887 7.36037 125.19C7.30791 125.132 7.19958 125.019 7.14541 124.963C4.92303 124.95 2.69894 124.985 0.476562 124.946ZM4.70299 122.296C3.95655 122.959 3.11702 123.524 2.46028 124.284C4.27814 124.333 6.09769 124.298 7.91724 124.305C7.91555 128.086 7.89354 131.867 7.92909 135.647C11.9862 135.649 16.0468 135.675 20.1039 135.635L20.2157 135.544C20.2241 131.801 20.2173 128.059 20.2173 124.316C22.0522 124.278 23.8886 124.354 25.7216 124.274C21.8642 120.896 17.9645 117.565 14.0546 114.249C10.9724 116.971 7.80045 119.589 4.70299 122.296Z" fill="#EB1C22"/>
<path d="M13.8194 116.198C14.0259 116.031 14.312 116.142 14.4745 116.317C17.1048 118.573 19.7655 120.794 22.3722 123.077C21.0367 123.096 19.6994 123.075 18.3624 123.087C18.3759 124.46 18.3488 125.833 18.3793 127.205C15.5036 127.195 12.6278 127.204 9.7521 127.202C9.7775 125.828 9.75888 124.455 9.76226 123.08C8.4268 123.086 7.09132 123.089 5.75586 123.08C7.51955 121.606 9.22909 120.068 11.0131 118.619C11.9728 117.838 12.8513 116.965 13.8194 116.198Z" fill="#EB1C22"/>
<path d="M146.142 119.213C146.815 119.169 147.509 119.132 148.181 119.233C148.799 119.758 149.361 120.347 149.979 120.872C149.403 121.051 148.781 121.161 148.187 121.022C147.633 120.777 147.257 120.269 146.787 119.907C146.433 120.266 146.083 120.638 145.654 120.909C145.251 121.149 144.757 121.056 144.315 121.058C144.778 120.323 145.456 119.734 146.142 119.213Z" fill="white"/>
<path d="M66.5978 121.566C67.0564 121.417 67.5761 121.386 67.9536 121.745C70.3774 123.905 72.6708 126.207 75.0997 128.36C75.1504 126.154 75.1048 123.949 75.1284 121.743C76.1305 121.743 77.1308 121.742 78.1329 121.739C78.1396 126.004 78.1294 130.271 78.138 134.536C78.1481 134.855 78.0974 135.171 77.9991 135.474C77.5065 135.508 76.9446 135.535 76.5994 135.113C75.1251 133.653 73.5764 132.27 72.1054 130.807C71.2508 130.008 70.4755 129.127 69.5429 128.417C69.4921 130.665 69.5327 132.913 69.5209 135.163C68.5137 135.164 67.5084 135.176 66.503 135.154C66.4555 131.109 66.5014 127.062 66.4793 123.016C66.464 122.529 66.5132 122.045 66.5978 121.566Z" fill="white"/>
<path d="M95.6885 121.569C96.1201 121.467 96.6195 121.33 96.9835 121.68C98.3662 122.881 99.6628 124.177 100.988 125.44C102.107 126.383 103.095 127.466 104.211 128.414C104.224 126.188 104.197 123.962 104.223 121.738C105.223 121.743 106.223 121.74 107.224 121.741C107.208 125.665 107.22 129.587 107.217 133.51C107.203 134.165 107.286 134.837 107.093 135.475C106.647 135.487 106.127 135.556 105.787 135.198C103.378 132.972 101.066 130.643 98.6506 128.424C98.6083 130.67 98.6422 132.918 98.632 135.164C97.6215 135.164 96.6127 135.172 95.6023 135.157C95.587 130.995 95.6057 126.833 95.5939 122.671C95.5853 122.3 95.6277 121.933 95.6885 121.569Z" fill="white"/>
<path d="M152.578 121.606C152.999 121.486 153.466 121.349 153.859 121.635C154.6 122.192 155.217 122.893 155.902 123.516C157.681 125.103 159.34 126.823 161.152 128.372C161.212 126.161 161.139 123.949 161.188 121.738C162.175 121.744 163.16 121.744 164.148 121.738C164.321 123.397 164.184 125.073 164.228 126.74C164.225 129.394 164.233 132.05 164.225 134.705C164.209 135.036 164.096 135.565 163.654 135.492C163.119 135.57 162.691 135.198 162.336 134.854C161.198 133.732 160.062 132.603 158.881 131.525C157.771 130.508 156.747 129.401 155.614 128.409C155.57 130.657 155.612 132.906 155.589 135.154C154.578 135.174 153.57 135.164 152.561 135.164C152.568 130.645 152.534 126.124 152.578 121.606Z" fill="white"/>
<path d="M33.5869 122.082C34.1658 121.701 34.8699 121.638 35.5452 121.659C38.1703 121.677 40.7974 121.632 43.4243 121.684C43.2736 122.737 42.6694 123.774 41.652 124.189C40.9818 124.541 40.2134 124.446 39.4855 124.448C39.4737 128.02 39.4873 131.593 39.4788 135.164C38.3194 135.164 37.1599 135.171 36.0005 135.159C35.9819 131.593 36.0056 128.025 35.9887 124.458C34.6735 124.445 33.3583 124.477 32.0449 124.438C32.226 123.488 32.7168 122.561 33.5869 122.082Z" fill="white"/>
<path d="M43.8785 121.703C45.7301 121.713 47.5819 121.706 49.4352 121.704C50.7165 121.723 52.1214 122.012 53.0811 122.92C54.0797 123.866 54.0375 125.371 53.8495 126.628C53.7395 127.249 53.2775 127.72 52.7882 128.08C52.025 128.597 51.1448 128.901 50.2596 129.128C50.9552 129.663 51.7202 130.127 52.2889 130.809C53.0946 131.777 53.7057 132.886 54.4403 133.906C54.7263 134.338 55.1292 134.727 55.185 135.269C53.5651 135.414 51.6662 135.438 50.4287 134.204C49.4488 133.047 48.7125 131.708 47.9001 130.433C47.7731 130.222 47.5581 130.091 47.3702 129.944C47.2705 131.679 47.3466 133.422 47.3313 135.16C46.1719 135.166 45.0142 135.176 43.8564 135.154C43.8785 130.67 43.8344 126.186 43.8785 121.703ZM47.3212 123.771C47.3263 125.023 47.3296 126.274 47.3194 127.527C48.0812 127.491 48.9275 127.706 49.6045 127.254C50.5744 126.726 50.8993 125.196 50.031 124.433C49.2998 123.754 48.2573 123.749 47.3212 123.771Z" fill="white"/>
<path d="M55.0832 121.684C56.2274 121.638 57.3749 121.664 58.5208 121.667C58.5292 124.998 58.5157 128.331 58.5276 131.662C58.602 131.999 58.548 132.471 58.8966 132.664C59.4501 133.025 60.1508 132.861 60.7737 132.876C61.3187 132.866 61.7707 132.378 61.6995 131.83C61.708 128.446 61.708 125.063 61.6978 121.679C62.837 121.642 63.976 121.672 65.1151 121.657C65.1304 125.156 65.117 128.656 65.1219 132.155C65.1423 132.986 64.902 133.891 64.2418 134.441C63.5613 135.007 62.6355 135.122 61.7825 135.123C60.6517 135.119 59.5211 135.13 58.3921 135.12C57.2903 135.098 56.1579 134.6 55.5588 133.648C55.2135 133.045 55.0695 132.346 55.0815 131.657C55.0781 128.333 55.0781 125.008 55.0832 121.684Z" fill="white"/>
<path d="M80.5252 122.304C81.407 121.634 82.5665 121.664 83.6192 121.659C85.8586 121.679 88.098 121.627 90.3355 121.688C90.0799 122.658 89.4723 123.633 88.4567 123.92C86.7067 124.064 84.9328 123.827 83.1876 124.047C83.1183 126.862 83.1538 129.68 83.1725 132.497C83.4754 132.603 83.7818 132.739 84.1136 132.718C85.0427 132.713 85.9704 132.724 86.8996 132.703C86.8844 131.463 86.8945 130.222 86.8978 128.983C85.9145 128.949 84.9242 129.042 83.9476 128.885C84.0086 127.658 85.1139 126.635 86.3208 126.566C87.6427 126.463 88.973 126.554 90.3 126.524C90.3169 129.393 90.3118 132.263 90.3035 135.134C87.9066 135.112 85.51 135.127 83.1132 135.124C82.2567 135.124 81.3564 134.959 80.664 134.426C79.987 133.88 79.7026 132.978 79.6468 132.14C79.6298 129.66 79.6366 127.179 79.64 124.701C79.6435 123.841 79.8026 122.861 80.5252 122.304Z" fill="white"/>
<path d="M109.333 122.49C110.115 121.665 111.34 121.674 112.393 121.658C114.715 121.686 117.041 121.615 119.363 121.697C119.104 122.727 118.417 123.783 117.288 123.945C115.995 123.982 114.698 123.95 113.403 123.957C112.985 123.966 112.53 123.893 112.169 124.152C112.036 125.741 112.146 127.346 112.11 128.94C112.129 130.138 112.063 131.339 112.164 132.533C113.38 132.882 114.663 132.649 115.908 132.711C115.905 131.465 115.907 130.22 115.905 128.976C114.91 128.957 113.906 129.043 112.921 128.859C113.107 127.652 114.116 126.655 115.34 126.545C116.657 126.479 117.977 126.56 119.295 126.506C119.399 129.378 119.305 132.258 119.351 135.133C116.919 135.11 114.487 135.128 112.054 135.123C111.174 135.108 110.223 134.935 109.57 134.302C108.887 133.679 108.657 132.716 108.652 131.824C108.652 129.506 108.647 127.187 108.654 124.868C108.7 124.045 108.711 123.113 109.333 122.49Z" fill="white"/>
<path d="M120.779 121.668C121.922 121.657 123.064 121.657 124.209 121.668C124.217 124.713 124.21 127.759 124.212 130.804C124.222 131.346 124.266 131.889 124.327 132.431C124.765 133.052 125.632 132.863 126.285 132.888C126.893 132.927 127.477 132.419 127.391 131.788C127.419 128.413 127.399 125.034 127.401 121.659C128.559 121.669 129.716 121.647 130.876 121.674C130.821 124.887 130.862 128.101 130.854 131.314C130.872 132.334 130.81 133.484 130.075 134.274C129.269 135.098 128.03 135.149 126.951 135.125C125.729 135.073 124.489 135.232 123.281 135.022C121.912 134.804 120.832 133.534 120.793 132.157C120.771 128.66 120.796 125.165 120.779 121.668Z" fill="white"/>
<path d="M131.134 121.737C132.369 121.757 133.605 121.718 134.841 121.752C135.352 122.334 135.572 123.116 135.966 123.78C136.421 124.638 136.863 125.501 137.322 126.359C138.062 124.826 138.739 123.264 139.495 121.739C140.352 121.745 141.208 121.734 142.065 121.747C141.037 124.183 139.835 126.544 138.74 128.949C138.624 131.009 138.713 133.086 138.695 135.151C137.41 135.173 136.125 135.18 134.842 135.149C134.844 133.133 134.875 131.117 134.829 129.105C133.685 126.61 132.288 124.228 131.134 121.737Z" fill="white"/>
<path d="M142.719 121.674C145.756 121.666 148.796 121.622 151.832 121.688C151.753 123.115 150.526 124.343 149.106 124.443C148.129 124.477 147.149 124.443 146.172 124.464C146.181 125.262 146.167 126.063 146.177 126.865C147.372 126.92 148.593 126.723 149.767 126.991C149.558 127.86 149.158 128.761 148.305 129.169C147.675 129.609 146.897 129.577 146.167 129.565C146.184 130.501 146.169 131.439 146.176 132.376C148.159 132.412 150.145 132.334 152.129 132.417C152.002 133.851 150.783 135.164 149.305 135.157C147.102 135.178 144.898 135.161 142.694 135.166C142.702 130.669 142.652 126.17 142.719 121.674Z" fill="white"/>
<path d="M9.75137 127.813C12.622 127.799 15.4927 127.823 18.3633 127.801C18.3633 128.272 18.3633 128.741 18.3718 129.211C15.4961 129.193 12.6186 129.23 9.74121 129.193C9.76491 128.732 9.76322 128.272 9.75137 127.813Z" fill="#EB1C22"/>
<path d="M9.83562 131.564C9.83731 131.088 9.52249 130.394 9.99471 130.083C12.7858 130.073 15.5803 130.046 18.3714 130.098C18.363 130.584 18.3612 131.073 18.3681 131.562C15.5245 131.556 12.6792 131.552 9.83562 131.564Z" fill="#EB1C22"/>
<path d="M9.86496 132.413C12.7001 132.412 15.5369 132.424 18.372 132.407C18.3602 133.089 18.3567 133.774 18.3788 134.458C15.5149 134.451 12.6493 134.458 9.78372 134.458C9.7651 133.776 9.70417 133.082 9.86496 132.413Z" fill="#EB1C22"/>
<path d="M102.238 143.444C102.629 143.51 102.868 143.128 103.159 142.94C103.246 144.11 103.425 145.281 103.327 146.457C102.856 145.87 102.734 145.079 102.22 144.521C100.986 143.148 98.4995 143.256 97.428 144.776C96.4937 146.054 96.4818 147.725 96.6071 149.24C96.7645 150.045 97.0489 150.883 97.6683 151.457C98.8668 152.615 100.988 152.769 102.26 151.65C102.741 151.268 103.039 150.687 103.591 150.392C103.523 151.134 102.912 151.648 102.42 152.141C101.336 153.151 99.73 153.228 98.3471 152.982C97.0946 152.747 96.0808 151.828 95.4563 150.755C94.3306 148.636 94.7453 145.711 96.6326 144.154C97.8072 143.099 99.4947 142.843 101.006 143.135C101.417 143.229 101.814 143.402 102.238 143.444Z" fill="white"/>
<path d="M7.5453 143.202C10.2044 143.197 12.8634 143.185 15.5225 143.207C15.5073 143.964 15.5852 144.719 15.6021 145.475C15.0757 145.111 15.1857 144.289 14.6102 143.962C13.8858 143.588 13.0361 143.737 12.2524 143.707C12.2575 146.454 12.2253 149.201 12.2693 151.948C12.2474 152.672 13.1393 152.65 13.6302 152.867C12.1763 152.941 10.7138 152.946 9.26159 152.863C9.68474 152.731 10.1333 152.686 10.5361 152.496C10.8205 152.163 10.7731 151.692 10.8103 151.286C10.8154 148.762 10.8171 146.237 10.8086 143.712C9.93694 143.783 8.82659 143.464 8.18172 144.231C7.83811 144.521 7.84658 144.996 7.79918 145.406C7.66039 145.404 7.5216 145.404 7.38281 145.404C7.50468 144.676 7.56222 143.938 7.5453 143.202Z" fill="white"/>
<path d="M18.2031 143.235C19.6605 143.159 21.1246 143.191 22.5852 143.22C22.152 143.372 21.7085 143.484 21.2718 143.624C21.1517 144.018 21.0721 144.43 21.0891 144.848C21.1025 145.83 21.0652 146.813 21.1246 147.796C22.5803 147.783 24.0342 147.786 25.4897 147.795C25.4897 146.501 25.549 145.205 25.4593 143.915C25.1615 143.406 24.4962 143.413 24.0054 143.208C25.4999 143.201 26.9962 143.164 28.489 143.233C28.0727 143.368 27.6275 143.424 27.2365 143.629C26.915 143.947 26.9946 144.428 26.9707 144.839C26.9996 147.294 26.9234 149.75 27.0182 152.202C27.2738 152.7 27.9085 152.666 28.3622 152.874C26.9556 152.944 25.5405 152.938 24.1339 152.877C24.5843 152.676 25.1986 152.698 25.4644 152.216C25.5388 150.916 25.483 149.612 25.5033 148.311C24.0713 148.324 22.6394 148.289 21.2092 148.323L21.1042 148.421C21.0923 149.653 21.0585 150.89 21.1329 152.121C21.304 152.749 22.0842 152.657 22.5768 152.864C21.1262 152.947 19.6638 152.944 18.2133 152.869C18.6433 152.712 19.0918 152.605 19.5352 152.49C19.6638 150.625 19.5691 148.751 19.5979 146.882C19.5673 145.862 19.6689 144.833 19.5352 143.819C19.2119 143.414 18.6449 143.428 18.2031 143.235Z" fill="white"/>
<path d="M30.9083 143.233C33.442 143.157 35.9792 143.204 38.5131 143.209C38.5096 143.964 38.5961 144.722 38.5198 145.477C38.1712 145.171 38.1559 144.68 37.9646 144.287C37.748 143.92 37.3215 143.742 36.9101 143.736C35.8692 143.687 34.8266 143.703 33.7839 143.707C33.789 145.008 33.8008 146.312 33.7789 147.613C34.8808 147.586 36.0114 147.749 37.0863 147.431C37.2317 146.987 37.3706 146.54 37.6042 146.134C37.7802 147.216 37.6482 148.319 37.699 149.411C37.616 149.402 37.4502 149.384 37.3655 149.374C37.3131 148.92 37.1793 148.367 36.6563 148.265C35.7254 148.025 34.7419 148.185 33.7908 148.15C33.8026 149.364 33.7704 150.577 33.7959 151.792C33.772 152.039 33.8991 152.376 34.202 152.361C35.1025 152.417 36.0114 152.407 36.9152 152.37C37.5416 152.353 38.0511 151.931 38.3844 151.432C38.6603 151.051 38.8194 150.558 39.2663 150.337C39.1817 151.234 38.767 152.051 38.5131 152.906C35.9353 152.886 33.3541 152.984 30.7812 152.859C31.2553 152.734 31.7358 152.635 32.2064 152.498C32.3047 152.043 32.4028 151.583 32.391 151.117C32.3842 149.025 32.3875 146.935 32.3875 144.844C32.3942 144.423 32.2826 144.017 32.2031 143.609C31.7748 143.472 31.333 143.379 30.9083 143.233Z" fill="white"/>
<path d="M54.4622 143.255C55.6793 143.14 56.9063 143.199 58.1267 143.211C57.6088 143.436 56.7201 143.407 56.7032 144.164C56.5508 147.161 56.7489 150.176 56.6067 153.175C56.3546 152.997 56.121 152.799 55.9246 152.564C53.9443 150.215 52.0656 147.777 50.0445 145.465C50.0057 147.662 49.9937 149.863 50.053 152.058C50.1377 152.764 51.0092 152.656 51.5155 152.862C50.2967 152.952 49.0662 152.941 47.8459 152.864C48.252 152.725 48.6956 152.691 49.0746 152.479C49.4352 152.114 49.3032 151.572 49.3353 151.114C49.31 148.917 49.3793 146.715 49.3014 144.519C48.9173 143.771 48.0252 143.671 47.3262 143.392C47.4194 143.345 47.6072 143.25 47.7019 143.202C48.4975 143.184 49.2963 143.194 50.092 143.216C51.1785 144.592 52.3042 145.936 53.4111 147.297C54.2676 148.304 55.0327 149.389 55.9483 150.347C55.9636 148.248 55.994 146.146 55.9297 144.049C55.8045 143.361 54.9852 143.422 54.4622 143.255Z" fill="white"/>
<path d="M64.2237 143.263C65.6472 142.817 67.3093 142.955 68.5109 143.896C70.664 145.406 71.0821 148.617 69.7753 150.811C69.0526 151.955 67.8745 152.849 66.5171 153.052C65.6166 153.123 64.6687 153.146 63.8359 152.742C62.0233 151.992 60.8519 150.018 60.9941 148.07C60.8062 145.972 62.2415 143.917 64.2237 143.263ZM64.5876 143.768C63.0845 144.501 62.614 146.349 62.6919 147.896C62.6172 149.267 62.8797 150.735 63.8225 151.786C64.4301 152.498 65.4542 152.664 66.3376 152.512C67.3837 152.265 68.2402 151.41 68.5313 150.379C68.9054 149.365 68.7936 148.27 68.7852 147.214C68.6684 146.019 68.2926 144.683 67.2416 143.976C66.4629 143.494 65.4322 143.438 64.5876 143.768Z" fill="white"/>
<path d="M80.499 144.292C81.3183 143.713 82.2611 143.322 83.1971 142.974C83.2512 146.008 83.192 149.045 83.2291 152.078C83.2987 152.701 84.0756 152.647 84.5223 152.86C83.2461 152.95 81.958 152.933 80.6801 152.875C81.0491 152.743 81.435 152.667 81.7938 152.508C81.9343 152.298 82.0004 152.051 81.9851 151.802C81.9886 149.708 81.9851 147.615 81.9868 145.521C81.9953 145.084 81.9005 144.656 81.8158 144.233C81.3741 144.203 80.9374 144.272 80.499 144.292Z" fill="white"/>
<path d="M110.405 143.121C111.496 142.96 112.696 142.957 113.676 143.541C114.991 144.248 115.909 145.604 116.168 147.063C116.281 148.219 116.235 149.444 115.668 150.489C114.859 152.043 113.17 153.204 111.378 153.084C109.717 153.185 108.147 152.163 107.331 150.756C106.263 148.769 106.459 146.069 108.07 144.424C108.712 143.788 109.523 143.327 110.405 143.121ZM110.577 143.664C108.94 144.223 108.331 146.149 108.4 147.728C108.338 149.179 108.536 150.795 109.619 151.867C110.706 152.984 112.713 152.713 113.634 151.515C114.558 150.362 114.556 148.79 114.501 147.386C114.424 146.271 114.137 145.076 113.319 144.265C112.61 143.563 111.51 143.441 110.577 143.664Z" fill="white"/>
<path d="M119.049 143.212C121.476 143.173 123.906 143.207 126.335 143.195C126.349 143.947 126.418 144.7 126.364 145.452C125.851 144.968 125.802 144.067 125.034 143.85C123.986 143.607 122.888 143.715 121.82 143.725C121.848 144.986 121.841 146.249 121.823 147.51C122.664 147.65 123.61 147.769 124.409 147.408C124.726 147.051 124.758 146.528 125.107 146.191C125.22 147.303 125.193 148.432 125.123 149.549C124.71 149.174 124.782 148.425 124.176 148.244C123.49 148.056 122.749 148.16 122.043 148.15L121.931 148.248C121.916 149.578 121.902 150.912 121.952 152.241C122.253 152.677 122.849 152.672 123.299 152.874C121.846 152.936 120.384 152.953 118.934 152.862C119.438 152.669 120.279 152.743 120.413 152.085C120.459 149.453 120.45 146.819 120.42 144.187C120.426 143.466 119.533 143.454 119.049 143.212Z" fill="white"/>
<path d="M129.392 143.202C131.818 143.185 134.247 143.204 136.674 143.195C136.688 143.945 136.767 144.698 136.684 145.448C136.202 144.927 136.109 143.984 135.305 143.827C134.304 143.637 133.277 143.715 132.265 143.707C132.265 145.007 132.26 146.307 132.268 147.608C132.966 147.605 133.67 147.672 134.364 147.581C135.051 147.437 135.093 146.626 135.437 146.137C135.608 147.217 135.462 148.316 135.528 149.402C135.447 149.394 135.284 149.373 135.201 149.365C135.161 148.891 135.012 148.329 134.484 148.204C133.751 148.09 133.003 148.163 132.265 148.138C132.288 149.534 132.206 150.939 132.319 152.332C132.725 152.678 133.275 152.71 133.768 152.86C132.273 152.943 130.764 152.96 129.271 152.852C129.682 152.72 130.139 152.723 130.518 152.496C130.838 152.246 130.747 151.816 130.774 151.464C130.775 149.054 130.796 146.642 130.764 144.231C130.826 143.48 129.887 143.453 129.392 143.202Z" fill="white"/>
<path d="M139.576 143.223C142.11 143.163 144.647 143.214 147.183 143.194C147.205 143.925 147.228 144.656 147.305 145.384C146.859 145.308 146.89 144.807 146.732 144.482C146.614 144.118 146.286 143.788 145.891 143.761C144.752 143.661 143.606 143.707 142.465 143.715C142.479 145.015 142.477 146.315 142.464 147.617C143.373 147.598 144.29 147.674 145.196 147.581C145.893 147.522 145.976 146.721 146.304 146.258C146.441 147.288 146.328 148.331 146.382 149.369C146.301 149.374 146.138 149.382 146.057 149.387C146 149.04 145.896 148.707 145.776 148.38C144.713 148.008 143.576 148.17 142.474 148.155C142.518 149.543 142.372 150.943 142.584 152.322C143.687 152.441 144.806 152.414 145.911 152.346C146.942 152.095 147.201 150.921 147.934 150.305C147.897 151.22 147.457 152.046 147.205 152.913C144.662 152.882 142.117 152.977 139.578 152.864C140.126 152.671 140.956 152.706 141.044 151.958C141.113 150.098 141.055 148.235 141.074 146.374C141.045 145.447 141.186 144.492 140.874 143.599C140.443 143.465 140.003 143.365 139.576 143.223Z" fill="white"/>
<path d="M150.866 143.226C153.362 143.153 155.862 143.216 158.36 143.199C158.396 143.947 158.55 144.695 158.447 145.447C158.047 145.122 158.01 144.584 157.751 144.172C157.485 143.781 156.968 143.747 156.541 143.72C155.574 143.698 154.606 143.697 153.64 143.708C153.67 145.015 153.608 146.324 153.677 147.63C154.611 147.578 155.558 147.696 156.487 147.562C157.076 147.515 157.152 146.857 157.315 146.411C157.396 146.415 157.56 146.423 157.643 146.427C157.631 147.407 157.624 148.389 157.641 149.37C157.55 149.372 157.367 149.374 157.277 149.374C157.15 148.95 157.1 148.331 156.555 148.258C155.605 148.041 154.613 148.17 153.647 148.157C153.687 149.529 153.548 150.914 153.76 152.278C154.74 152.49 155.757 152.373 156.754 152.376C157.396 152.393 157.904 151.923 158.254 151.433C158.545 151.049 158.699 150.511 159.205 150.345C159.022 151.215 158.643 152.028 158.44 152.893C155.879 152.914 153.313 152.95 150.754 152.876C151.277 152.644 152.186 152.721 152.23 151.967C152.286 150.047 152.238 148.124 152.254 146.205C152.23 145.337 152.36 144.441 152.056 143.609C151.656 143.485 151.252 143.378 150.866 143.226Z" fill="white"/>
<path d="M163.692 143.07C163.995 143.038 164.392 142.948 164.603 143.248C164.939 143.573 164.8 144.089 164.824 144.509C164.693 146.411 164.354 148.295 164.23 150.201C164.129 150.194 163.926 150.181 163.824 150.176C163.716 148.395 163.465 146.628 163.261 144.859C163.239 144.24 163.039 143.443 163.692 143.07Z" fill="white"/>
<path d="M74.5665 151.501C74.8035 151.301 75.1301 151.398 75.3754 151.528C75.951 151.794 75.8951 152.718 75.3873 153.031C75.0674 153.091 74.7407 153.055 74.4209 153.052C74.1788 152.578 73.9774 151.801 74.5665 151.501Z" fill="white"/>
<path d="M163.605 151.54C164.125 151.134 164.955 151.652 164.808 152.299C164.925 153.009 164.02 153.294 163.526 152.952C163.092 152.629 163.098 151.798 163.605 151.54Z" fill="white"/>
</svg>
