<svg width="63" height="63" viewBox="0 0 63 63" fill="none" xmlns="http://www.w3.org/2000/svg">
<g clip-path="url(#clip0_2963_3310)">
<path d="M33.4206 62.9999C32.1117 62.9999 30.8029 62.9999 29.494 62.9999C29.3195 62.9999 29.145 62.9127 28.9704 62.9127C27.6616 62.7381 26.3527 62.6509 25.0438 62.3891C9.16296 58.9861 -1.74424 43.9778 0.262683 27.8351C1.22252 19.1966 5.23637 12.216 12.0425 6.80601C19.1976 1.13427 27.4871 -0.959914 36.5619 0.436208C42.5826 1.39604 47.9053 3.92651 52.4427 8.02762C57.8527 12.914 61.2558 18.9348 62.5646 26.0899C62.7391 27.2243 62.9137 28.3586 63.0882 29.5803C63.0882 30.8891 63.0882 32.198 63.0882 33.5068C63.0882 33.6814 63.0009 33.7686 63.0009 33.9431C62.6519 38.8296 61.2558 43.367 58.7253 47.5553C53.7516 55.7575 46.5092 60.8185 37.0854 62.5636C35.7765 62.7381 34.6422 62.8254 33.4206 62.9999ZM45.5494 48.5152C45.6367 48.3406 45.7239 48.3406 45.7239 48.2534C47.12 43.4542 48.6034 38.655 49.9995 33.9431C50.7849 31.2381 50.8721 28.5332 49.9123 25.8282C49.3015 24.1703 48.3416 22.6869 47.5563 21.029C46.9455 19.8074 46.1602 18.4985 45.8112 17.1897C44.9386 14.3102 46.422 11.5179 49.0397 10.7326C49.476 10.5581 49.9995 10.5581 50.4358 10.4708C37.958 -1.13443 16.9289 1.4833 7.94136 15.9681C8.20313 15.9681 8.37764 16.0553 8.55216 15.9681C11.3444 15.8808 14.2239 15.7063 17.0161 15.619C17.8887 15.619 18.4123 15.9681 18.4123 16.7534C18.4123 17.4514 17.976 17.8877 17.1907 17.975C16.2308 18.0622 15.1837 18.1495 14.1366 18.2368C17.5397 28.4459 20.9427 38.5678 24.433 48.7769C24.5203 48.6024 24.6076 48.5152 24.6076 48.4279C26.6145 42.4944 28.5342 36.5609 30.5411 30.6273C30.6283 30.4528 30.6283 30.1911 30.5411 30.0165C29.145 26.2645 27.7488 22.4251 26.44 18.673C26.3527 18.324 26.1782 18.2368 25.8292 18.2368C25.0438 18.1495 24.1713 18.0622 23.386 17.975C22.6006 17.8877 22.2516 17.4514 22.2516 16.7534C22.2516 16.0553 22.7752 15.619 23.4732 15.619C23.8222 15.619 24.1713 15.7063 24.5203 15.7063C27.4871 15.7935 30.5411 15.8808 33.5078 15.8808C35.1657 15.8808 36.8236 15.7063 38.3943 15.619C39.0051 15.619 39.4414 15.7935 39.6159 16.4044C39.8776 17.1897 39.4414 17.8877 38.4815 17.975C37.4344 18.0622 36.4746 18.1495 35.4275 18.2368C38.8306 28.3586 42.1463 38.3933 45.5494 48.5152ZM40.8375 58.2008C37.8707 50.173 34.9912 42.1454 32.0245 34.1176C31.9372 34.1176 31.9372 34.1176 31.8499 34.1176C29.0577 42.2326 26.2655 50.4348 23.386 58.5498C29.4067 60.2949 35.0785 60.2077 40.8375 58.2008ZM19.1103 56.8919C14.5729 44.5886 10.1228 32.2852 5.67266 19.9819C-0.697151 34.2922 5.84717 50.6966 19.1103 56.8919ZM45.8112 55.7575C45.8984 55.7575 45.8984 55.8448 45.9857 55.8448C53.2281 51.3074 57.8527 44.9376 59.3361 36.3863C60.4704 30.0165 59.5106 23.9085 56.3693 18.2368C56.7184 21.7271 56.2821 25.1301 55.1477 28.4459C53.0536 34.5539 50.9594 40.662 48.7779 46.77C47.8181 49.7368 46.8583 52.7908 45.8112 55.7575Z" fill="#55B1EC"/>
</g>
<defs>
<clipPath id="clip0_2963_3310">
<rect width="63" height="63" fill="white"/>
</clipPath>
</defs>
</svg>
