<svg width="78" height="50" viewBox="0 0 78 50" fill="none" xmlns="http://www.w3.org/2000/svg">
<g clip-path="url(#clip0_2994_1131)">
<path d="M32.1675 49.9999C30.889 49.9999 29.7078 49.4647 28.6601 48.4105C23.3837 43.0981 18.1036 37.7875 12.8253 32.4787C12.6883 32.3408 12.5494 32.2138 12.4034 32.0795C12.3366 32.0178 12.2681 31.9543 12.1996 31.8908L11.8335 31.5479L11.6261 32.0051C10.9625 33.462 10.3764 33.9537 9.30529 33.9537C8.9861 33.9537 8.61102 33.9102 8.15839 33.8177C7.40821 33.6671 6.65984 33.5165 5.90967 33.3659C4.61851 33.1064 3.32554 32.8488 2.03437 32.5857C0.474519 32.2682 -0.241392 31.176 0.0723829 29.5884L5.39032 2.64704C5.68065 1.17378 6.43623 0.457112 7.70035 0.457112C7.94199 0.457112 8.20527 0.484327 8.48298 0.536944C9.75792 0.780067 11.0545 1.04133 12.306 1.29534C13.1734 1.46952 14.0408 1.64551 14.9099 1.81606C15.9054 2.01201 16.5347 2.51278 16.8918 3.39274C17.0162 3.69937 17.4328 4.04409 17.8024 4.04591C20.3162 4.05861 22.8823 4.06405 25.434 4.06405C27.7278 4.06405 30.0721 4.05861 32.3984 4.04954C32.8438 4.04772 33.2676 3.75198 33.4299 3.62498C33.9672 3.20405 34.4938 2.7559 35.0023 2.32408C35.2133 2.14446 35.4261 1.96484 35.6389 1.78703C37.0328 0.61859 38.6107 0.00170898 40.1994 0.00170898C41.7882 0.00170898 43.2308 0.562345 44.5977 1.62374C46.1864 2.85569 48.0618 4.2473 50.2294 5.14541C51.9948 5.87659 53.818 6.24853 55.6483 6.24853C57.3218 6.24853 59.0494 5.93828 60.7823 5.32684L61.0348 5.23794L61.0222 4.9676C60.923 2.82122 61.4387 2.15898 63.5252 1.74349C64.2952 1.59108 65.0634 1.43324 65.8316 1.27539C67.056 1.02501 68.3237 0.765553 69.5716 0.529686C69.8277 0.480699 70.0729 0.457112 70.3002 0.457112C71.5336 0.457112 72.3018 1.16653 72.5795 2.56358C73.3586 6.46263 74.1412 10.4306 74.8968 14.2662L75.3801 16.7174C76.0311 20.0122 76.6802 23.3071 77.3276 26.602L77.9281 29.6555C78.2221 31.1469 77.4953 32.2628 76.031 32.5676C74.0366 32.9831 71.9159 33.4058 69.1533 33.941C69.0054 33.9701 68.8557 33.9846 68.7096 33.9846C67.7268 33.9846 66.854 33.3332 66.5403 32.3625C66.5006 32.241 66.4645 32.1176 66.4176 31.9616L66.1544 31.0943L65.7288 31.5261C65.4763 31.782 65.2293 32.0342 64.984 32.2809C64.2411 33.032 63.5396 33.7415 62.8507 34.4781C62.6181 34.7285 62.5586 35.1694 62.6019 35.4724C62.8453 37.1651 62.5063 38.6257 61.6209 39.7016C60.73 40.783 59.3505 41.3944 57.632 41.4706C57.5652 41.4742 57.5111 41.4869 57.4534 41.5015C57.4264 41.5087 57.3939 41.516 57.3543 41.525L57.0657 41.5849V41.8807C57.0765 44.174 56.137 45.7906 54.2706 46.6887C53.5565 47.0334 52.8388 47.2076 52.1409 47.2076C51.0157 47.2076 49.8796 46.754 48.7651 45.8577L48.39 45.5565L48.1141 46.226C48.051 46.3766 47.9933 46.5145 47.9392 46.6542C47.1836 48.5575 45.402 49.7876 43.3967 49.7876C42.1921 49.7876 41.0704 49.3485 40.1544 48.5176C39.5935 48.0095 39.085 47.4217 38.5458 46.7994C38.2825 46.4946 38.0102 46.1807 37.7181 45.8595L37.2961 45.3951L37.1086 45.9956C36.4233 48.1819 35.2404 49.4066 33.3866 49.8529C32.9682 49.9527 32.5553 50.0035 32.1603 50.0035L32.1675 49.9999ZM17.5031 5.81672C16.7114 5.81672 16.6014 6.37735 16.5275 6.7493L16.5221 6.7747C14.9478 14.7452 13.5485 21.7885 12.2411 28.3038C12.1094 28.957 12.2591 29.4414 12.7388 29.9204C16.5419 33.7233 20.3938 37.6024 24.1212 41.3527L27.2157 44.4679L27.9857 45.2445C28.6457 45.9103 29.3273 46.598 30.0054 47.2693C30.6546 47.9116 31.3957 48.2363 32.2054 48.2363C32.4218 48.2363 32.6472 48.2128 32.8708 48.1656C34.0646 47.9134 34.8779 47.184 35.2259 46.0537C35.601 44.8362 35.3341 43.7204 34.4541 42.8278C33.9799 42.3469 33.5038 41.8698 33.0259 41.3926C32.007 40.3729 30.9521 39.3188 29.9513 38.2519C29.697 37.9798 29.5113 37.4881 29.5546 37.2014C29.6123 36.8132 29.8773 36.5827 30.2615 36.5827C30.5518 36.5827 30.8583 36.7224 31.1072 36.9674C32.1928 38.0415 33.2856 39.1464 34.3423 40.2133C34.7931 40.6687 35.244 41.1223 35.6948 41.5758C36.2466 42.131 36.7966 42.6862 37.3466 43.2432C38.5909 44.5024 39.8785 45.8051 41.1642 47.0661C41.7864 47.6757 42.5924 48.0114 43.431 48.0114C44.7762 48.0114 45.9213 47.1822 46.3487 45.8995C46.7725 44.6276 46.4605 43.4573 45.4236 42.4213C43.2308 40.2296 41.0109 37.9925 38.8632 35.828C38.0824 35.0424 37.3033 34.2549 36.5225 33.4693C36.4792 33.4258 36.436 33.384 36.3945 33.3423C36.2755 33.2244 36.1619 33.1137 36.0681 32.9976C35.7453 32.5912 35.7579 32.143 36.1023 31.7983C36.2628 31.6368 36.463 31.5515 36.683 31.5515C36.903 31.5515 37.1104 31.6332 37.3033 31.7856C37.4007 31.8636 37.4945 31.9598 37.5937 32.0596L46.1269 40.6469C46.5074 41.0315 46.8879 41.4162 47.2666 41.8026C48.1412 42.6917 49.0446 43.6116 49.9607 44.4915C50.5847 45.0903 51.3817 45.4205 52.2076 45.4205C53.5727 45.4205 54.7575 44.526 55.156 43.1961C55.5239 41.9659 55.1957 40.8283 54.1768 39.8105C51.1852 36.8168 48.152 33.7596 45.2198 30.8058L42.8196 28.3873L42.7277 28.2966C42.5834 28.1532 42.4464 28.0172 42.3526 27.872C42.0911 27.4656 42.1272 27.1064 42.4608 26.7743C42.6447 26.5911 42.8395 26.4986 43.0378 26.4986C43.2001 26.4986 43.3733 26.5602 43.5518 26.68C43.7051 26.7834 43.8457 26.9286 43.9936 27.0828C44.0351 27.1263 44.0783 27.1699 44.1198 27.2134C45.8961 29.0006 55.3436 38.506 55.3436 38.506C55.5401 38.7037 55.7421 38.9106 55.9765 39.0865C56.5211 39.4948 57.1667 39.7125 57.8466 39.7125C58.768 39.7125 59.6354 39.3097 60.2251 38.6094C61.2891 37.343 61.2079 35.7391 60.0159 34.5216L56.247 30.6698C52.1734 26.5058 47.9627 22.2003 43.8097 17.9765C42.1687 16.3073 40.607 15.2205 38.8975 14.5583C38.5909 14.4385 38.2681 14.3787 37.9579 14.3206C37.8191 14.2952 37.6784 14.268 37.536 14.2371L37.1428 14.1482L37.0996 14.551C37.0455 15.0445 36.995 15.5235 36.9445 15.9898C36.8381 16.9823 36.7389 17.9203 36.6253 18.8601C36.0428 23.6246 33.6408 26.533 29.2787 27.7523C28.8982 27.8593 28.606 27.9101 28.3878 27.9101C28.0037 27.9101 27.7116 27.8194 27.4573 26.6328C27.2247 25.5551 26.9975 24.4774 26.7703 23.3996C26.1806 20.6019 25.5693 17.708 24.8894 14.8812C24.316 12.5008 24.9237 10.6991 26.8027 9.20956C27.5186 8.64167 28.2075 8.05382 28.936 7.42968C29.2714 7.14301 29.6159 6.84909 29.9711 6.54972L30.5662 6.04896L29.8034 5.91288C29.7169 5.89836 29.6519 5.88385 29.5978 5.87296C29.495 5.85119 29.4139 5.83486 29.3219 5.83486H24.7397C22.5505 5.83486 20.0043 5.83486 17.5103 5.82216H17.5013L17.5031 5.81672ZM37.4278 12.5298C37.4873 12.5298 37.5468 12.5316 37.6063 12.5353C38.425 12.5879 39.3032 12.8092 40.149 13.1794C41.8585 13.9269 43.4778 15.1153 45.2433 16.9188L47.4163 19.1377C51.6955 23.5067 56.1208 28.0262 60.4668 32.4769C60.5731 32.5857 60.6633 32.7472 60.7679 32.9341C60.8292 33.0429 60.8941 33.159 60.9699 33.2806L61.2115 33.6689L61.5307 33.3423C61.8878 32.9776 62.234 32.6256 62.5712 32.2845C63.5901 31.2522 64.5512 30.276 65.4709 29.2927C65.7649 28.9788 65.7486 28.4145 65.6927 28.1297C64.4358 21.7032 63.206 15.4909 61.7273 8.03567C61.6948 7.86875 61.6425 7.71635 61.5884 7.55487C61.565 7.48411 61.5397 7.40972 61.5163 7.3317L61.4081 6.97791L61.0582 7.09402C59.1738 7.71816 57.32 8.03386 55.551 8.03386C53.268 8.03386 51.0517 7.5077 48.9599 6.46989C47.2522 5.62258 45.6382 4.47591 44.0765 3.36734L43.5626 3.00265C42.4373 2.20615 41.2399 1.78522 40.1003 1.78522C38.9606 1.78522 37.9345 2.17531 37.0058 2.94459C34.7445 4.81701 32.4633 6.74022 30.256 8.60175C29.3634 9.35471 28.4708 10.1059 27.5763 10.857C26.5791 11.6952 26.2221 12.7711 26.5178 14.0557C26.864 15.5598 27.1904 17.0966 27.506 18.5825C27.6737 19.3718 27.8414 20.161 28.0127 20.9503C28.2381 21.9899 28.469 23.0277 28.6998 24.0655L29.0911 25.8272L29.4464 25.7438C32.0251 25.1396 33.924 23.1202 34.5245 20.3424C34.8346 18.9091 34.9987 17.4304 35.1574 15.9989C35.2079 15.5417 35.2584 15.0826 35.3143 14.6272C35.473 13.3136 36.2646 12.528 37.4296 12.528L37.4278 12.5298ZM69.898 2.30775C69.6257 2.30775 69.2831 2.37489 68.8106 2.46923C67.4744 2.73413 66.1652 3.00265 64.7785 3.28569C64.1924 3.40544 62.6524 3.71932 62.6524 3.71932L68.3165 32.319L76.2691 30.7187L76.2511 30.4049C76.2474 30.3341 76.2456 30.2779 76.2438 30.2289C76.2402 30.1291 76.2384 30.042 76.2204 29.9513L76.1158 29.4233C74.4369 20.9503 72.7562 12.4754 71.0702 4.00236C70.861 2.94641 70.7329 2.30957 69.898 2.30957V2.30775ZM7.91314 2.25695C7.25313 2.25695 7.15214 2.76134 7.00067 3.527C6.26492 7.2428 5.53278 10.9423 4.80064 14.6417C3.99637 18.7041 3.19209 22.7664 2.38782 26.8288C2.23093 27.6198 2.08126 28.4109 1.92798 29.2201C1.85765 29.592 1.64486 30.7042 1.64486 30.7042L9.67857 32.3154L15.3247 3.80097L15.0145 3.70299C14.9442 3.68122 14.8811 3.65945 14.8234 3.63949C14.7008 3.59776 14.5944 3.56147 14.4754 3.53789C13.6783 3.37641 12.8812 3.21675 12.0824 3.05708C10.9643 2.83392 9.84628 2.60894 8.72823 2.38033L8.70479 2.37489C8.34773 2.30231 8.1115 2.25332 7.91133 2.25332L7.91314 2.25695Z" fill="white"/>
</g>
<defs>
<clipPath id="clip0_2994_1131">
<rect width="78" height="50" fill="white"/>
</clipPath>
</defs>
</svg>
