<svg width="60" height="60" viewBox="0 0 60 60" fill="none" xmlns="http://www.w3.org/2000/svg">
<g clip-path="url(#clip0_3523_4428)">
<path d="M18.788 60.0002C17.1717 60.0002 15.5554 59.9941 13.9391 59.9861C13.2854 59.982 12.9766 59.6915 12.8717 58.9852C12.565 56.8989 12.2643 54.7762 11.9758 52.7221L11.324 48.1176C10.8619 44.871 10.4019 41.6245 9.93778 38.3799C9.91761 38.2427 9.87927 38.1297 9.84093 38.0208C9.8268 37.9784 9.81066 37.934 9.79654 37.8836L9.66538 37.4558H6.27543C2.99647 37.4518 0.91811 35.8375 0.0988734 32.6535C0.0786951 32.5748 0.04641 32.5002 0 32.4255V21.0857L0.0706238 20.8597C0.135194 20.6559 0.197747 20.4522 0.260299 20.2484C0.994787 17.8392 3.12561 16.1927 5.56314 16.1503C7.12292 16.1241 8.65445 16.12 10.079 16.12H12.674C13.5638 16.12 14.7362 16.12 15.9025 16.1079C16.5744 16.1019 17.2726 15.9707 17.8698 15.7427C28.8771 11.5216 39.9206 7.27217 50.599 3.15999L58.0972 0.274594C58.1557 0.252399 58.2142 0.228186 58.2727 0.205991C58.4564 0.133351 58.6319 0.06273 58.7954 0.0264103C58.866 0.0102683 58.9386 0.00219727 59.0113 0.00219727C59.4996 0.00219727 59.9152 0.371447 59.9778 0.859744C60 1.04134 60 1.23908 59.998 1.44691V1.61035C59.998 16.0272 59.998 52.1007 59.998 52.1007C59.998 52.1773 59.998 52.256 59.998 52.3327C59.9899 52.7847 59.8567 53.5413 59.0657 53.5413C58.8741 53.5413 58.6622 53.4969 58.4342 53.4122C56.947 52.8513 55.4397 52.2681 53.9849 51.7052L53.8961 51.6709C53.1838 51.3944 52.4695 51.12 51.7572 50.8456C42.5438 47.3024 33.3284 43.7593 24.113 40.2181C23.9536 40.1576 23.7942 40.1011 23.6085 40.0365L23.3119 39.9316L22.3999 39.6067L23.0395 45.3331L23.4653 49.1184C23.8224 52.3004 24.1917 55.5914 24.5468 58.8279C24.5832 59.1689 24.5045 59.4675 24.3249 59.6713C24.1433 59.8751 23.8648 59.984 23.5218 59.9881C22.0145 59.9982 20.4224 60.0042 18.79 60.0042L18.788 60.0002ZM14.7644 37.4235C14.1106 37.4235 13.4448 37.4538 12.8011 37.484L11.8406 37.5284L14.7644 57.9602H22.4241L21.9196 53.4465C21.4131 48.8985 20.8885 44.1951 20.3558 39.5704C20.3033 39.1144 19.9482 38.6907 19.6233 38.507C17.9304 37.5466 16.1365 37.4235 14.7624 37.4235H14.7644ZM57.1569 2.82302L56.9289 2.90171C56.7896 2.95014 56.6766 2.98848 56.5657 3.03287L49.7716 5.64384C39.7108 9.50986 29.3089 13.507 19.0745 17.4275C18.2189 17.7564 18.11 18.3759 18.112 18.8803C18.1301 24.9457 18.1301 29.9336 18.108 34.5765C18.1039 35.4098 18.4268 35.89 19.1855 36.1806C27.7047 39.4433 36.3612 42.7726 44.7352 45.9949L51.8218 48.7209C53.0103 49.179 54.2008 49.6329 55.4115 50.093L57.966 51.0676V2.54053L57.1589 2.82504L57.1569 2.82302ZM9.55036 18.1216C8.41231 18.1216 7.27627 18.1216 6.13822 18.1237C3.59576 18.1277 2.01177 19.7056 2.00168 22.2419C1.99159 25.0486 1.99159 28.0107 2.00168 31.2956C2.00975 33.8924 3.57558 35.4461 6.18867 35.4542C7.31865 35.4582 8.44863 35.4582 9.57861 35.4582C10.7086 35.4582 11.8971 35.4582 13.0573 35.4562H14.712C14.8815 35.4562 15.0429 35.4421 15.2124 35.43C15.2891 35.4239 15.3698 35.4179 15.4545 35.4138L16.0235 35.3795V18.1216H9.55036Z" fill="white"/>
</g>
<defs>
<clipPath id="clip0_3523_4428">
<rect width="60" height="60" fill="white"/>
</clipPath>
</defs>
</svg>
