<svg width="130" height="130" viewBox="0 0 130 130" fill="none" xmlns="http://www.w3.org/2000/svg">
<circle cx="65" cy="65" r="65" fill="#009BFF"/>
<g clip-path="url(#clip0_2984_341)">
<path d="M45.9888 99C45.8757 99 45.7607 98.9753 45.6363 98.9223C45.2292 98.7516 45.0483 98.4198 45.0483 97.8433V86.9325H42.7715C42.3398 86.9325 41.9082 86.9287 41.4766 86.923C41.0431 86.9192 40.6096 86.9135 40.178 86.9135C39.5787 86.9135 39.083 86.9211 38.6155 86.9401C38.5307 86.9439 38.444 86.9458 38.3611 86.9458C35.3115 86.9458 32.6804 84.7708 32.1074 81.7748C32.0905 81.6876 32.049 81.6174 32.0132 81.5586C32.0094 81.551 32.0038 81.5454 32 81.5378V56.4452C32.1244 56.1645 32.2394 55.8744 32.3506 55.5919C32.5994 54.9585 32.8595 54.3043 33.2345 53.7601C34.4332 52.0156 36.2275 51.1225 38.5628 51.1073C40.3608 51.0959 42.1872 51.0941 43.9551 51.0941C44.7335 51.0941 47.2289 51.0922 47.2289 51.0922V50.9025C47.2289 50.51 47.2252 50.1251 47.2195 49.7439C47.2101 48.8869 47.2007 48.0791 47.2402 47.2637C47.2515 47.0229 47.261 46.7821 47.2704 46.5393C47.3119 45.4775 47.3552 44.3815 47.6153 43.3708C48.2561 40.8791 50.7308 39 53.3695 39C64.4011 39.0057 77.4323 39.019 90.4674 39.0607C93.8374 39.0721 96.3158 41.1351 96.934 44.4459C96.9981 44.791 96.9981 45.1627 96.9981 45.5211V45.5609C97.0019 53.1628 97.0019 60.7647 96.9981 68.3686C96.9981 72.0207 94.3632 74.7569 90.735 74.8764C90.605 74.8802 90.4749 74.8821 90.3411 74.8821C90.2299 74.8821 90.1168 74.8821 89.9962 74.8821C89.8624 74.8821 89.721 74.8802 89.5684 74.8802H89.3799V85.3605C89.3799 85.4781 89.3799 85.5938 89.3799 85.7113C89.3893 86.2783 89.3007 86.6689 88.8258 86.8604C88.6995 86.9116 88.5789 86.9382 88.4639 86.9382C88.1755 86.9382 87.9041 86.777 87.5818 86.4186C86.5923 85.315 85.5972 84.2152 84.602 83.1173L83.8029 82.2337C83.4316 81.8222 83.0565 81.4107 82.6607 80.9765L81.8955 80.1346L81.8295 80.5157C81.7975 80.6958 81.773 80.8665 81.7485 81.0315C81.7013 81.3538 81.6542 81.6572 81.5769 81.9417C80.725 85.0723 78.3955 86.8775 75.1838 86.8927C70.4738 86.9154 65.5263 86.9268 60.4807 86.9268H58.0117C57.4934 86.9268 57.1372 87.088 56.7828 87.4843C54.3025 90.249 51.7712 93.0516 49.3229 95.7613L47.261 98.0443C47.1008 98.2226 46.9462 98.3932 46.7879 98.562C46.5052 98.8654 46.2507 99.0057 45.9869 99.0057L45.9888 99ZM45.4686 85.1216C46.6484 85.1216 46.9029 85.3776 46.9029 86.5627C46.9029 88.3983 46.9029 90.2357 46.9029 92.0731V95.6627L47.4664 95.0691C47.5795 94.9516 47.6549 94.8719 47.7284 94.7904L49.6603 92.6496C51.6864 90.4064 53.7804 88.0873 55.8291 85.7948C56.2589 85.315 56.7131 85.1083 57.352 85.1083C59.6345 85.1045 61.9546 85.0875 64.1994 85.0723C66.8362 85.0533 69.5634 85.0344 72.2455 85.0344C73.2161 85.0344 74.1887 85.0363 75.1593 85.042H75.1914C76.5013 85.042 77.7075 84.5508 78.5877 83.6558C79.4679 82.7627 79.9466 81.5416 79.9353 80.2123C79.8788 73.2001 79.8769 65.8257 79.9315 57.672C79.941 56.3333 79.4641 55.1102 78.5896 54.2228C77.7113 53.3335 76.5239 52.8632 75.1537 52.8632H75.1292C63.3795 52.9106 51.8937 52.9542 40.5606 52.9542H38.5552C37.2189 52.9542 36.0014 53.4397 35.1249 54.3252C34.2485 55.2088 33.7868 56.411 33.7905 57.8029C33.7981 61.948 33.7981 66.1614 33.7962 70.2363C33.7962 73.585 33.7962 76.9338 33.7981 80.2825C33.8018 83.214 35.6998 85.114 38.6363 85.1197C39.4882 85.1197 40.3401 85.1216 41.1901 85.1216H44.9955H45.4667H45.4686ZM64.1711 51.0732C68.6474 51.0732 72.319 51.0808 75.7229 51.0959C76.4824 51.0997 77.3419 51.314 78.1429 51.7027C80.5384 52.8613 81.7598 54.8713 81.7692 57.672C81.7805 60.7211 81.7805 63.8233 81.7805 66.8213C81.7805 70.0126 81.7805 73.312 81.7937 76.5564C81.7937 76.9584 81.9784 77.4363 82.2479 77.7472C83.2469 78.8982 84.2891 80.0435 85.2956 81.1528C85.6217 81.5112 85.9477 81.8715 86.2738 82.2299C86.4604 82.4366 86.6507 82.6414 86.8713 82.8803L87.5573 83.6236V80.0644C87.5573 78.1322 87.5554 76.198 87.5573 74.2658C87.5573 73.3727 87.8758 73.0522 88.7673 73.0446C88.9407 73.0446 89.116 73.0427 89.2894 73.0427H90.147H90.49C93.2455 73.0276 95.1793 71.1238 95.1925 68.4122C95.2246 61.1554 95.2246 53.6729 95.1925 45.5419C95.1831 42.8683 93.2927 40.919 90.6992 40.9095C78.0298 40.8602 65.6148 40.8261 53.8011 40.8052C51.0003 40.8052 49.1099 42.709 49.0873 45.5419C49.0798 46.5318 49.0817 47.5387 49.0835 48.5133C49.0835 48.9589 49.0835 49.4026 49.0835 49.8482V51.0808H50.1861C52.0577 51.0808 53.9293 51.077 55.8009 51.0751C58.5903 51.0732 61.3798 51.0694 64.1692 51.0694L64.1711 51.0732Z" fill="white"/>
<path d="M61.576 70.4411C55.4806 70.4411 49.3853 70.4411 43.2881 70.4373C42.945 70.4373 42.6793 70.4108 42.4531 70.352C42.0554 70.2496 41.8443 69.9804 41.8274 69.5518C41.8085 69.0929 42.0102 68.7971 42.423 68.672C42.7 68.5885 43.0091 68.5772 43.2485 68.5772C46.07 68.5734 48.8934 68.5734 51.7149 68.5734H70.4909C71.9215 68.5734 71.9384 69.2655 71.9441 69.493C71.9497 69.7414 71.8838 69.9329 71.7405 70.0809C71.5125 70.3179 71.0714 70.4411 70.4664 70.4411H61.5741H61.576Z" fill="white"/>
<path d="M49.7904 77.0134C47.5475 77.0134 45.3046 77.0134 43.0636 77.0134C42.5001 77.0134 41.8291 76.8541 41.8291 76.1032C41.8291 75.6159 42.0515 75.3295 42.5057 75.229C42.7639 75.1721 43.0448 75.1646 43.2879 75.1627C48.3561 75.1627 53.4261 75.1608 58.4961 75.1608C62.4862 75.1608 66.4762 75.1608 70.4663 75.1608C70.6736 75.1608 70.8772 75.1627 71.0751 75.1911C71.6066 75.2689 71.9571 75.6329 71.9496 76.0994C71.942 76.5431 71.5934 76.911 71.1033 76.9925C70.977 77.0134 70.8451 77.0153 70.7207 77.0153H70.504C67.6749 77.0153 49.7922 77.0153 49.7922 77.0153L49.7904 77.0134Z" fill="white"/>
<path d="M46.8992 63.8442C45.6817 63.8442 44.466 63.8442 43.2503 63.8423C43.011 63.8423 42.7565 63.8385 42.5247 63.793C42.1119 63.7133 41.8858 63.4668 41.8349 63.0421C41.7802 62.587 41.9574 62.2741 42.3607 62.1167C42.602 62.0219 42.9035 62.0086 43.1655 62.0086C45.7646 62.0048 48.3656 62.0029 50.9647 62.0029H56.4343H56.6529C56.7321 62.0029 56.8263 62.0029 56.9168 62.0181C57.4219 62.0921 57.7932 62.4903 57.7838 62.9472C57.7725 63.4365 57.4049 63.7949 56.8923 63.8176C56.3269 63.8423 55.7539 63.846 55.2657 63.846H54.0953C53.5317 63.846 52.9682 63.846 52.4065 63.846H46.903L46.8992 63.8442Z" fill="white"/>
</g>
<defs>
<clipPath id="clip0_2984_341">
<rect width="65" height="60" fill="white" transform="translate(32 39)"/>
</clipPath>
</defs>
</svg>
