<svg width="66" height="66" viewBox="0 0 66 66" fill="none" xmlns="http://www.w3.org/2000/svg">
<g clip-path="url(#clip0_2994_1134)">
<path d="M48.8278 66C47.9889 65.7725 47.3276 65.2304 46.5935 64.4893C44.6365 62.513 42.6653 60.5421 40.758 58.6351C39.336 57.215 37.9158 55.7933 36.4992 54.3697C36.0335 53.9005 35.5091 53.6837 34.8479 53.6837C34.8034 53.6837 34.7554 53.6836 34.7092 53.6872C34.08 53.7139 33.4721 53.7263 32.9015 53.7263C32.3701 53.7263 31.8475 53.7139 31.3516 53.6925C31.2964 53.6908 31.2431 53.689 31.1916 53.689C30.4948 53.689 29.9402 53.9218 29.4443 54.4194C27.953 55.9194 26.4581 57.4159 24.9633 58.9105C23.136 60.7376 21.2465 62.625 19.3979 64.4929C18.6638 65.234 18.0026 65.7743 17.1636 66.0018H16.1131C14.7676 65.5966 13.9961 64.6742 13.5358 62.9218C13.1554 61.4787 12.7092 60.0391 12.2773 58.6457C12.0231 57.8264 11.7369 56.9058 11.4792 56.0243C11.2517 55.2423 10.7611 54.7518 9.98434 54.5225C8.61034 54.1173 7.21323 53.6925 5.86412 53.282L5.79124 53.2607C4.64831 52.9123 3.50539 52.5658 2.36068 52.2245C1.47549 51.9615 0.929803 51.6043 0.588525 51.0693C0.419663 50.8063 0.282797 50.4793 0.13882 50.1345C0.0926051 50.0261 0.0481679 49.9194 0.00195312 49.8128V48.7429C0.316569 47.8276 0.999125 47.1078 1.72967 46.3916C2.87438 45.2701 4.01375 44.1291 5.11579 43.0255C6.08986 42.0498 7.09592 41.0421 8.09664 40.0557C8.73654 39.4265 8.8663 38.7192 8.49658 37.8963C5.27399 30.7251 5.34509 22.532 8.6921 15.4177C12.0231 8.33709 18.2568 3.08709 25.7951 1.01126C28.2303 0.341232 30.7099 0 33.1646 0C45.6248 0 56.3377 8.65344 59.2137 21.0409C60.5379 26.7405 59.9585 32.4082 57.4967 37.8874C57.1269 38.7121 57.2567 39.4177 57.893 40.0468C60.2678 42.3892 62.6336 44.7636 64.8537 46.9941C65.7851 47.9307 66.1761 49.045 65.9255 50.0527C65.6749 51.0551 64.8128 51.8513 63.5597 52.2352L62.8665 52.4485C60.6002 53.1451 58.2574 53.8649 55.9485 54.5509C55.2126 54.7696 54.7522 55.2299 54.5371 55.9568C54.2794 56.8312 54.0057 57.7127 53.7426 58.564C53.2947 60.0107 52.8343 61.4929 52.4379 62.9787C51.9811 64.6937 51.215 65.5983 49.8783 66H48.8278ZM1.07556 49.7826L2.66641 50.3478C2.71618 50.3655 2.7624 50.3833 2.80861 50.3993C2.93303 50.4455 3.05035 50.4882 3.16944 50.5237C3.88399 50.7405 4.59854 50.9591 5.31309 51.1795L5.33798 51.1866C7.08525 51.7233 8.89118 52.2761 10.6829 52.7897C12.0249 53.1736 12.8194 53.9538 13.1856 55.2423C13.5002 56.3531 13.8433 57.4674 14.1739 58.5444C14.3001 58.9532 14.4245 59.3637 14.5489 59.7725C14.7978 60.5883 15.0466 61.404 15.2955 62.2145L16.1416 64.9745L27.7912 53.3353L26.0262 52.8483C22.88 51.9793 19.9756 50.6001 17.3894 48.75C14.8191 46.9105 12.5777 44.6126 10.7256 41.9236L9.99856 40.8679L1.07556 49.7844V49.7826ZM55.2659 41.9325C51.4674 47.3868 46.3216 51.0604 39.9742 52.8554L38.2251 53.3495L49.793 64.9159L50.3476 63.3021L50.3974 63.1617C50.4382 63.0444 50.4791 62.9325 50.5129 62.8169C51.3057 60.215 52.0984 57.6132 52.8912 55.0095C53.2253 53.9076 53.9008 53.2376 55.0117 52.9017C57.1287 52.2618 59.2475 51.6132 61.2952 50.984L62.758 50.5361C62.9233 50.4846 63.078 50.4242 63.19 50.3797L63.3091 50.3335L64.8608 49.7524L55.9965 40.8821L55.2677 41.9289L55.2659 41.9325ZM32.9922 1.87855C19.2024 1.87855 7.97044 13.1286 7.95267 26.9573C7.94378 33.5847 10.5496 39.8371 15.2901 44.561C20.0289 49.285 26.307 51.8904 32.9673 51.8975H32.9975C39.64 51.8975 45.911 49.3063 50.6533 44.6037C55.3974 39.8975 58.0139 33.67 58.021 27.0693C58.0281 20.3371 55.4401 14.0154 50.7351 9.26659C46.0283 4.51777 39.7484 1.89277 33.0508 1.87855H32.9922Z" fill="white"/>
<path d="M33.2462 45.7748C22.5475 45.7748 14.1364 37.468 14.0973 26.8649C14.0795 21.8762 16.0401 17.1593 19.6164 13.5817C23.1963 10.0023 27.9368 8.0207 32.9654 8.00293H33.0347C43.4028 8.00293 51.8601 16.4715 51.885 26.8791C51.8974 31.843 49.951 36.5598 46.4085 40.1641C42.8678 43.7648 38.2196 45.7571 33.3191 45.7748H33.2444H33.2462ZM32.9351 9.86016C28.3972 9.86016 24.1348 11.6392 20.9335 14.8685C17.7358 18.0959 15.969 22.3951 15.9601 26.9769C15.9512 31.4591 17.7038 35.6872 20.8944 38.8862C24.1312 42.1297 28.4416 43.9176 33.0329 43.9176C42.3878 43.9176 50.0115 36.2754 50.0293 26.8809C50.0364 22.3631 48.2749 18.1048 45.0683 14.8898C41.8333 11.6481 37.5282 9.86193 32.9458 9.85838H32.9369L32.9351 9.86016Z" fill="white"/>
<path d="M30.002 31.619C29.7567 31.619 29.5132 31.4928 29.2733 31.244C27.8442 29.7529 26.4435 28.2582 25.1086 26.8027C24.7407 26.401 24.7389 25.8305 25.1051 25.4768C25.281 25.3062 25.4961 25.2174 25.729 25.2174C25.992 25.2174 26.2498 25.3346 26.4577 25.5479C27.1563 26.2659 27.8282 26.9875 28.5409 27.7499L28.5623 27.773C28.8645 28.0965 29.1684 28.4235 29.4777 28.7505L30.1265 29.4419L32.0817 27.9952C32.8211 27.4478 33.5499 26.9093 34.2787 26.369C34.8741 25.9265 36.1646 24.9685 36.1646 24.9685C37.3129 24.1155 38.4593 23.2624 39.6094 22.4146C39.8316 22.2511 40.0324 22.1711 40.2262 22.1711C40.3861 22.1711 40.5532 22.2245 40.7399 22.3311C41.0794 22.5284 41.2233 22.8376 41.1327 23.1771C41.0598 23.449 40.8909 23.7405 40.7399 23.8542C37.3413 26.4277 33.8734 28.9922 30.6295 31.3809C30.4109 31.5408 30.2011 31.6226 30.002 31.6226V31.619Z" fill="white"/>
</g>
<defs>
<clipPath id="clip0_2994_1134">
<rect width="66" height="66" fill="white"/>
</clipPath>
</defs>
</svg>
