<svg width="89" height="89" viewBox="0 0 89 89" fill="none" xmlns="http://www.w3.org/2000/svg">
<circle cx="44.5" cy="44.5" r="44.5" fill="#009BFF"/>
<g clip-path="url(#clip0_3208_147)">
<path d="M54.2242 63.9999C51.2653 63.9975 48.3052 63.9975 45.3451 63.9975H35.8613C34.486 63.9975 33.5852 63.2791 33.2544 61.9206C33.237 61.8473 33.2172 61.774 33.1961 61.6932L33.0214 61.0208H24.1894C23.0321 61.0208 22.43 60.5883 22.0421 59.4809C22.0297 59.4474 22.0161 59.4151 22 59.3827V48.1026L22.0582 47.8926C22.1177 47.68 22.1784 47.46 22.2429 47.2512C22.9504 44.9582 25.0914 43.3574 27.4506 43.3574H27.634C27.8 43.3574 27.9661 43.3574 28.1309 43.3561H28.1928C28.3353 43.3561 28.479 43.3549 28.6215 43.3549C29.5037 43.3549 30.236 43.381 30.9398 43.509C32.5853 43.8085 33.8689 44.8277 34.7524 46.5366L35.1848 47.373L35.8973 46.7578C36.0583 46.6186 36.2157 46.4782 36.3718 46.339C36.7014 46.0457 37.0124 45.7685 37.3395 45.5175C39.2093 44.082 41.3206 43.3549 43.6154 43.3549C43.6154 43.3549 44.7417 43.3524 44.9325 43.3524C45.9274 43.3524 46.7601 43.3686 47.5927 43.4494C49.8577 43.6669 51.9195 44.6723 53.7199 46.4359C53.793 46.508 53.8673 46.5789 53.9119 46.6199L54.498 47.1804L55.0097 46.6074C55.2154 46.3763 55.4137 46.1414 55.6057 45.9139C56.0307 45.4093 56.4247 44.942 56.8671 44.5518C57.7703 43.7576 58.8644 43.3549 60.1171 43.3549C60.1592 43.3549 60.2026 43.3549 60.246 43.3561C60.5372 43.3624 60.8308 43.3636 61.1232 43.3648C62.0389 43.3686 62.9855 43.3723 63.8405 43.5513C66.2443 44.0546 67.9926 46.2706 67.9963 48.8197C68.0025 52.3097 68 55.9438 67.9963 58.8645C67.9963 60.1508 67.1314 61.0159 65.8465 61.0171C64.7648 61.0183 63.6831 61.0196 62.6002 61.0196H55.5202L56.7345 62.0474C56.7271 62.0636 56.7048 62.1071 56.7048 62.1071C56.4991 62.5185 56.3058 62.9075 56.0592 63.2194C55.6503 63.7352 55.0333 63.9975 54.2254 63.9975H54.2217L54.2242 63.9999ZM45.2583 44.553C44.3291 44.553 43.3465 44.6326 42.2549 44.7966C40.0655 45.126 38.0867 46.2309 36.6841 47.9062C35.2963 49.563 34.5281 51.7094 34.5194 53.9477C34.5132 55.6989 34.5145 57.4613 34.517 59.1652C34.517 59.1652 34.5182 60.5026 34.5182 61.1575C34.5182 62.2525 34.9717 62.6999 36.0806 62.6999H49.6582C51.1129 62.6999 52.5675 62.6999 54.0222 62.6999C55.0048 62.6999 55.483 62.2227 55.4843 61.2433C55.4843 60.556 55.4868 59.8699 55.488 59.1826C55.493 57.419 55.4979 55.5945 55.4781 53.7949C55.4347 49.7196 52.8178 46.2085 48.9668 45.0601C47.8182 44.7183 46.6052 44.5518 45.2596 44.5518L45.2583 44.553ZM27.8211 44.6512C25.0729 44.6512 23.2961 46.4335 23.2948 49.1913C23.2948 51.2433 23.2948 53.294 23.2948 55.346V59.7046H33.2122V58.9589C33.2122 58.519 33.2085 58.0827 33.2048 57.649C33.1974 56.641 33.1887 55.6915 33.2234 54.7283C33.2606 53.6693 33.356 52.5769 33.5133 51.3862C33.548 51.1215 33.6261 50.8481 33.7091 50.5585C33.8553 50.0452 34.0213 49.4635 33.978 48.8011C33.8392 46.6609 32.3969 45.029 30.3884 44.7407C29.8135 44.6587 29.2472 44.6475 28.7206 44.6475C28.5831 44.6475 28.4468 44.6475 28.3105 44.6487C28.1742 44.6487 28.0429 44.65 27.9103 44.65H27.8211V44.6512ZM61.3487 44.5729C60.6041 44.5729 59.8656 44.6636 59.1544 44.8414C58.0429 45.1198 57.1174 45.8419 56.5499 46.8747C55.9489 47.9684 55.8287 49.2808 56.2203 50.4765C56.4297 51.1178 56.6292 51.8001 56.6639 52.4464C56.732 53.7315 56.7469 55.0489 56.7617 56.3228C56.7667 56.8225 56.7729 57.3134 56.7816 57.8043C56.7865 58.0591 56.7853 58.3114 56.7841 58.5774C56.7841 58.5774 56.7841 58.8508 56.7841 58.9589V59.7046H66.4375L66.6135 59.2087C66.6172 59.1988 66.6209 59.1901 66.6234 59.1826C66.6494 59.1193 66.7002 58.9962 66.7002 58.8297C66.7002 57.8888 66.7027 56.948 66.7052 56.0072C66.7114 53.6221 66.7188 51.16 66.6891 48.7365C66.6655 46.8747 65.393 45.2726 63.5914 44.8401C62.8492 44.6624 62.0959 44.5717 61.35 44.5717L61.3487 44.5729Z" fill="white"/>
<path d="M44.9723 38.693C40.9454 38.6893 37.673 35.3808 37.6768 31.3179C37.6805 27.2824 40.9751 24 45.0219 24C46.9821 24.0012 48.8184 24.7668 50.1937 26.1564C51.5703 27.5459 52.3261 29.399 52.3249 31.3726C52.3212 35.4082 49.0265 38.6918 44.981 38.6918H44.9736L44.9723 38.693ZM44.9748 25.2988C43.3764 25.3087 41.8685 25.9488 40.7273 27.1034C39.5849 28.258 38.9617 29.7743 38.9703 31.3726C38.9889 34.6948 41.6925 37.3967 44.9971 37.3967H45.0231C48.2942 37.3818 51.0449 34.6003 51.0301 31.3217C51.0226 29.7283 50.3882 28.2207 49.2421 27.0748C48.0972 25.9289 46.593 25.2988 45.0083 25.2988H44.9736H44.9748Z" fill="white"/>
<path d="M28.635 38.6918C26.2498 38.6831 24.3132 36.7094 24.3194 34.292C24.3255 31.8996 26.2845 29.9532 28.6858 29.9532C31.0821 29.957 33.0324 31.9207 33.0299 34.3306C33.0287 36.7355 31.0648 38.6918 28.6523 38.6918H28.6337H28.635ZM28.6622 31.2508C27.0465 31.2508 25.6501 32.6316 25.6142 34.2647C25.5968 35.0589 25.914 35.8531 26.484 36.4447C27.0589 37.04 27.8482 37.3855 28.6511 37.393H28.6771C30.299 37.393 31.6992 36.0122 31.7363 34.379C31.7735 32.7435 30.4118 31.3117 28.7651 31.2533C28.7316 31.252 28.6969 31.252 28.6622 31.252V31.2508Z" fill="white"/>
<path d="M61.3142 38.6918C60.1495 38.6918 59.0578 38.2369 58.2413 37.4141C57.4161 36.5826 56.9638 35.469 56.9688 34.2796C56.9775 31.8946 58.9401 29.9532 61.3427 29.9532H61.3563C63.744 29.9595 65.6831 31.9294 65.6794 34.343C65.6744 36.7405 63.7179 38.6918 61.3179 38.6918H61.3129H61.3142ZM61.3216 31.252C60.5261 31.252 59.7406 31.5864 59.1632 32.168C58.5783 32.7584 58.2587 33.5289 58.2636 34.338C58.2735 35.9836 59.6675 37.383 61.308 37.393H61.3253C62.1208 37.393 62.9076 37.0586 63.485 36.4757C64.0624 35.8928 64.3895 35.1024 64.3845 34.3057C64.3734 32.6614 62.9795 31.262 61.3402 31.2508H61.3204L61.3216 31.252Z" fill="white"/>
</g>
<defs>
<clipPath id="clip0_3208_147">
<rect width="46" height="40" fill="white" transform="translate(22 24)"/>
</clipPath>
</defs>
</svg>
