<?xml version="1.0" encoding="utf-8"?>
<!-- Generator: Adobe Illustrator 26.0.0, SVG Export Plug-In . SVG Version: 6.00 Build 0)  -->
<svg width="35px" height="16px" version="1.1" id="Layer_1" xmlns="http://www.w3.org/2000/svg" xmlns:xlink="http://www.w3.org/1999/xlink" x="0px" y="0px"
	 viewBox="0 0 20 12" enable-background="new 0 0 20 12" xml:space="preserve">
<g>
	<g>
		<path fill="#FFAC78" d="M19.48562,50.42747c0.67046-0.98193-0.12902-2.41861-1.31301-2.38647h-1.61701v-2.88463
			c0-0.67683-0.43714-1.27604-1.08157-1.48265c-0.15664-0.05016-0.31669-0.07432-0.4751-0.07432
			c-0.49316,0-0.96905,0.23492-1.26682,0.65181l-3.17374,4.44147c-0.73992,0.97964,0.0393,2.49391,1.26664,2.46201h1.61689v2.88463
			c0,0.6767,0.4372,1.27592,1.08163,1.48252c0.64412,0.20649,1.3484-0.02673,1.74192-0.57736
			C16.26545,54.94448,19.48643,50.42771,19.48562,50.42747z"/>
	</g>
	<circle fill="#FF7A59" cx="15.00054" cy="45.15264" r="1.5564"/>
</g>
<g>
	<g>
		<path fill="#FFAC78" d="M49.53839,46.93674h-2.71152l-0.65367-2.04537c-0.42651-1.72683-2.88137-1.72683-3.30785,0
			l-0.65371,2.04537h-2.26038c-1.53386-0.03162-2.21844,2.07618-0.95947,2.95205l1.84724,1.34272l-0.71764,2.24563
			c-0.26528,1.07399,0.54758,2.11205,1.65388,2.11205c0,0,0.50766,0.0371,1.01382-0.31124
			c-0.00204-0.00204,1.72495-1.36029,1.72495-1.36029l0.00957-0.00784l1.25286,0.91076
			c0.34172,0.24849,0.62018,0.4511,0.62018,0.45142c0.00282,0.00212,0.00565,0.00345,0.00847,0.00549l0.00188,0.00141
			c0.00067,0.00047,0.00142,0.00079,0.00204,0.00126c0.09205,0.06675,0.18445,0.11844,0.27336,0.15939
			c1.31786,0.61053,2.63553-0.67198,2.24265-1.96333l-0.80694-2.49914l0,0l-0.24814-0.77647h1.6684
			c0.9013,0,1.63192-0.73066,1.63192-1.63192C51.17031,47.6674,50.43969,46.93674,49.53839,46.93674z"/>
	</g>
	<g>
		<circle fill="#FF7A59" cx="49.54249" cy="48.56889" r="1.63192"/>
	</g>
</g>
<g>
	<g>
		<path fill="#FFAC78" d="M84.69452,44.57689c-1.30494-1.30502-3.42074-1.30502-4.72575,0l-2.34473,2.34474l-2.34483-2.34474
			c-1.30493-1.30502-3.42073-1.30502-4.72566,0c-1.30494,1.30502-1.30494,3.42081,0,4.72567l2.34482,2.34474l0,0l3.3996,3.39969
			c0.73235,0.73234,1.9197,0.73234,2.65212,0l5.74443-5.74443C85.99945,47.9977,85.99945,45.8819,84.69452,44.57689z"/>
	</g>
	<circle fill="#FF7A59" cx="82.33208" cy="46.9393" r="3.34306"/>
</g>
<g>
	<g>
		<path fill="#FFAC78" d="M104.4221,53.00494L104.4221,53.00494c0-1.43114,1.16016-2.59131,2.5913-2.59131h9.60218
			c1.43114,0,2.5913,1.16017,2.5913,2.5913v0c0,1.43114-1.16016,2.5913-2.5913,2.5913h-9.60218
			C105.58227,55.59624,104.4221,54.43608,104.4221,53.00494z M116.61559,43.59624h-2.86674c-1.43114,0-2.5913,1.16016-2.5913,2.5913
			v0c0,1.43114,1.16016,2.5913,2.5913,2.5913h2.86674c1.43114,0,2.5913-1.16016,2.5913-2.5913v0
			C119.20689,44.75641,118.04672,43.59624,116.61559,43.59624z M109.60471,46.18755c0-1.43114-1.16016-2.5913-2.5913-2.59131
			c-1.43114,0-2.59131,1.16017-2.59131,2.5913s1.16016,2.5913,2.5913,2.59131
			C108.44455,48.77885,109.60471,47.61869,109.60471,46.18755z"/>
	</g>
	<circle fill="#FF7A59" cx="116.61559" cy="53.00494" r="2.5913"/>
</g>
<g>
	<g>
		<path fill="#FFAC78" d="M146.36122,48.37311c0.40483-0.54739,0.41139-1.28302,0.06992-1.82413
			c-0.28848-0.45714-0.86182-0.83842-1.56273-0.76154c-0.90062,0.09878-1.75011-0.39295-2.11531-1.22122
			c-0.26318-0.63035-0.87044-0.96558-1.48009-0.96994c-0.61818-0.00442-1.2388,0.33087-1.50558,0.96994
			c-0.36519,0.82839-1.21547,1.31927-2.1153,1.22134c-0.6438-0.06997-1.26607,0.2463-1.58929,0.80617
			c-0.32326,0.55987-0.28546,1.25773,0.09647,1.77938c0.53476,0.73046,0.53476,1.7121,0,2.44268
			c-0.42404,0.55405-0.3981,1.26667-0.07686,1.80313c0.31099,0.51935,0.89966,0.87318,1.56969,0.78242
			c0.90071-0.0983,1.75011,0.39295,2.1153,1.22134c0.2578,0.63493,0.8746,0.97207,1.49034,0.97355
			c0.61871,0.00149,1.23634-0.33577,1.49533-0.97355c0.3653-0.82839,1.21542-1.31903,2.11531-1.22134
			c0.64352,0.0696,1.26607-0.24642,1.58928-0.80617c0.32326-0.55988,0.28546-1.25785-0.09647-1.77951
			C145.82651,50.08521,145.82651,49.10357,146.36122,48.37311z M142.76614,50.46387c-0.54648,0.2049-1.0518,0.50333-1.50253,0.8743
			c-0.45319-0.37365-0.96484-0.66916-1.51501-0.87479c0.09579-0.57575,0.10156-1.16261,0.0058-1.73835
			c0.547-0.20527,1.05276-0.50407,1.50385-0.8754c0.45311,0.37354,0.96347,0.67112,1.51352,0.87675
			C142.67612,49.30188,142.67041,49.88837,142.76614,50.46387z"/>
	</g>
	<circle fill="#FF7A59" cx="145.04572" cy="47.40907" r="1.63083"/>
</g>
<g>
	<g>
		<path fill="#FFAC78" d="M19.48696,29.78531c0.67046-0.98193-0.12902-2.4186-1.31301-2.38647h-1.61701v-2.88463
			c0-0.67683-0.43714-1.27604-1.08157-1.48265c-0.15664-0.05016-0.31669-0.07432-0.4751-0.07432
			c-0.49316,0-0.96905,0.23492-1.26682,0.65181l-3.17374,4.44147c-0.73992,0.97964,0.0393,2.49391,1.26664,2.46201h1.61689v2.88463
			c0,0.6767,0.4372,1.27591,1.08163,1.48252c0.64412,0.20649,1.3484-0.02673,1.74192-0.57736
			C16.26679,34.30233,19.48777,29.78555,19.48696,29.78531z"/>
		<g>
			<path fill="#33475B" d="M12.44351,31.51225h-0.61715l-0.03811,0.00052c-0.94238,0-1.79991-0.54658-2.23797-1.42638
				c-0.43421-0.87206-0.35626-1.87698,0.20274-2.62651l1.8007-2.51999l0.00021-0.42982c0-0.85933-0.69662-1.55599-1.55599-1.55599
				c-0.52263,0-0.96703,0.2355-1.24918,0.63072c0.00442-0.00622-0.01406,0.01727-0.01892,0.02407l-3.1729,4.44027
				c-0.73973,0.97942,0.0393,2.49333,1.2663,2.46142h1.61649v2.88388c0,0.67649,0.43708,1.27557,1.08135,1.48209
				c0.64393,0.20646,1.34803-0.0267,1.74145-0.57721c0,0,0.54258-0.76091,1.18096-1.65615V31.51225z"/>
		</g>
	</g>
	<circle fill="#FF7A59" cx="15.00188" cy="24.51048" r="1.5564"/>
</g>
<g>
	<g>
		<path fill="#FFAC78" d="M49.21504,26.29458h-2.71151l-0.65367-2.04537c-0.42651-1.72683-2.88137-1.72683-3.30785,0
			l-0.65371,2.04537h-2.26037c-1.53387-0.03162-2.21844,2.07617-0.95947,2.95205l1.84724,1.34272l-0.71764,2.24563
			c-0.26528,1.07399,0.54758,2.11205,1.65388,2.11205c0,0,0.50766,0.0371,1.01382-0.31124
			c-0.00204-0.00204,1.72495-1.36029,1.72495-1.36029l0.00957-0.00784l1.25286,0.91076
			c0.34172,0.24849,0.62018,0.4511,0.62018,0.45142c0.00282,0.00212,0.00565,0.00345,0.00847,0.00549l0.00188,0.00141
			c0.00067,0.00047,0.00141,0.00079,0.00204,0.00126c0.09205,0.06675,0.18445,0.11844,0.27336,0.15939
			c1.31787,0.61053,2.63553-0.67198,2.24265-1.96333l-0.80694-2.49914l0,0l-0.24814-0.77647h1.6684
			c0.9013,0,1.63192-0.73066,1.63192-1.63192C50.84697,27.02524,50.11634,26.29458,49.21504,26.29458z"/>
		<g>
			<path fill="#33475B" d="M38.75949,32.57843l0.00862-0.0349l0.01091-0.03421l0.48234-1.50928l-1.20383-0.87523
				c-0.9591-0.66723-1.34496-1.84376-0.98306-2.99734c0.36269-1.15616,1.35143-1.90312,2.51902-1.90305
				c0.0001,0,0.00029,0,0.00039,0l0.03405,0.00036h1.18039l-0.31179-0.97555c-0.42651-1.72685-2.88138-1.72685-3.30783,0
				l-0.65371,2.04536H34.2746c-1.53387-0.03164-2.21843,2.07618-0.95946,2.95203l1.84722,1.34275l-0.71763,2.24563
				c-0.26527,1.07399,0.54757,2.11203,1.65388,2.11203c0,0,0.50768,0.03709,1.01382-0.31123
				c-0.00167-0.0017,1.15234-0.90987,1.57301-1.24079C38.67111,33.12434,38.69243,32.8499,38.75949,32.57843z"/>
		</g>
	</g>
	<g>
		<circle fill="#FF7A59" cx="49.21915" cy="27.92673" r="1.63192"/>
	</g>
</g>
<g>
	<g>
		<path fill="#FFAC78" d="M84.71574,23.93473c-1.30494-1.30502-3.42074-1.30502-4.72575,0l-2.34474,2.34474l-2.34482-2.34474
			c-1.30493-1.30502-3.42073-1.30502-4.72567,0c-1.30493,1.30502-1.30493,3.42081,0,4.72567l2.34483,2.34474l0,0l3.3996,3.39969
			c0.73235,0.73234,1.91969,0.73234,2.65212,0l5.74443-5.74443C86.02068,27.35554,86.02068,25.23974,84.71574,23.93473z"/>
		<g>
			<path fill="#33475B" d="M71.97089,31.95387l-2.3448-2.34472c-0.88458-0.8845-1.3717-2.06057-1.3717-3.31152
				c0-0.92356,0.2672-1.80544,0.76212-2.56018c-1.31274-1.0882-3.25436-1.0326-4.48419,0.19727
				c-1.30492,1.305-1.30492,3.4208,0,4.72569l2.34484,2.34472l3.3996,3.39968c0.73235,0.73235,1.91972,0.73235,2.6521,0
				l0.74648-0.74647L71.97089,31.95387z"/>
		</g>
	</g>
	<circle fill="#FF7A59" cx="82.3533" cy="26.29714" r="3.34306"/>
</g>
<g>
	<g>
		<path fill="#FFAC78" d="M104.11389,32.36278L104.11389,32.36278c0-1.43114,1.16017-2.59131,2.5913-2.59131l9.60218,0
			c1.43114,0,2.5913,1.16017,2.5913,2.5913v0.00001c0,1.43114-1.16016,2.5913-2.5913,2.5913h-9.60218
			C105.27406,34.95408,104.11389,33.79391,104.11389,32.36278z M116.30738,22.95409l-2.86674,0
			c-1.43114,0-2.5913,1.16016-2.5913,2.5913v0c0,1.43114,1.16016,2.5913,2.5913,2.5913l2.86674,0
			c1.43114,0,2.5913-1.16016,2.59131-2.5913v0C118.89868,24.11425,117.73851,22.95409,116.30738,22.95409z M109.2965,25.54539
			c0-1.43114-1.16016-2.59131-2.5913-2.59131c-1.43114,0-2.59131,1.16017-2.59131,2.5913c0,1.43114,1.16016,2.59131,2.59131,2.59131
			C108.13634,28.13669,109.2965,26.97653,109.2965,25.54539z"/>
		<g>
			<path fill="#33475B" d="M101.15647,28.13667c0.84321,0,1.58486-0.40897,2.05809-1.0326
				c-0.21352-0.47631-0.33272-1.0038-0.33272-1.55869c0-0.55452,0.1213-1.08039,0.33456-1.55647
				c-0.47311-0.62491-1.21571-1.03482-2.05994-1.03482c-1.43115,0-2.59129,1.16018-2.59129,2.59129
				S99.72532,28.13667,101.15647,28.13667z"/>
			<path fill="#33475B" d="M102.88184,32.36276c0-1.00169,0.39318-1.9089,1.02572-2.5913h-2.75109
				c-1.43115,0-2.59129,1.16018-2.59129,2.5913c0,1.43115,1.16014,2.59129,2.59129,2.59129h2.74561
				C103.27104,34.272,102.88184,33.36306,102.88184,32.36276z"/>
		</g>
	</g>
	<circle fill="#FF7A59" cx="116.30737" cy="32.36278" r="2.5913"/>
</g>
<g>
	<g>
		<path fill="#FFAC78" d="M146.36322,27.73095c0.40483-0.54739,0.41139-1.28302,0.06992-1.82413
			c-0.28848-0.45714-0.86182-0.83842-1.56273-0.76154c-0.90062,0.09878-1.75011-0.39295-2.11531-1.22122
			c-0.26318-0.63035-0.87044-0.96558-1.48009-0.96994c-0.61818-0.00442-1.2388,0.33087-1.50558,0.96994
			c-0.36519,0.82839-1.21547,1.31927-2.1153,1.22134c-0.6438-0.06997-1.26607,0.2463-1.58929,0.80617
			c-0.32326,0.55987-0.28546,1.25773,0.09647,1.77938c0.53476,0.73046,0.53476,1.7121,0,2.44268
			c-0.42404,0.55404-0.3981,1.26667-0.07686,1.80313c0.31099,0.51935,0.89966,0.87318,1.56969,0.78242
			c0.90071-0.0983,1.75011,0.39295,2.1153,1.22134c0.2578,0.63493,0.8746,0.97208,1.49034,0.97356
			c0.61871,0.00148,1.23634-0.33577,1.49533-0.97356c0.3653-0.82839,1.21542-1.31903,2.11531-1.22134
			c0.64352,0.0696,1.26607-0.24642,1.58928-0.80617c0.32326-0.55987,0.28546-1.25785-0.09647-1.7795
			C145.82851,29.44305,145.82851,28.46141,146.36322,27.73095z M142.76814,29.82171c-0.54648,0.2049-1.0518,0.50334-1.50253,0.87431
			c-0.45319-0.37366-0.96484-0.66916-1.51501-0.87479c0.09579-0.57575,0.10156-1.16261,0.0058-1.73835
			c0.547-0.20527,1.05276-0.50407,1.50385-0.8754c0.45311,0.37353,0.96347,0.67112,1.51352,0.87675
			C142.67812,28.65972,142.67241,29.24621,142.76814,29.82171z"/>
		<g>
			<path fill="#33475B" d="M137.77182,33.7523c-0.10855,0.01401-0.21848,0.02109-0.32693,0.02109
				c-0.8945,0-1.74454-0.49158-2.21838-1.28287c-0.55936-0.93414-0.50415-2.08212,0.12787-2.90753
				c0.27615-0.37726,0.27618-0.88416,0.00009-1.26129c-0.61569-0.84094-0.67679-1.96753-0.15564-2.87009
				c0.46857-0.81168,1.34152-1.31586,2.2782-1.31583c0.09448,0.00003,0.18976,0.00513,0.28531,0.0155
				c0.03848,0.00418,0.07675,0.00607,0.11475,0.00626c-0.04532-0.07526-0.08975-0.15134-0.12598-0.23346
				c-0.26318-0.63037-0.87045-0.96561-1.48007-0.96994c-0.61819-0.00443-1.2388,0.33087-1.50558,0.96994
				c-0.3652,0.82837-1.21548,1.31924-2.11533,1.22131c-0.64377-0.06995-1.26605,0.24631-1.58926,0.80618
				c-0.32327,0.55988-0.28546,1.25772,0.09647,1.77936c0.53473,0.73047,0.53473,1.7121,0,2.44269
				c-0.42407,0.55405-0.3981,1.26666-0.07687,1.80313c0.311,0.51935,0.89966,0.87317,1.56967,0.78241
				c0.90073-0.0983,1.75012,0.39297,2.11533,1.22134c0.25778,0.63495,0.8746,0.97208,1.49033,0.97357
				c0.61871,0.00146,1.23633-0.33578,1.49533-0.97357c0.03622-0.08215,0.08072-0.15826,0.12607-0.23352
				C137.84229,33.74717,137.80713,33.74876,137.77182,33.7523z"/>
		</g>
	</g>
	<circle fill="#FF7A59" cx="145.04771" cy="26.76691" r="1.63083"/>
</g>
<g>
	<g>
		<g>
			<path fill="#7B98B6" d="M7.44134,8.55622H6.82459L6.78648,8.55671c-0.94223,0-1.79961-0.54646-2.2376-1.42611
				C4.11479,6.2587,4.19275,5.2539,4.75156,4.50446l1.80083-2.52012L6.5526,1.55599C6.5526,0.69665,5.85597,0,4.99661,0
				C4.47398,0,4.02958,0.2355,3.74743,0.63072C3.75185,0.6245,3.73336,0.64799,3.72851,0.6548l-3.1729,4.44027
				c-0.73973,0.97942,0.0393,2.49333,1.2663,2.46142H3.4384v2.88388c0,0.67649,0.43708,1.27557,1.08135,1.48209
				c0.64393,0.20646,1.34803-0.0267,1.74145-0.57721c0,0,0.54215-0.76024,1.18014-1.65499V8.55622z"/>
		</g>
	</g>
	<g>
		<g>
			<path fill="#FFAC78" d="M19.4883,6.83122c0.67046-0.98193-0.12902-2.4186-1.31301-2.38647h-1.61701V1.56013
				c0-0.67683-0.43714-1.27604-1.08157-1.48265c-0.15664-0.05016-0.31669-0.07432-0.4751-0.07432
				c-0.49316,0-0.96905,0.23492-1.26682,0.65181l-3.17374,4.44148c-0.73992,0.97965,0.0393,2.49391,1.26664,2.46201h1.61689v2.88463
				c0,0.6767,0.4372,1.27592,1.08163,1.48253c0.64412,0.20649,1.3484-0.02673,1.74192-0.57736
				C16.26813,11.34824,19.48911,6.83146,19.4883,6.83122z"/>
			<g>
				<path fill="#33475B" d="M12.44484,8.55817H11.8277l-0.03811,0.00052c-0.94238,0-1.79991-0.54658-2.23797-1.42638
					C9.11741,6.26025,9.19536,5.25533,9.75436,4.5058l1.8007-2.52l0.00021-0.42982C11.55528,0.69665,10.85865,0,9.99929,0
					C9.47666,0,9.03226,0.2355,8.75011,0.63072C8.75453,0.6245,8.73604,0.64799,8.73119,0.6548l-3.1729,4.44027
					c-0.73973,0.97942,0.0393,2.49333,1.2663,2.46142h1.61649v2.88388c0,0.67649,0.43708,1.27557,1.08135,1.48209
					c0.64393,0.20646,1.34803-0.0267,1.74145-0.57721c0,0,0.54258-0.76091,1.18096-1.65615V8.55817z"/>
			</g>
		</g>
		<circle fill="#FF7A59" cx="15.00322" cy="1.5564" r="1.5564"/>
	</g>
</g>
<g>
	<g>
		<g>
			<path fill="#7B98B6" d="M33.5553,9.62435l0.00862-0.0349l0.01094-0.03421l0.48231-1.50928l-1.20383-0.87523
				c-0.95907-0.66723-1.34493-1.84376-0.98303-2.99734c0.36268-1.15616,1.3514-1.90312,2.51902-1.90305
				c0.0001,0,0.00029,0,0.00039,0l0.03405,0.00036h1.18039l-0.31179-0.97555c-0.42651-1.72685-2.88138-1.72685-3.30783,0
				L31.33083,3.3405h-2.26038c-1.53387-0.03164-2.21846,2.07618-0.95946,2.95203l1.84722,1.34275L29.24058,9.8809
				c-0.26526,1.07399,0.54757,2.11203,1.65388,2.11203c0,0,0.50768,0.03709,1.01382-0.31123
				c-0.00167-0.0017,1.15234-0.90987,1.57301-1.24079C33.46692,10.17026,33.48824,9.89582,33.5553,9.62435z"/>
		</g>
	</g>
	<g>
		<path fill="#FFAC78" d="M49.36421,3.3405h-2.71151l-0.65367-2.04537c-0.42651-1.72683-2.88137-1.72683-3.30785,0L42.03746,3.3405
			h-2.26037c-1.53387-0.03162-2.21844,2.07617-0.95947,2.95205l1.84724,1.34272l-0.71764,2.24563
			c-0.26528,1.07399,0.54758,2.11205,1.65388,2.11205c0,0,0.50766,0.0371,1.01382-0.31125
			c-0.00204-0.00204,1.72495-1.36029,1.72495-1.36029l0.00957-0.00784l1.25286,0.91075
			c0.34172,0.2485,0.62018,0.4511,0.62018,0.45142c0.00282,0.00212,0.00565,0.00345,0.00847,0.00549l0.00188,0.00141
			c0.00067,0.00047,0.00141,0.00078,0.00204,0.00126c0.09205,0.06675,0.18445,0.11844,0.27336,0.15939
			c1.31787,0.61053,2.63553-0.67198,2.24265-1.96333l-0.80694-2.49914l0,0l-0.24814-0.77647h1.6684
			c0.9013,0,1.63192-0.73066,1.63192-1.63192S50.26551,3.3405,49.36421,3.3405z"/>
		<g>
			<path fill="#33475B" d="M38.90865,9.62435l0.00862-0.0349l0.01091-0.03421l0.48234-1.50928l-1.20383-0.87523
				c-0.9591-0.66723-1.34496-1.84376-0.98306-2.99734c0.36269-1.15616,1.35143-1.90312,2.51902-1.90305
				c0.0001,0,0.00029,0,0.00039,0l0.03405,0.00036h1.18039l-0.31179-0.97555c-0.42651-1.72685-2.88138-1.72685-3.30783,0
				L36.68415,3.3405h-2.26038c-1.53387-0.03164-2.21843,2.07618-0.95946,2.95203l1.84722,1.34275L34.5939,9.8809
				c-0.26527,1.07399,0.54757,2.11203,1.65388,2.11203c0,0,0.50768,0.03709,1.01382-0.31123
				c-0.00167-0.0017,1.15234-0.90987,1.57301-1.24079C38.82027,10.17026,38.84159,9.89582,38.90865,9.62435z"/>
		</g>
	</g>
	<g>
		<circle fill="#FF7A59" cx="49.36831" cy="4.97265" r="1.63192"/>
	</g>
</g>
<g>
	<g>
		<g>
			<path fill="#7B98B6" d="M65.94968,8.99978l-2.34481-2.34473c-0.88458-0.8845-1.3717-2.06056-1.3717-3.31152
				c0-0.92356,0.26721-1.80544,0.76211-2.56018c-1.31274-1.0882-3.25436-1.0326-4.48419,0.19727
				c-1.30492,1.305-1.30492,3.4208,0,4.72569l2.34485,2.34473l3.3996,3.39968c0.73235,0.73235,1.91972,0.73235,2.65214,0
				l0.74643-0.74643L65.94968,8.99978z"/>
		</g>
	</g>
	<g>
		<path fill="#FFAC78" d="M84.73696,0.98065c-1.30493-1.30502-3.42073-1.30502-4.72575,0l-2.34473,2.34474l-2.34482-2.34474
			c-1.30494-1.30502-3.42074-1.30502-4.72567,0c-1.30494,1.30502-1.30494,3.42082,0,4.72567l2.34482,2.34474l0,0l3.39961,3.39969
			c0.73234,0.73234,1.91969,0.73234,2.65211,0l5.74443-5.74443C86.04189,4.40146,86.04189,2.28566,84.73696,0.98065z"/>
		<g>
			<path fill="#33475B" d="M71.99212,8.99978l-2.34481-2.34473c-0.88457-0.8845-1.3717-2.06056-1.3717-3.31152
				c0-0.92356,0.26721-1.80544,0.76212-2.56018c-1.31274-1.0882-3.25436-1.0326-4.48419,0.19727
				c-1.30492,1.305-1.30492,3.4208,0,4.72569l2.34485,2.34473l3.3996,3.39968c0.73235,0.73235,1.91971,0.73235,2.6521,0
				l0.74647-0.74647L71.99212,8.99978z"/>
		</g>
	</g>
	<circle fill="#FF7A59" cx="82.37452" cy="3.34306" r="3.34306"/>
</g>
<g>
	<g>
		<g>
			<path fill="#7B98B6" d="M95.3821,5.18259c0.84322,0,1.58487-0.40897,2.0581-1.0326
				c-0.21353-0.47631-0.33272-1.0038-0.33272-1.55869c0-0.55452,0.12129-1.08039,0.33456-1.55648
				C96.96893,0.40992,96.22637,0,95.3821,0c-1.43115,0-2.59129,1.16017-2.59129,2.59129S93.95095,5.18259,95.3821,5.18259z"/>
		</g>
		<g>
			<path fill="#7B98B6" d="M97.10748,9.40868c0-1.00169,0.39317-1.9089,1.02572-2.59129h-2.7511
				c-1.43115,0-2.59129,1.16017-2.59129,2.59129c0,1.43116,1.16013,2.59129,2.59129,2.59129h2.74561
				C97.49667,11.31791,97.10748,10.40898,97.10748,9.40868z"/>
		</g>
	</g>
	<g>
		<g>
			<path fill="#FFAC78" d="M103.88826,9.4087L103.88826,9.4087c0-1.43114,1.16016-2.59131,2.5913-2.59131l9.60218,0
				c1.43114,0,2.5913,1.16017,2.5913,2.5913V9.4087c0,1.43114-1.16016,2.5913-2.5913,2.5913l-9.60218,0
				C105.04842,12,103.88826,10.83983,103.88826,9.4087z M116.08174,0L113.215,0c-1.43114,0-2.5913,1.16016-2.59131,2.5913v0.00001
				c0,1.43114,1.16017,2.5913,2.5913,2.5913l2.86674,0c1.43114,0,2.5913-1.16016,2.5913-2.5913V2.59131
				C118.67304,1.16017,117.51288,0,116.08174,0z M109.07087,2.59131c0-1.43114-1.16016-2.59131-2.5913-2.59131
				c-1.43114,0-2.59131,1.16017-2.59131,2.5913s1.16016,2.59131,2.5913,2.59131
				C107.9107,5.18261,109.07087,4.02245,109.07087,2.59131z"/>
			<g>
				<path fill="#33475B" d="M100.93084,5.18259c0.84321,0,1.58486-0.40897,2.05809-1.0326
					c-0.21353-0.47631-0.33272-1.0038-0.33272-1.55869c0-0.55452,0.12129-1.08039,0.33456-1.55648
					C102.51765,0.40992,101.77506,0,100.93084,0c-1.43116,0-2.59129,1.16017-2.59129,2.59129S99.49968,5.18259,100.93084,5.18259z"
					/>
				<path fill="#33475B" d="M102.65621,9.40868c0-1.00169,0.39318-1.9089,1.02572-2.59129h-2.75109
					c-1.43116,0-2.59129,1.16017-2.59129,2.59129c0,1.43116,1.16013,2.59129,2.59129,2.59129h2.7456
					C103.0454,11.31791,102.65621,10.40898,102.65621,9.40868z"/>
			</g>
		</g>
		<circle fill="#FF7A59" cx="116.08173" cy="9.4087" r="2.5913"/>
	</g>
</g>
<g>
	<g>
		<g>
			<path fill="#7B98B6" d="M132.76982,10.79821c-0.10855,0.01401-0.21848,0.02109-0.32693,0.02109
				c-0.8945,0-1.74454-0.49158-2.21838-1.28287c-0.55936-0.93414-0.50415-2.08212,0.12787-2.90753
				c0.27615-0.37726,0.27615-0.88416,0.00009-1.26129c-0.61569-0.84094-0.67679-1.96753-0.15564-2.87009
				c0.46857-0.81168,1.34152-1.31586,2.2782-1.31583c0.09448,0.00003,0.18976,0.00513,0.28531,0.0155
				c0.03848,0.00418,0.07675,0.00607,0.11475,0.00626c-0.04532-0.07526-0.08975-0.15134-0.12598-0.23346
				c-0.26318-0.63037-0.87045-0.96561-1.48007-0.96994c-0.61819-0.00443-1.2388,0.33087-1.50558,0.96994
				c-0.3652,0.82837-1.21548,1.31924-2.11533,1.22131c-0.6438-0.06995-1.26605,0.24631-1.58929,0.80618
				s-0.28546,1.25772,0.09647,1.77936c0.53476,0.73047,0.53476,1.7121,0,2.44269c-0.42404,0.55405-0.39807,1.26666-0.07684,1.80313
				c0.31097,0.51935,0.89966,0.87317,1.56967,0.78241c0.90073-0.0983,1.75012,0.39297,2.11533,1.22134
				c0.25778,0.63495,0.8746,0.97208,1.49033,0.97357c0.61871,0.00146,1.23633-0.33578,1.49533-0.97357
				c0.03622-0.08215,0.08072-0.15826,0.12607-0.23352C132.84029,10.79309,132.80513,10.79467,132.76982,10.79821z"/>
		</g>
	</g>
	<g>
		<g>
			<path fill="#FFAC78" d="M146.36523,4.77687c0.40482-0.54739,0.41138-1.28302,0.0699-1.82413
				c-0.28848-0.45714-0.86182-0.83842-1.56273-0.76154c-0.90062,0.09878-1.75011-0.39295-2.11531-1.22122
				c-0.26318-0.63035-0.87044-0.96558-1.48007-0.96994c-0.61819-0.00442-1.2388,0.33087-1.5056,0.96994
				c-0.36519,0.82839-1.21547,1.31927-2.1153,1.22134c-0.6438-0.06997-1.26607,0.2463-1.58929,0.80617
				c-0.32324,0.55987-0.28546,1.25773,0.09647,1.77938c0.53476,0.73046,0.53476,1.7121,0,2.44268
				c-0.42404,0.55404-0.3981,1.26667-0.07686,1.80313c0.31099,0.51935,0.89967,0.87318,1.56969,0.78242
				c0.90071-0.0983,1.75011,0.39295,2.1153,1.22134c0.2578,0.63493,0.87462,0.97208,1.49034,0.97355
				c0.61871,0.00149,1.23634-0.33577,1.49533-0.97355c0.3653-0.82839,1.21542-1.31903,2.11531-1.22134
				c0.64352,0.0696,1.26607-0.24642,1.58929-0.80617c0.32324-0.55987,0.28546-1.25785-0.09647-1.7795
				C145.83051,6.48897,145.83051,5.50733,146.36523,4.77687z M142.77014,6.86763c-0.54648,0.2049-1.05179,0.50334-1.50253,0.8743
				c-0.45319-0.37366-0.96484-0.66916-1.51501-0.87479c0.09579-0.57575,0.10156-1.16261,0.0058-1.73835
				c0.547-0.20527,1.05276-0.50407,1.50385-0.8754c0.45311,0.37353,0.96347,0.67111,1.51352,0.87675
				C142.68011,5.70564,142.67441,6.29213,142.77014,6.86763z"/>
			<g>
				<path fill="#33475B" d="M137.77382,10.79821c-0.10855,0.01401-0.21848,0.02109-0.32693,0.02109
					c-0.8945,0-1.74454-0.49158-2.21838-1.28287c-0.55936-0.93414-0.50415-2.08212,0.12787-2.90753
					c0.27615-0.37726,0.27618-0.88416,0.00009-1.26129c-0.61569-0.84094-0.67679-1.96753-0.15564-2.87009
					c0.46857-0.81168,1.34152-1.31586,2.2782-1.31583c0.09448,0.00003,0.18976,0.00513,0.28531,0.0155
					c0.03848,0.00418,0.07675,0.00607,0.11475,0.00626c-0.04532-0.07526-0.08975-0.15134-0.12598-0.23346
					c-0.26318-0.63037-0.87045-0.96561-1.48007-0.96994c-0.61819-0.00443-1.2388,0.33087-1.50558,0.96994
					c-0.3652,0.82837-1.21548,1.31924-2.11533,1.22131c-0.64377-0.06995-1.26605,0.24631-1.58926,0.80618
					c-0.32327,0.55988-0.28546,1.25772,0.09647,1.77936c0.53473,0.73047,0.53473,1.7121,0,2.44269
					c-0.42407,0.55405-0.3981,1.26666-0.07687,1.80313c0.311,0.51935,0.89966,0.87317,1.56967,0.78241
					c0.90073-0.0983,1.75012,0.39297,2.11533,1.22134c0.25778,0.63495,0.8746,0.97208,1.49033,0.97357
					c0.61871,0.00146,1.23633-0.33578,1.49533-0.97357c0.03622-0.08215,0.08072-0.15826,0.12607-0.23352
					C137.84428,10.79309,137.80913,10.79467,137.77382,10.79821z"/>
			</g>
		</g>
		<circle fill="#FF7A59" cx="145.04971" cy="3.81283" r="1.63083"/>
	</g>
</g>
</svg>
