<?xml version="1.0" encoding="utf-8"?>
<!-- Generator: Adobe Illustrator 26.0.0, SVG Export Plug-In . SVG Version: 6.00 Build 0)  -->
<svg width="23px" height="16px" version="1.1" id="Layer_1" xmlns="http://www.w3.org/2000/svg" xmlns:xlink="http://www.w3.org/1999/xlink" x="0px" y="0px"
	 viewBox="0 0 15 12" enable-background="new 0 0 15 12" xml:space="preserve">
<g>
	<g>
		<path fill="#FFAC78" d="M14.48696,6.83122c0.67046-0.98193-0.12902-2.4186-1.31301-2.38647h-1.61701V1.56013
			c0-0.67683-0.43714-1.27604-1.08157-1.48265c-0.15664-0.05016-0.31669-0.07432-0.4751-0.07432
			c-0.49316,0-0.96905,0.23492-1.26682,0.65181L5.55971,5.09645c-0.73992,0.97965,0.0393,2.49391,1.26664,2.46201h1.61689v2.88463
			c0,0.6767,0.4372,1.27592,1.08163,1.48253c0.64412,0.20649,1.3484-0.02673,1.74192-0.57736
			C11.26679,11.34824,14.48777,6.83146,14.48696,6.83122z"/>
		<g>
			<path fill="#33475B" d="M7.4435,8.55817H6.82636L6.78825,8.55869c-0.94238,0-1.79991-0.54658-2.23797-1.42638
				C4.11607,6.26025,4.19403,5.25533,4.75302,4.5058l1.8007-2.52l0.00021-0.42982C6.55394,0.69665,5.85731,0,4.99795,0
				C4.47532,0,4.03092,0.2355,3.74877,0.63072C3.75319,0.6245,3.7347,0.64799,3.72985,0.6548l-3.1729,4.44027
				c-0.73973,0.97942,0.0393,2.49333,1.2663,2.46142h1.61649v2.88388c0,0.67649,0.43708,1.27557,1.08135,1.48209
				c0.64393,0.20646,1.34803-0.0267,1.74145-0.57721c0,0,0.54258-0.76091,1.18096-1.65615V8.55817z"/>
		</g>
	</g>
	<circle fill="#FF7A59" cx="10.00188" cy="1.5564" r="1.5564"/>
</g>
</svg>
